<svg width="60" height="60" viewBox="0 0 60 60" fill="none" xmlns="http://www.w3.org/2000/svg">
<rect width="60" height="60" rx="12" fill="#384056"/>
<path d="M41.3025 15.5582V32.721C41.3025 33.0678 41.5836 33.3489 41.9304 33.3489C42.2772 33.3489 42.5583 33.0678 42.5583 32.721V15.5582C42.5583 15.2114 42.2772 14.9303 41.9304 14.9303C41.5836 14.9303 41.3025 15.2114 41.3025 15.5582Z" fill="white"/>
<path d="M36.6978 15.5582V32.721C36.6978 33.0678 36.9789 33.3489 37.3257 33.3489C37.6724 33.3489 37.9536 33.0678 37.9536 32.721V15.5582C37.9536 15.2114 37.6724 14.9303 37.3257 14.9303C36.9789 14.9303 36.6978 15.2114 36.6978 15.5582Z" fill="white"/>
<path d="M32.093 15.5582V32.721C32.093 33.0678 32.3741 33.3489 32.7209 33.3489C33.0677 33.3489 33.3488 33.0678 33.3488 32.721V15.5582C33.3488 15.2114 33.0677 14.9303 32.7209 14.9303C32.3741 14.9303 32.093 15.2114 32.093 15.5582Z" fill="white"/>
<path d="M27.4885 15.5582V32.721C27.4885 33.0678 27.7696 33.3489 28.1164 33.3489C28.4632 33.3489 28.7443 33.0678 28.7443 32.721V15.5582C28.7443 15.2114 28.4632 14.9303 28.1164 14.9303C27.7696 14.9303 27.4885 15.2114 27.4885 15.5582Z" fill="white"/>
<path d="M44.6513 12.6279H24.9768C24.1677 12.6279 23.5117 13.2839 23.5117 14.093V33.7675C23.5117 34.5766 24.1677 35.2326 24.9768 35.2326H44.6513C45.4604 35.2326 46.1164 34.5766 46.1164 33.7675V14.093C46.1164 13.2839 45.4604 12.6279 44.6513 12.6279Z" stroke="white" stroke-width="1.25581" stroke-linejoin="round"/>
<path d="M35.4419 24.7675H15.3489C14.5397 24.7675 13.8838 25.4234 13.8838 26.2326V45.907C13.8838 46.7162 14.5397 47.3721 15.3489 47.3721H35.4419C36.2511 47.3721 36.907 46.7162 36.907 45.907V26.2326C36.907 25.4234 36.2511 24.7675 35.4419 24.7675Z" fill="#384056" stroke="white" stroke-width="1.25581" stroke-linejoin="round"/>
<path d="M22.6744 29.5814C23.2524 29.5814 23.721 29.1129 23.721 28.5349C23.721 27.9569 23.2524 27.4884 22.6744 27.4884C22.0965 27.4884 21.6279 27.9569 21.6279 28.5349C21.6279 29.1129 22.0965 29.5814 22.6744 29.5814Z" fill="white"/>
<path d="M17.6512 29.5814C18.2292 29.5814 18.6978 29.1129 18.6978 28.5349C18.6978 27.9569 18.2292 27.4884 17.6512 27.4884C17.0733 27.4884 16.6047 27.9569 16.6047 28.5349C16.6047 29.1129 17.0733 29.5814 17.6512 29.5814Z" fill="white"/>
<path d="M33.1395 29.5814C33.7175 29.5814 34.186 29.1129 34.186 28.5349C34.186 27.9569 33.7175 27.4884 33.1395 27.4884C32.5616 27.4884 32.093 27.9569 32.093 28.5349C32.093 29.1129 32.5616 29.5814 33.1395 29.5814Z" fill="white"/>
<path d="M28.1163 29.5814C28.6943 29.5814 29.1628 29.1129 29.1628 28.5349C29.1628 27.9569 28.6943 27.4884 28.1163 27.4884C27.5384 27.4884 27.0698 27.9569 27.0698 28.5349C27.0698 29.1129 27.5384 29.5814 28.1163 29.5814Z" fill="white"/>
<path d="M22.6744 45.0697C23.2524 45.0697 23.721 44.6012 23.721 44.0232C23.721 43.4452 23.2524 42.9767 22.6744 42.9767C22.0965 42.9767 21.6279 43.4452 21.6279 44.0232C21.6279 44.6012 22.0965 45.0697 22.6744 45.0697Z" fill="white"/>
<path d="M17.6512 45.0697C18.2292 45.0697 18.6978 44.6012 18.6978 44.0232C18.6978 43.4452 18.2292 42.9767 17.6512 42.9767C17.0733 42.9767 16.6047 43.4452 16.6047 44.0232C16.6047 44.6012 17.0733 45.0697 17.6512 45.0697Z" fill="white"/>
<path d="M33.1395 45.0697C33.7175 45.0697 34.186 44.6012 34.186 44.0232C34.186 43.4452 33.7175 42.9767 33.1395 42.9767C32.5616 42.9767 32.093 43.4452 32.093 44.0232C32.093 44.6012 32.5616 45.0697 33.1395 45.0697Z" fill="white"/>
<path d="M28.1163 45.0697C28.6943 45.0697 29.1628 44.6012 29.1628 44.0232C29.1628 43.4452 28.6943 42.9767 28.1163 42.9767C27.5384 42.9767 27.0698 43.4452 27.0698 44.0232C27.0698 44.6012 27.5384 45.0697 28.1163 45.0697Z" fill="white"/>
<path d="M22.6744 40.0465C23.2524 40.0465 23.721 39.578 23.721 39C23.721 38.422 23.2524 37.9535 22.6744 37.9535C22.0965 37.9535 21.6279 38.422 21.6279 39C21.6279 39.578 22.0965 40.0465 22.6744 40.0465Z" fill="white"/>
<path d="M17.6512 40.0465C18.2292 40.0465 18.6978 39.578 18.6978 39C18.6978 38.422 18.2292 37.9535 17.6512 37.9535C17.0733 37.9535 16.6047 38.422 16.6047 39C16.6047 39.578 17.0733 40.0465 17.6512 40.0465Z" fill="white"/>
<path d="M33.1395 40.0465C33.7175 40.0465 34.186 39.578 34.186 39C34.186 38.422 33.7175 37.9535 33.1395 37.9535C32.5616 37.9535 32.093 38.422 32.093 39C32.093 39.578 32.5616 40.0465 33.1395 40.0465Z" fill="white"/>
<path d="M28.1163 40.0465C28.6943 40.0465 29.1628 39.578 29.1628 39C29.1628 38.422 28.6943 37.9535 28.1163 37.9535C27.5384 37.9535 27.0698 38.422 27.0698 39C27.0698 39.578 27.5384 40.0465 28.1163 40.0465Z" fill="white"/>
<path d="M22.6744 34.6046C23.2524 34.6046 23.721 34.1361 23.721 33.5581C23.721 32.9801 23.2524 32.5116 22.6744 32.5116C22.0965 32.5116 21.6279 32.9801 21.6279 33.5581C21.6279 34.1361 22.0965 34.6046 22.6744 34.6046Z" fill="white"/>
<path d="M17.6512 34.6046C18.2292 34.6046 18.6978 34.1361 18.6978 33.5581C18.6978 32.9801 18.2292 32.5116 17.6512 32.5116C17.0733 32.5116 16.6047 32.9801 16.6047 33.5581C16.6047 34.1361 17.0733 34.6046 17.6512 34.6046Z" fill="white"/>
<path d="M33.1395 34.6046C33.7175 34.6046 34.186 34.1361 34.186 33.5581C34.186 32.9801 33.7175 32.5116 33.1395 32.5116C32.5616 32.5116 32.093 32.9801 32.093 33.5581C32.093 34.1361 32.5616 34.6046 33.1395 34.6046Z" fill="white"/>
<path d="M28.1163 34.6046C28.6943 34.6046 29.1628 34.1361 29.1628 33.5581C29.1628 32.9801 28.6943 32.5116 28.1163 32.5116C27.5384 32.5116 27.0698 32.9801 27.0698 33.5581C27.0698 34.1361 27.5384 34.6046 28.1163 34.6046Z" fill="white"/>
</svg>
