<svg width="101" height="100" viewBox="0 0 101 100" fill="none" xmlns="http://www.w3.org/2000/svg">
<path d="M99.3222 50.4956C99.3222 55.9051 98.428 61.1571 96.7887 66.0783C90.3414 85.3539 72.1287 99.2122 50.8258 99.2122C29.5228 99.2122 11.2317 85.2673 4.78433 65.9917C3.88233 63.2909 3.23132 60.5035 2.82346 57.6295C2.49403 55.2516 2.33716 52.8736 2.33716 50.4956C2.33716 46.9681 2.74502 43.5193 3.39603 40.2437C8.04724 18.2594 27.5619 1.77124 50.8258 1.77124C66.3402 1.77124 80.137 9.07045 88.9531 20.3933C89.6041 21.2122 90.1767 21.9523 90.7492 22.7712C92.6238 25.3933 94.1769 28.2673 95.4867 31.2988C97.9339 37.2043 99.3222 43.6846 99.3222 50.4956Z" fill="#F5F5F5" stroke="#E5E5E5" stroke-miterlimit="10"/>
<path d="M25.5276 59.8279V45.0857" stroke="#F5F5F5" stroke-width="1.1"/>
<path d="M57.3268 74.1865H44.7099C44.6726 74.1865 44.6436 74.1045 44.6436 73.999V67.4482C44.6436 66.6162 44.8841 65.9365 45.1786 65.9365H56.8582C57.1526 65.9365 57.3932 66.6162 57.3932 67.4482V73.999C57.3974 74.1045 57.3642 74.1865 57.3268 74.1865Z" fill="#E5E5E5" stroke="#D4D4D4" stroke-miterlimit="10"/>
<path d="M78.7686 68.1865H23.2034C22.5186 68.1865 22.1436 67.5712 22.1436 67.3116V25.4278C22.1436 22.4488 22.1436 21.6865 27.6793 21.6865H74.3578C79.8936 21.6865 79.8936 22.0677 79.8936 25.4278V66.8044C79.8936 67.4365 79.5186 68.1865 78.7686 68.1865Z" fill="white" stroke="#D4D4D4" stroke-miterlimit="10"/>
<path d="M22.1436 62.4995H79.6436V66.8745C79.6436 67.4268 79.1958 67.8745 78.6436 67.8745H23.1436C22.5913 67.8745 22.1436 67.4268 22.1436 66.8745V62.4995Z" fill="#F5F5F5"/>
<path d="M77.1436 26.4868V58.5123C77.1436 59.3385 76.4096 59.9995 75.4921 59.9995H27.545C27.0312 59.9995 26.5908 59.7847 26.2789 59.4707C26.0404 59.2228 25.8936 58.8758 25.8936 58.5288V26.4868C25.8936 25.6605 26.6275 24.9995 27.545 24.9995H75.5105C75.9325 24.9995 76.3178 25.1317 76.6114 25.3796C76.9417 25.644 77.1436 26.0406 77.1436 26.4868Z" fill="#FAFAFA"/>
<path d="M73.0575 24.9995H26.9136C24.6436 24.9995 24.6436 24.9995 24.6436 28.6102V56.3888C24.6436 59.9995 24.6435 59.9995 28.7503 59.9995H73.0368C77.1436 59.9995 77.1436 59.9995 77.1436 56.3888V28.592C77.1436 24.9995 77.1436 24.9995 73.0575 24.9995Z" fill="#FAFAFA" stroke="#D4D4D4" stroke-miterlimit="10"/>
<path d="M57.2283 37.436L54.6714 39.9948" stroke="#737373" stroke-miterlimit="10" stroke-linecap="round" stroke-linejoin="round"/>
<path d="M54.6714 37.436L57.2283 39.9948" stroke="#737373" stroke-miterlimit="10" stroke-linecap="round" stroke-linejoin="round"/>
<path d="M47.2129 37.4362L44.6436 39.9949" stroke="#737373" stroke-miterlimit="10" stroke-linecap="round" stroke-linejoin="round"/>
<path d="M44.6436 37.4362L47.2129 39.9949" stroke="#737373" stroke-miterlimit="10" stroke-linecap="round" stroke-linejoin="round"/>
<path d="M49.0715 42.9034L50.007 43.8521H51.8654L52.751 42.9034" stroke="#737373" stroke-miterlimit="10" stroke-linecap="round" stroke-linejoin="round"/>
<path d="M47.2876 47.2594H53.8981L55.6817 48.6823" stroke="#737373" stroke-miterlimit="10" stroke-linecap="round" stroke-linejoin="round"/>
<path d="M51.1456 23.7014H50.8425C50.7364 23.7014 50.6518 23.6196 50.6441 23.5176C50.6437 23.5126 50.6436 23.5075 50.6436 23.5024V23.1991C50.6436 23.0877 50.7335 23 50.8425 23H51.1456C51.2569 23 51.3445 23.0901 51.3445 23.1991V23.5024C51.3469 23.6114 51.2569 23.7014 51.1456 23.7014Z" fill="#E5E5E5" stroke="#D4D4D4" stroke-width="1.8"/>
<path d="M79.6436 62.5H22.1436" stroke="#D4D4D4" stroke-miterlimit="10"/>
<path d="M28.1972 77.8848H26.3477C25.9015 77.8848 25.5398 78.2465 25.5398 78.6926C25.5398 79.1388 25.9015 79.5005 26.3477 79.5005H28.1972C28.6433 79.5005 29.005 79.1388 29.005 78.6926C29.005 78.2465 28.6433 77.8848 28.1972 77.8848Z" fill="#F5F5F5" stroke="#D4D4D4" stroke-width="0.649893" stroke-miterlimit="10"/>
<path d="M31.2565 77.8848H30.4678C30.0216 77.8848 29.6599 78.2465 29.6599 78.6926C29.6599 79.1388 30.0216 79.5005 30.4678 79.5005H31.2565C31.7027 79.5005 32.0644 79.1388 32.0644 78.6926C32.0644 78.2465 31.7027 77.8848 31.2565 77.8848Z" fill="#F5F5F5" stroke="#D4D4D4" stroke-width="0.649893" stroke-miterlimit="10"/>
<path d="M60.6461 79.5016L62.4956 79.5016C62.9418 79.5016 63.3035 79.1399 63.3035 78.6937C63.3035 78.2475 62.9418 77.8858 62.4956 77.8858L60.6461 77.8858C60.1999 77.8858 59.8382 78.2475 59.8382 78.6937C59.8382 79.1399 60.1999 79.5016 60.6461 79.5016Z" fill="#F5F5F5" stroke="#D4D4D4" stroke-width="0.649893" stroke-miterlimit="10"/>
<path d="M57.578 79.5016L58.3667 79.5016C58.8129 79.5016 59.1746 79.1399 59.1746 78.6937C59.1746 78.2475 58.8129 77.8858 58.3667 77.8858L57.578 77.8858C57.1318 77.8858 56.7701 78.2475 56.7701 78.6937C56.7701 79.1399 57.1318 79.5016 57.578 79.5016Z" fill="#F5F5F5" stroke="#D4D4D4" stroke-width="0.649893" stroke-miterlimit="10"/>
<path d="M55.0712 77.8848H33.7031C33.257 77.8848 32.8953 78.2465 32.8953 78.6926C32.8953 79.1388 33.257 79.5005 33.7031 79.5005H55.0712C55.5174 79.5005 55.8791 79.1388 55.8791 78.6926C55.8791 78.2465 55.5174 77.8848 55.0712 77.8848Z" fill="#F5F5F5" stroke="#D4D4D4" stroke-width="0.649893" stroke-miterlimit="10"/>
<path d="M64.1211 80.4277H24.2787C23.8048 80.4277 23.4187 80.2749 23.4187 80.0873V79.7676V79.448C23.4187 79.2604 23.8048 79.1075 24.2787 79.1075H64.1387C64.6126 79.1075 64.9987 79.2604 64.9987 79.448V80.0873C64.9812 80.2749 64.595 80.4277 64.1211 80.4277Z" fill="white" stroke="#D4D4D4" stroke-width="0.649893" stroke-miterlimit="10"/>
<path d="M76.8705 80.3601H70.6168C70.0668 80.3601 69.6187 80.169 69.6187 79.9345V79.535V79.1354C69.6187 78.9009 70.0668 78.7098 70.6168 78.7098H76.8705C77.4205 78.7098 77.8687 78.9009 77.8687 79.1354V79.9345C77.8687 80.169 77.4205 80.3601 76.8705 80.3601Z" fill="white" stroke="#D4D4D4" stroke-width="0.812366" stroke-miterlimit="10"/>
</svg>
