<svg width="60" height="60" viewBox="0 0 60 60" fill="none" xmlns="http://www.w3.org/2000/svg">
<rect width="60" height="60" rx="12" fill="#F5F5F5"/>
<g clip-path="url(#clip0_2021_5611)">
<path d="M43.5 47.2501H47.25V12.7501H24.75V18.0001M12.75 35.6851C13.6607 35.3173 14.6478 35.1788 15.6246 35.2816C16.6014 35.3844 17.538 35.7254 18.3523 36.2747C19.1665 36.824 19.8334 37.5648 20.2945 38.432C20.7555 39.2993 20.9967 40.2664 20.9967 41.2486C20.9967 42.2308 20.7555 43.198 20.2945 44.0652C19.8334 44.9325 19.1665 45.6732 18.3523 46.2226C17.538 46.7719 16.6014 47.1129 15.6246 47.2157C14.6478 47.3185 13.6607 47.1799 12.75 46.8121M27 47.2501C25.9095 47.2501 25.0905 45.6436 25.0905 45.6436C24.273 44.0356 24.273 42.9646 24.273 41.3566V39.7501H21M19.5 30.0001L16.5 36.0001M21.75 36.7501L24.75 30.7501C24.75 30.7501 22.5 27.7501 18.9 27.7501C16.2 27.7501 15 28.5001 15 28.5001L12.75 33.0001M40.5 47.2501C39 47.2501 37.875 45.0001 37.875 45.0001C36.75 42.7501 36.75 41.2501 36.75 39.0001V38.2501L31.125 34.5001V34.1251L33.987 28.6621C34.368 27.9347 34.9408 27.3254 35.6433 26.9003C36.3459 26.4751 37.1513 26.2503 37.9725 26.2501H39V29.6461C39 30.7831 39.66 31.8091 40.776 32.0161C41.6749 32.1773 42.5868 32.2556 43.5 32.2501M34.5 40.5001C32.025 40.4146 29.4525 41.2591 28.5 41.8426M25.9575 27.7501C25.9575 27.7501 28.6725 26.9146 29.16 25.0861C29.3414 24.4089 29.2473 23.6874 28.8981 23.0794C28.549 22.4714 27.9733 22.0263 27.297 21.8416C26.9625 21.7521 26.6136 21.7297 26.2704 21.7756C25.9272 21.8215 25.5965 21.9349 25.2973 22.1091C24.998 22.2834 24.7363 22.5152 24.527 22.7911C24.3178 23.067 24.1652 23.3815 24.078 23.7166C23.592 25.5451 25.521 27.6316 25.521 27.6316L25.9575 27.7501ZM39.39 23.2921C39.39 23.2921 37.4595 21.2221 37.9455 19.4101C38.1258 18.7379 38.5658 18.1648 39.1686 17.8168C39.7714 17.4689 40.4877 17.3745 41.16 17.5546C41.4927 17.6437 41.8046 17.7975 42.0778 18.0073C42.351 18.2171 42.5801 18.4787 42.752 18.7772C42.9239 19.0756 43.0353 19.405 43.0798 19.7466C43.1242 20.0881 43.1008 20.4351 43.011 20.7676C42.525 22.5796 39.825 23.4076 39.825 23.4076L39.39 23.2921Z" stroke="#737373" stroke-width="1.13684"/>
</g>
<defs>
<clipPath id="clip0_2021_5611">
<rect width="36" height="36" fill="white" transform="translate(12 12)"/>
</clipPath>
</defs>
</svg>
