<svg width="60" height="60" viewBox="0 0 60 60" fill="none" xmlns="http://www.w3.org/2000/svg">
<rect width="60" height="60" rx="12" fill="#384056"/>
<g clip-path="url(#clip0_2016_3961)">
<path fill-rule="evenodd" clip-rule="evenodd" d="M32.8034 21.1473C32.6431 21.1473 32.4889 21.0818 32.374 20.9608C32.2782 20.86 32.2188 20.7411 32.1098 20.5253C31.9183 20.1443 31.5615 19.4335 30.8236 18.499C30.5181 18.112 30.3952 17.9799 30.3085 17.8943C30.2409 17.8278 30.0685 17.6665 29.8205 17.484C29.6331 17.7048 29.4183 17.8912 29.1784 18.0404C28.4657 18.485 27.7651 18.4678 27.2016 18.4547L27.1623 18.4537C27.1451 18.4537 25.4254 18.4144 23.5897 18.5414C22.2903 18.6312 21.9093 18.7894 21.6311 18.9427C21.3781 19.0827 20.9073 19.3428 20.6906 19.8247C20.5968 20.0324 20.5696 20.2359 20.5464 20.3992C20.5343 20.49 20.5232 20.5686 20.5021 20.6472C20.4103 20.9839 20.1522 21.123 19.9416 21.1401C19.8146 21.1512 19.497 21.133 19.2814 20.7379C19.227 20.6381 19.1745 20.508 19.1261 20.3528C19.0374 20.0705 18.9659 19.7177 18.9296 19.3841C18.7935 18.1491 19.1211 17.1371 19.3277 16.6441C19.4618 16.3246 19.8651 15.494 20.7077 14.6784C22.1674 13.2682 23.9113 12.9063 25.0656 12.6664C26.0283 12.4668 26.7016 12.4376 27.5484 12.4184C28.2077 12.4033 28.9869 12.4316 29.7752 12.7581C30.1784 12.9244 30.4728 13.123 30.7026 13.3831C30.878 13.5827 30.9485 13.739 31.0302 13.9194C31.0725 14.0122 31.1199 14.118 31.1964 14.2652C31.3879 14.6291 31.5039 14.8498 31.6954 15.0484C31.782 15.1381 31.8153 15.1573 31.9383 15.2298C32.0694 15.3074 32.2488 15.4123 32.5472 15.6361C32.9141 15.9113 33.1571 16.0938 33.4192 16.4093C33.5866 16.6119 33.9363 17.0332 34.0745 17.6593C34.1632 18.0585 34.1219 18.373 34.0533 18.8942C34.0089 19.2309 33.781 19.8488 33.7116 20.0293C33.4172 20.8025 33.268 21.0262 32.9878 21.117C32.9284 21.1373 32.8649 21.1473 32.8034 21.1473ZM29.6825 16.1646C29.9617 16.1646 30.2036 16.3339 30.3569 16.4408L30.3729 16.4519C30.7389 16.7059 30.9989 16.9448 31.1209 17.0649C31.2529 17.1939 31.4082 17.3653 31.7358 17.7796C32.1955 18.3622 32.5211 18.8653 32.7549 19.2685C32.8315 19.0457 32.891 18.8442 32.9041 18.7433C32.9666 18.2625 32.9848 18.1012 32.9424 17.9097C32.8648 17.5578 32.6612 17.3129 32.5271 17.1506C32.3527 16.9399 32.1854 16.815 31.8528 16.5649C31.6068 16.3804 31.4657 16.2967 31.3518 16.2302C31.2006 16.1415 31.0584 16.0579 30.8619 15.8532C30.5554 15.5357 30.3861 15.2131 30.1713 14.8048C30.0776 14.6264 30.0181 14.4934 29.9738 14.3966C29.9062 14.2474 29.8921 14.2172 29.8337 14.1507C29.7601 14.067 29.6371 13.956 29.3336 13.8301C28.746 13.5872 28.1421 13.5659 27.5766 13.5781C26.7671 13.5962 26.1713 13.6225 25.3034 13.8019C24.2187 14.0267 22.7338 14.3352 21.5161 15.5125C20.8085 16.197 20.4819 16.8945 20.3992 17.0922C20.2682 17.4036 20.0777 17.9752 20.0605 18.6899C20.1583 18.5801 20.2661 18.4752 20.3851 18.3774C20.6502 18.1577 20.9123 18.0125 21.0696 17.9258C21.5604 17.6536 22.1179 17.4782 23.5101 17.3815C25.4022 17.2504 27.1189 17.2897 27.1906 17.2918L27.2309 17.2928C27.7016 17.3039 28.1472 17.3149 28.5635 17.0549C28.7812 16.9188 28.9678 16.7253 29.117 16.4793C29.2108 16.324 29.36 16.2171 29.5383 16.1788C29.5877 16.1685 29.6351 16.1646 29.6825 16.1646Z" fill="white"/>
<path fill-rule="evenodd" clip-rule="evenodd" d="M26.5203 30.8146C26.1302 30.8146 25.6867 30.7773 25.2089 30.6714C24.7835 30.5776 23.6757 30.2631 22.5879 29.372C22.0668 28.9446 21.1101 28.002 20.5668 26.49C20.4186 26.0777 20.3218 25.6342 20.2663 25.3307C19.8863 25.1603 19.5375 24.9033 19.2421 24.5737C18.8651 24.1523 18.602 23.6423 18.482 23.0989C18.2381 21.9941 18.6131 20.9094 19.5112 20.1252C19.7532 19.9145 20.1201 19.9386 20.3308 20.1806C20.5415 20.4226 20.5173 20.7895 20.2753 21.0001C19.496 21.6806 19.5273 22.4507 19.616 22.8489C19.7732 23.5606 20.3085 24.1635 20.9476 24.3489C21.1684 24.4134 21.3307 24.6009 21.3609 24.8287C21.4053 25.1544 21.5091 25.6825 21.6593 26.0989C22.1251 27.3952 22.9788 28.1926 23.3236 28.4759C24.2177 29.2077 25.1149 29.4638 25.4586 29.5403C26.4385 29.756 27.246 29.6139 27.5483 29.5424C28.373 29.3478 28.9283 28.9647 29.1663 28.8014C29.3377 28.6835 29.7853 28.3508 30.2409 27.8115C30.8991 27.0322 31.384 25.9727 31.6461 24.746C31.6955 24.5131 31.883 24.3336 32.1179 24.2943C32.3739 24.251 32.6532 24.0302 32.883 23.6896C33.133 23.3176 33.2953 22.8499 33.3276 22.4073C33.3618 21.9335 33.2671 21.3247 32.6179 21.116C32.3125 21.0182 32.1452 20.6906 32.243 20.3851C32.3408 20.0797 32.6684 19.9124 32.9738 20.0102C33.5242 20.1876 33.9526 20.5394 34.2117 21.0293C34.4305 21.4416 34.5252 21.9466 34.486 22.49C34.4396 23.1281 34.2067 23.8014 33.8469 24.3367C33.5293 24.8086 33.1332 25.1492 32.7048 25.3256C32.3872 26.6109 31.858 27.6976 31.1292 28.5604C30.6029 29.1834 30.0868 29.5775 29.8257 29.757C29.5595 29.9395 28.8529 30.4263 27.8167 30.6713C27.5374 30.7359 27.0849 30.8146 26.5203 30.8146Z" fill="white"/>
<path fill-rule="evenodd" clip-rule="evenodd" d="M23.0476 33.0393C22.9609 33.0393 22.8732 33.0201 22.7896 32.9789C22.5023 32.8368 22.3843 32.488 22.5274 32.2007C22.7059 31.8408 23.0083 31.1191 23.0295 30.3257C23.0376 30.0142 22.9972 29.872 22.9307 29.6351C22.9126 29.5716 22.8924 29.4991 22.8712 29.4195C22.7915 29.109 22.979 28.7924 23.2895 28.7128C23.6 28.6331 23.9166 28.8206 23.9962 29.1311C24.0134 29.1956 24.0305 29.2582 24.0476 29.3186C24.1242 29.5888 24.2039 29.8681 24.1908 30.3559C24.1646 31.372 23.7896 32.2712 23.5689 32.7157C23.467 32.9214 23.2613 33.0393 23.0476 33.0393Z" fill="white"/>
<path fill-rule="evenodd" clip-rule="evenodd" d="M30.0847 33.4204C29.8871 33.4204 29.6956 33.3195 29.5867 33.1391C29.2037 32.502 28.7409 31.5021 28.7107 30.3569C28.6975 29.868 28.7772 29.5888 28.8538 29.3196C28.871 29.2591 28.8881 29.1976 28.9053 29.1321C28.9849 28.8217 29.3014 28.6341 29.6119 28.7137C29.9225 28.7934 30.11 29.1099 30.0303 29.4204C30.0102 29.4991 29.989 29.5716 29.9708 29.6361C29.9043 29.872 29.863 30.0151 29.872 30.3266C29.8952 31.2198 30.2712 32.0242 30.5816 32.5413C30.747 32.8165 30.6583 33.1734 30.3831 33.3378C30.2894 33.3932 30.1865 33.4204 30.0847 33.4204Z" fill="white"/>
<path fill-rule="evenodd" clip-rule="evenodd" d="M41.0483 47.5845H12.5809C12.2613 47.5845 12.0012 47.3254 12.0003 47.006C11.9942 44.9818 12.087 39.9224 13.096 36.6684C13.3642 35.8055 13.6888 35.1009 14.1172 34.4517C14.477 33.9073 15.5154 32.5384 17.3701 31.5958C19.0698 30.731 20.6958 30.6029 21.7602 30.6473C21.8994 30.6533 22.0325 30.7088 22.1332 30.8045L26.6927 35.0857L31.5041 30.7954C31.6039 30.7057 31.7319 30.6543 31.8671 30.6482C32.9315 30.6039 34.5565 30.7328 36.2571 31.5968C38.112 32.5403 39.1503 33.9083 39.5101 34.4526C39.9396 35.1018 40.2642 35.8055 40.5313 36.6693C40.995 38.1623 41.3176 40.2046 41.4909 42.7368C41.5847 44.1037 41.6321 45.5795 41.627 47.0059C41.628 47.3265 41.3679 47.5845 41.0483 47.5845ZM26.7794 46.4233H40.4667C40.4586 45.2076 40.4133 43.9717 40.3336 42.8165C40.1663 40.373 39.8598 38.4204 39.4233 37.0131C39.1854 36.248 38.9143 35.6553 38.5423 35.0927C38.2328 34.6249 37.3397 33.4486 35.7308 32.6311C34.3598 31.9335 33.0423 31.7874 32.12 31.8015L27.0696 36.3044C26.8448 36.504 26.5051 36.5 26.2853 36.2943L21.5001 31.8004C20.5787 31.7883 19.2652 31.9344 17.8972 32.63C16.2884 33.4475 15.3953 34.6239 15.0858 35.0916C14.7138 35.6541 14.4426 36.2459 14.2047 37.011C13.7683 38.4182 13.4618 40.3709 13.2944 42.8144C13.2148 43.9697 13.1694 45.2055 13.1613 46.4212L26.7794 46.4233Z" fill="white"/>
<path fill-rule="evenodd" clip-rule="evenodd" d="M18.0909 47.5845C17.7703 47.5845 17.5103 47.3244 17.5103 47.0039V40.3074C17.5103 39.9869 17.7704 39.7268 18.0909 39.7268C18.4114 39.7268 18.6715 39.9869 18.6715 40.3074V47.0039C18.6716 47.3245 18.4115 47.5845 18.0909 47.5845Z" fill="white"/>
<path fill-rule="evenodd" clip-rule="evenodd" d="M36.0061 47.5845C35.6856 47.5845 35.4255 47.3244 35.4255 47.0039V40.3074C35.4255 39.9869 35.6856 39.7268 36.0061 39.7268C36.3267 39.7268 36.5867 39.9869 36.5867 40.3074V47.0039C36.5868 47.3245 36.3267 47.5845 36.0061 47.5845Z" fill="white"/>
<path fill-rule="evenodd" clip-rule="evenodd" d="M38.3418 30.8287C38.0213 30.8287 37.7612 30.5687 37.7612 30.2481V13.7815C37.7612 13.461 38.0213 13.2009 38.3418 13.2009C38.6624 13.2009 38.9224 13.461 38.9224 13.7815V30.2481C38.9225 30.5686 38.6624 30.8287 38.3418 30.8287Z" fill="white"/>
<path fill-rule="evenodd" clip-rule="evenodd" d="M47.4194 22.7915H38.3418C38.0213 22.7915 37.7612 22.5315 37.7612 22.2109V15.2109C37.7612 14.9892 37.8872 14.7876 38.0858 14.6898C38.2844 14.592 38.5213 14.6162 38.6967 14.7513L47.7743 21.7512C47.9708 21.9024 48.0494 22.1635 47.9689 22.3984C47.8892 22.6333 47.6674 22.7915 47.4194 22.7915ZM38.9225 21.6302H45.7157L38.9225 16.3924V21.6302Z" fill="white"/>
<path fill-rule="evenodd" clip-rule="evenodd" d="M29.6866 45.4837H23.6463C23.3257 45.4837 23.0657 45.2236 23.0657 44.9031V37.7953C23.0657 37.4748 23.3257 37.2147 23.6463 37.2147H29.6866C30.0071 37.2147 30.2672 37.4748 30.2672 37.7953V44.9031C30.2672 45.2246 30.0081 45.4837 29.6866 45.4837ZM24.228 44.3225H29.1069V38.3759H24.228V44.3225Z" fill="white"/>
<path fill-rule="evenodd" clip-rule="evenodd" d="M23.6472 38.376C23.4497 38.376 23.2571 38.2751 23.1483 38.0937L19.2975 31.6713C19.1322 31.3961 19.2219 31.0393 19.4971 30.8749C19.7723 30.7096 20.1291 30.7993 20.2935 31.0745L24.1443 37.4968C24.3096 37.772 24.2199 38.1288 23.9447 38.2932C23.8519 38.3498 23.749 38.376 23.6472 38.376Z" fill="white"/>
<path fill-rule="evenodd" clip-rule="evenodd" d="M29.6867 38.376C29.5849 38.376 29.482 38.3498 29.3883 38.2934C29.1131 38.1281 29.0243 37.7722 29.1887 37.497L33.0394 31.0747C33.2048 30.7995 33.5606 30.7108 33.8358 30.8751C34.111 31.0404 34.1998 31.3962 34.0354 31.6715L30.1847 38.0938C30.0768 38.2752 29.8842 38.376 29.6867 38.376Z" fill="white"/>
</g>
<defs>
<clipPath id="clip0_2016_3961">
<rect width="36" height="36" fill="white" transform="translate(12 12)"/>
</clipPath>
</defs>
</svg>
