<svg width="60" height="60" viewBox="0 0 60 60" fill="none" xmlns="http://www.w3.org/2000/svg">
<rect width="60" height="60" rx="12" fill="#F5F5F5"/>
<path d="M44.4569 21.6624L42.2803 20.8408C42.1125 20.7772 41.9611 20.6765 41.8375 20.5464L40.5948 19.236V16.176C40.5947 16.0768 40.5643 15.98 40.5076 15.8987C40.4509 15.8173 40.3706 15.7553 40.2776 15.721C40.1846 15.6866 40.0833 15.6816 39.9873 15.7065C39.8914 15.7315 39.8053 15.7853 39.7409 15.8606L39.2325 16.4553L39.1022 15.744C39.0837 15.6431 39.0337 15.5508 38.9595 15.4801C38.8852 15.4094 38.7905 15.3641 38.6889 15.3505C38.5873 15.337 38.484 15.3561 38.3938 15.4049C38.3037 15.4537 38.2313 15.5298 38.1871 15.6223L33.3185 25.8463L20.1633 16.1896C19.6269 15.8253 19.0884 16.5799 19.5873 16.9716L32.0217 26.0997H20.6033C17.4907 26.1537 16.3956 24.0031 16.4366 22.0951C16.4463 21.9788 16.4138 21.8629 16.3451 21.7686C16.2763 21.6744 16.1758 21.608 16.0621 21.5818C15.9484 21.5556 15.8291 21.5712 15.726 21.6258C15.6228 21.6804 15.5428 21.7703 15.5006 21.8791C13.6236 26.5519 14.2989 29.6342 19.056 30.5673V32.88C19.056 36.179 17.5389 36.7356 17.4252 36.773C17.3213 36.7982 17.2292 36.8584 17.1644 36.9435C17.0997 37.0286 17.0661 37.1334 17.0695 37.2403V44.1681C17.0695 44.2968 17.1206 44.4203 17.2116 44.5113C17.3026 44.6023 17.4261 44.6534 17.5548 44.6534H20.1468C20.838 44.6592 21.2822 44.1998 21.4637 43.6238H22.4515C24.1449 43.6238 24.3185 40.9555 22.9361 40.4349V38.784C23.8615 38.2022 24.5275 37.3689 24.9341 36.2841H32.664V43.1407C32.664 43.2694 32.7151 43.3928 32.8061 43.4838C32.8971 43.5748 33.0205 43.626 33.1493 43.626H34.3142V44.1703C34.3142 44.234 34.3268 44.2971 34.3512 44.356C34.3755 44.4149 34.4113 44.4684 34.4564 44.5134C34.5014 44.5585 34.5549 44.5942 34.6138 44.6186C34.6727 44.643 34.7358 44.6556 34.7995 44.6556H37.3879C39.0439 44.6692 39.2901 42.0218 37.8732 41.4667V34.7851L41.016 26.2084L43.7397 25.8902C44.0453 25.8548 44.3335 25.7298 44.5679 25.5308C44.8024 25.3317 44.9727 25.0677 45.0573 24.772L45.408 23.5538C45.5142 23.1767 45.4756 22.7735 45.2995 22.4235C45.1235 22.0734 44.8229 21.8019 44.4569 21.6624ZM39.6242 17.4864V18.2128L39.5364 18.12L39.4572 17.688L39.6242 17.4864ZM22.4443 41.3184C22.8043 41.3184 22.8857 41.8137 22.8857 42.0045C22.8911 42.1809 22.8432 42.3548 22.7481 42.5035C22.715 42.5531 22.6696 42.5932 22.6164 42.6199C22.5631 42.6467 22.5038 42.6592 22.4443 42.6561H21.5177C21.4269 42.1363 21.1339 41.6661 20.6249 41.4674V39.6292C21.0802 39.5509 21.5269 39.4291 21.959 39.2656V40.8331C21.959 40.8968 21.9716 40.9598 21.996 41.0187C22.0204 41.0775 22.0561 41.131 22.1012 41.176C22.1463 41.221 22.1998 41.2567 22.2586 41.281C22.3175 41.3053 22.3806 41.3177 22.4443 41.3176V41.3184ZM20.1403 43.6857H18.0365V37.56C18.6953 37.2 20.0222 36.0746 20.0222 32.8857V30.1548C20.0222 30.0382 19.9802 29.9254 19.9039 29.8373C19.8277 29.7491 19.7222 29.6913 19.6068 29.6745C16.0694 29.1417 14.8973 27.4224 15.785 24.0513C16.4769 26.0248 18.2582 27.0962 20.6033 27.0696H31.4033V35.3136H25.2055C25.2716 34.9978 25.3197 34.6786 25.3495 34.3574C25.3877 33.713 24.4632 33.6316 24.3833 34.266C24.1313 36.93 22.7222 38.3908 20.0777 38.73C19.9607 38.745 19.8532 38.8021 19.7753 38.8906C19.6974 38.9791 19.6544 39.093 19.6543 39.2109V41.8605C19.6543 41.9892 19.7054 42.1127 19.7964 42.2037C19.8874 42.2947 20.0109 42.3458 20.1396 42.3458C20.1396 42.3458 20.4809 42.3688 20.4686 43.0442C20.4578 43.6749 20.1396 43.685 20.1396 43.685L20.1403 43.6857ZM33.636 42.6561V36.2841H34.3164V42.6554L33.636 42.6561ZM34.068 26.5332L38.9244 29.0964L36.9336 34.536C36.9141 34.5895 36.9041 34.646 36.9041 34.703V41.8656C36.9041 41.9943 36.9552 42.1177 37.0462 42.2087C37.1372 42.2997 37.2606 42.3508 37.3893 42.3508C37.7493 42.3508 37.8307 42.8462 37.8307 43.037C37.8307 43.1032 37.8185 43.6886 37.3893 43.6886H35.2862V35.7988C35.2862 35.6701 35.2351 35.5467 35.1441 35.4557C35.0531 35.3647 34.9296 35.3136 34.8009 35.3136H32.376V27.0696H33.5035C33.8001 27.0609 33.9787 26.8672 34.0665 26.5324L34.068 26.5332ZM44.472 23.2852L44.1206 24.5035C44.0887 24.6153 44.0244 24.7152 43.9357 24.7904C43.847 24.8657 43.7379 24.9129 43.6224 24.9261L40.6027 25.2789C40.5135 25.2895 40.4289 25.3245 40.3584 25.3802C40.2878 25.4359 40.2341 25.51 40.2031 25.5943L39.2592 28.1762L34.4841 25.6562L38.4175 17.3942L38.6076 18.436C38.6246 18.5287 38.6681 18.6145 38.7329 18.683L41.1333 21.216C41.3578 21.4523 41.6327 21.6349 41.9376 21.7502L44.112 22.5703C44.2504 22.623 44.3641 22.7256 44.4307 22.8579C44.4973 22.9902 44.5121 23.1426 44.472 23.2852Z" fill="#737373"/>
<path d="M39.5242 21.1828C39.529 21.3097 39.5829 21.4298 39.6743 21.5178C39.7658 21.6059 39.8879 21.6551 40.0149 21.6551C40.1418 21.6551 40.2639 21.6059 40.3554 21.5178C40.4468 21.4298 40.5007 21.3097 40.5055 21.1828C40.4847 20.5392 39.545 20.5392 39.5242 21.1828Z" fill="#737373"/>
</svg>
