<svg width="14" height="14" viewBox="0 0 14 14" fill="none" xmlns="http://www.w3.org/2000/svg">
<path d="M12.3082 2.50825L7.23322 0.408252C7.11655 0.349919 6.94155 0.349919 6.76655 0.408252L1.69155 2.50825C1.45822 2.56659 1.34155 2.79992 1.34155 3.03325V7.87492C1.34155 10.0916 4.14155 12.2499 6.76655 13.5916C6.94155 13.6499 7.11655 13.6499 7.29155 13.5916C9.91655 12.2499 12.7166 10.0916 12.7166 7.87492V3.03325C12.6582 2.79992 12.5416 2.56659 12.3082 2.50825ZM10.1499 5.71659L6.76655 9.09992C6.64989 9.21659 6.47489 9.27492 6.35822 9.27492C6.24155 9.27492 6.06655 9.21659 5.94989 9.09992L3.84989 6.99992C3.61655 6.76658 3.61655 6.35825 3.84989 6.12492C4.08322 5.89158 4.49155 5.89158 4.72489 6.12492L6.35822 7.75825L9.33322 4.84159C9.56655 4.60825 9.97489 4.60825 10.2082 4.84159C10.4416 5.07492 10.4416 5.48325 10.1499 5.71659Z" fill="white"/>
</svg>
