<svg width="60" height="60" viewBox="0 0 60 60" fill="none" xmlns="http://www.w3.org/2000/svg">
<rect x="0.5" y="0.5" width="59" height="59" rx="11.5" fill="white"/>
<rect x="0.5" y="0.5" width="59" height="59" rx="11.5" stroke="#384056"/>
<path d="M43.0291 18.6857H16.9703C16.175 18.6857 15.5303 19.3304 15.5303 20.1257V46.1845C15.5303 46.9798 16.175 47.6245 16.9703 47.6245H43.0291C43.8244 47.6245 44.4691 46.9798 44.4691 46.1845V20.1257C44.4691 19.3304 43.8244 18.6857 43.0291 18.6857Z" stroke="#384056" stroke-width="1.23429" stroke-linejoin="round"/>
<path d="M20.6699 14.7692L23.6803 11.7588L26.6907 14.7692" stroke="#384056" stroke-width="1.23429" stroke-linecap="round" stroke-linejoin="round"/>
<path d="M39.3311 11.7583L36.3204 14.7689L33.3108 11.7583" stroke="#384056" stroke-width="1.23429" stroke-linecap="round" stroke-linejoin="round"/>
<path d="M24.4953 27.6446C25.3928 27.6446 26.1204 26.917 26.1204 26.0194C26.1204 25.1219 25.3928 24.3943 24.4953 24.3943C23.5977 24.3943 22.8701 25.1219 22.8701 26.0194C22.8701 26.917 23.5977 27.6446 24.4953 27.6446Z" stroke="#384056" stroke-width="1.23429" stroke-linecap="round"/>
<mask id="mask0_2366_3317" style="mask-type:luminance" maskUnits="userSpaceOnUse" x="19" y="27" width="11" height="10">
<path d="M29.1852 27.0388H19.8066V36.009H29.1852V27.0388Z" fill="white"/>
</mask>
<g mask="url(#mask0_2366_3317)">
<path d="M24.4959 29.2869H24.4948C22.4714 29.2869 20.8311 30.9272 20.8311 32.9506V37.8446C20.8311 39.868 22.4714 41.5084 24.4948 41.5084H24.4959C26.5193 41.5084 28.1596 39.868 28.1596 37.8446V32.9506C28.1596 30.9272 26.5193 29.2869 24.4959 29.2869Z" stroke="#384056" stroke-width="1.23429" stroke-linecap="round"/>
</g>
<mask id="mask1_2366_3317" style="mask-type:luminance" maskUnits="userSpaceOnUse" x="21" y="36" width="7" height="8">
<path d="M27.5539 36.01H21.438V43.7572H27.5539V36.01Z" fill="white"/>
</mask>
<g mask="url(#mask1_2366_3317)">
<path d="M26.5283 33.7429H22.4624V46.4314H26.5283V33.7429Z" stroke="#384056" stroke-width="1.23429" stroke-linecap="round"/>
</g>
<path d="M35.9127 27.6446C36.8103 27.6446 37.5379 26.917 37.5379 26.0194C37.5379 25.1219 36.8103 24.3943 35.9127 24.3943C35.0152 24.3943 34.2876 25.1219 34.2876 26.0194C34.2876 26.917 35.0152 27.6446 35.9127 27.6446Z" stroke="#384056" stroke-width="1.23429" stroke-linecap="round"/>
<mask id="mask2_2366_3317" style="mask-type:luminance" maskUnits="userSpaceOnUse" x="31" y="27" width="10" height="10">
<path d="M40.6026 27.0388H31.2241V36.009H40.6026V27.0388Z" fill="white"/>
</mask>
<g mask="url(#mask2_2366_3317)">
<path d="M35.9133 29.2869H35.9123C33.8889 29.2869 32.2485 30.9272 32.2485 32.9506V37.8446C32.2485 39.868 33.8889 41.5084 35.9123 41.5084H35.9133C37.9368 41.5084 39.5771 39.868 39.5771 37.8446V32.9506C39.5771 30.9272 37.9368 29.2869 35.9133 29.2869Z" stroke="#384056" stroke-width="1.23429" stroke-linecap="round"/>
</g>
<mask id="mask3_2366_3317" style="mask-type:luminance" maskUnits="userSpaceOnUse" x="32" y="36" width="7" height="8">
<path d="M38.9714 36.01H32.8555V43.7572H38.9714V36.01Z" fill="white"/>
</mask>
<g mask="url(#mask3_2366_3317)">
<path d="M34.4975 33.6759V45.9596H37.3296V33.6759H34.4975ZM33.2632 32.4417H38.5639V47.1939H33.2632V32.4417Z" fill="#384056"/>
</g>
</svg>
