<svg width="60" height="60" viewBox="0 0 60 60" fill="none" xmlns="http://www.w3.org/2000/svg">
<rect width="60" height="60" rx="12" fill="#F5F5F5"/>
<path d="M38.8175 29.8211C43.5691 29.8211 47.4211 25.9615 47.4211 21.2005C47.4211 16.4394 43.5691 12.5798 38.8175 12.5798C34.0658 12.5798 30.2139 16.4394 30.2139 21.2005C30.2139 25.9615 34.0658 29.8211 38.8175 29.8211Z" stroke="#737373" stroke-width="1.16757"/>
<path d="M35.5381 25.1608V18.0632H39.6251C40.7341 18.0632 41.7685 18.6026 41.7685 19.7862C41.7685 20.9911 40.6782 21.5101 39.6251 21.5101H35.5381" stroke="#737373" stroke-width="1.16757" stroke-linecap="round" stroke-linejoin="round"/>
<path d="M19.0539 27.4991C20.372 27.4991 21.4406 26.4285 21.4406 25.1077C21.4406 23.787 20.372 22.7163 19.0539 22.7163C17.7358 22.7163 16.6672 23.787 16.6672 25.1077C16.6672 26.4285 17.7358 27.4991 19.0539 27.4991Z" stroke="#737373" stroke-width="1.16757"/>
<path d="M19.0549 27.7048V36.599H29.8893L33.9039 44.66L37.1763 43.4551" stroke="#737373" stroke-width="1.16757" stroke-linecap="round" stroke-linejoin="round"/>
<path d="M26.9243 32.1394H19.1203C15.6989 32.1394 12 35.7708 12 40.4212C12 45.0716 16.3834 48.0184 20.1741 48C25.7025 47.9623 27.9206 42.755 27.9206 40.1627" stroke="#737373" stroke-width="1.16757" stroke-linecap="round" stroke-linejoin="round"/>
</svg>
