<svg width="22" height="22" viewBox="0 0 22 22" fill="none" xmlns="http://www.w3.org/2000/svg">
<path fill-rule="evenodd" clip-rule="evenodd" d="M4.54125 8.43703C4.07836 8.43703 3.63443 8.62091 3.30712 8.94822C2.9798 9.27554 2.79592 9.71947 2.79592 10.1824V17.5038C2.79592 18.4681 3.57692 19.25 4.54125 19.25H6.31042V8.43703H4.54125ZM18.712 6.41394H14.5485V2.50803C14.5487 2.15755 14.4332 1.81681 14.2199 1.5387C14.0066 1.26059 13.7075 1.06067 13.369 0.969977C13.0304 0.879282 12.6714 0.902885 12.3477 1.03712C12.0239 1.17136 11.7535 1.40872 11.5785 1.71236L7.69551 8.43703H7.68542V19.25H16.1499C16.9304 19.25 17.6883 18.9886 18.3027 18.5074C18.9172 18.0262 19.3527 17.353 19.5398 16.5954L21.2539 9.66169C21.3493 9.27591 21.3557 8.87348 21.2726 8.48487C21.1894 8.09626 21.0189 7.73167 20.774 7.41872C20.529 7.10577 20.2161 6.85267 19.8588 6.67859C19.5016 6.5045 19.1094 6.414 18.712 6.41394Z" fill="#D4D4D4"/>
</svg>
