<svg width="28" height="28" viewBox="0 0 28 28" fill="none" xmlns="http://www.w3.org/2000/svg">
<path d="M4.40002 12.0537H22.3331V14.4535C22.3331 15.6331 21.8645 16.7644 21.0304 17.5984C20.1963 18.4325 19.0651 18.9011 17.8855 18.9011H8.84763C7.66805 18.9011 6.53679 18.4325 5.7027 17.5984C4.86861 16.7644 4.40002 15.6331 4.40002 14.4535V12.0537Z" stroke="#404040" stroke-width="1.5" stroke-linejoin="round"/>
<path d="M25.6296 8.4209H22.2331L8.62872 21.9021" stroke="#404040" stroke-width="1.5" stroke-linecap="round" stroke-linejoin="round"/>
<path d="M7.18725 26.1062C8.46595 26.1062 9.50255 25.0696 9.50255 23.7909C9.50255 22.5122 8.46595 21.4756 7.18725 21.4756C5.90854 21.4756 4.87195 22.5122 4.87195 23.7909C4.87195 25.0696 5.90854 26.1062 7.18725 26.1062Z" stroke="#404040" stroke-width="1.5"/>
<path d="M19.3813 26.1062C20.66 26.1062 21.6966 25.0696 21.6966 23.7909C21.6966 22.5122 20.66 21.4756 19.3813 21.4756C18.1026 21.4756 17.066 22.5122 17.066 23.7909C17.066 25.0696 18.1026 26.1062 19.3813 26.1062Z" stroke="#404040" stroke-width="1.5"/>
<path d="M15.7726 14.8311L18.8242 21.7587" stroke="#404040" stroke-width="1.5"/>
<path d="M4.40538 12.1961C4.40538 7.47241 4.11252 5.70746 7.31543 3.08433C10.132 1.26176 13.9212 1.88614 15.7158 3.84659C15.7431 3.81831 11.0777 12.0748 11.0777 12.0748" stroke="#404040" stroke-width="1.5" stroke-linecap="round" stroke-linejoin="round"/>
</svg>
