<svg width="16" height="17" viewBox="0 0 16 17" fill="none" xmlns="http://www.w3.org/2000/svg">
<path fill-rule="evenodd" clip-rule="evenodd" d="M13.9782 8.74102C13.7692 8.70463 13.5543 8.75273 13.3808 8.87475C13.2073 8.99677 13.0893 9.18271 13.0529 9.39169C12.8453 10.5842 12.2229 11.665 11.2956 12.443C10.3684 13.2211 9.19596 13.6464 7.98552 13.6437C5.14952 13.6437 2.84219 11.3364 2.84219 8.49969C2.84219 5.66369 5.14952 3.35635 7.98552 3.35635C9.27485 3.35635 10.4875 3.83235 11.4355 4.69235L10.7742 5.35369C10.6877 5.43987 10.6268 5.54838 10.5982 5.66712C10.5697 5.78587 10.5747 5.9102 10.6126 6.02628C10.6506 6.14237 10.72 6.24565 10.8131 6.32464C10.9062 6.40362 11.0195 6.45522 11.1402 6.47369L13.9482 6.90702C14.0508 6.92283 14.1556 6.91423 14.2543 6.88191C14.3529 6.84959 14.4425 6.79446 14.5158 6.721C14.5892 6.64754 14.6441 6.55783 14.6763 6.45914C14.7084 6.36045 14.7168 6.25557 14.7009 6.15302L14.2682 3.34569C14.2496 3.22505 14.1979 3.11192 14.119 3.01885C14.04 2.92578 13.9368 2.85641 13.8208 2.81843C13.7048 2.78045 13.5805 2.77535 13.4618 2.8037C13.3431 2.83205 13.2345 2.89273 13.1482 2.97902L12.5669 3.56102C11.3244 2.39943 9.68641 1.75421 7.98552 1.75635C4.26752 1.75635 1.24219 4.78169 1.24219 8.49969C1.24219 12.2184 4.26752 15.243 7.98552 15.243C11.2709 15.243 14.0642 12.8977 14.6289 9.66635C14.6652 9.45737 14.6171 9.24248 14.4951 9.06896C14.3731 8.89543 14.1872 8.77747 13.9782 8.74102Z" fill="white"/>
</svg>
