<svg width="22" height="22" viewBox="0 0 22 22" fill="none" xmlns="http://www.w3.org/2000/svg">
<path fill-rule="evenodd" clip-rule="evenodd" d="M20.4964 19.1031L17.3458 14.6939C17.0856 14.3326 16.7082 14.0725 16.2779 13.9578L16.2284 14.0174C15.408 14.9891 14.3648 16.0799 12.944 17.4531C12.4228 17.9572 11.7257 18.2383 11.0007 18.2368C10.2759 18.2388 9.57903 17.958 9.05824 17.454C7.60807 16.0515 6.54841 14.9396 5.72157 13.9551C5.28742 14.0678 4.90637 14.3288 4.64449 14.693L1.4939 19.1031C1.39117 19.247 1.33007 19.4165 1.31732 19.5929C1.30458 19.7693 1.34067 19.9457 1.42165 20.103C1.50263 20.2602 1.62535 20.3921 1.77636 20.4841C1.92736 20.5761 2.10081 20.6248 2.27765 20.6247H19.7127C20.4955 20.6247 20.9502 19.7402 20.4955 19.1031" fill="#D4D4D4"/>
<path fill-rule="evenodd" clip-rule="evenodd" d="M10.9995 5.77656C11.2436 5.77098 11.4864 5.81423 11.7136 5.90378C11.9408 5.99332 12.1479 6.12735 12.3225 6.29801C12.4972 6.46866 12.6361 6.67249 12.7309 6.89753C12.8257 7.12258 12.8746 7.3643 12.8747 7.6085C12.8749 7.85271 12.8262 8.09448 12.7316 8.31962C12.637 8.54475 12.4984 8.74872 12.3239 8.91955C12.1493 9.09038 11.9425 9.22461 11.7153 9.31439C11.4882 9.40416 11.2455 9.44765 11.0013 9.44231C10.5151 9.44244 10.0487 9.2494 9.70484 8.90567C9.36094 8.56194 9.16767 8.09567 9.16755 7.60944C9.16743 7.12321 9.36047 6.65685 9.7042 6.31294C10.0479 5.96904 10.5142 5.77577 11.0004 5.77565M10.3331 16.1358C10.5131 16.3079 10.7525 16.4039 11.0015 16.4037C11.2505 16.4036 11.4899 16.3072 11.6696 16.1349C15.9028 12.0447 17.2356 9.99323 17.2356 7.6099C17.2356 3.5729 13.3975 0.431481 9.17167 1.63506C6.50417 2.3959 4.76617 4.83606 4.76617 7.6099C4.76617 9.99506 6.09992 12.0456 10.3331 16.1349" fill="#D4D4D4"/>
</svg>
