<svg width="25" height="24" viewBox="0 0 25 24" fill="none" xmlns="http://www.w3.org/2000/svg">
<path fill-rule="evenodd" clip-rule="evenodd" d="M12.835 5.45426L3.77301 14.5163L2.53701 19.1263L1.72401 22.1633C1.70143 22.2481 1.70154 22.3374 1.72433 22.4222C1.74713 22.507 1.79181 22.5843 1.85389 22.6464C1.91598 22.7085 1.99329 22.7531 2.07808 22.7759C2.16287 22.7987 2.25216 22.7988 2.33701 22.7763L5.37201 21.9623L9.98301 20.7263H9.98401L19.046 11.6643L12.836 5.45426H12.835ZM22.793 6.50426L17.997 1.70726C17.9042 1.61432 17.794 1.54058 17.6727 1.49027C17.5514 1.43996 17.4213 1.41406 17.29 1.41406C17.1587 1.41406 17.0286 1.43996 16.9073 1.49027C16.786 1.54058 16.6758 1.61432 16.583 1.70726L14.108 4.18126L20.319 10.3923L22.793 7.91726C22.886 7.82448 22.9597 7.71427 23.01 7.59296C23.0603 7.47164 23.0862 7.3416 23.0862 7.21026C23.0862 7.07893 23.0603 6.94889 23.01 6.82757C22.9597 6.70626 22.886 6.59605 22.793 6.50326" fill="#A3A3A3"/>
</svg>
