<svg width="60" height="60" viewBox="0 0 60 60" fill="none" xmlns="http://www.w3.org/2000/svg">
<rect x="0.5" y="0.5" width="59" height="59" rx="11.5" fill="white"/>
<rect x="0.5" y="0.5" width="59" height="59" rx="11.5" stroke="#E5E5E5"/>
<path d="M46.1941 40.2571H13.8058C13.2897 40.2571 12.7948 40.0521 12.4298 39.6871C12.0649 39.3222 11.8599 38.8272 11.8599 38.3111V33.2517C11.9387 33.2575 12.0146 33.2604 12.0924 33.2604C12.8962 33.2604 13.6671 32.9411 14.2355 32.3727C14.8039 31.8043 15.1232 31.0334 15.1232 30.2296C15.1232 29.4258 14.8039 28.6549 14.2355 28.0865C13.6671 27.5181 12.8962 27.1988 12.0924 27.1988C12.0116 27.1988 11.9338 27.1988 11.8599 27.2076V21.6889C11.8599 21.1728 12.0649 20.6778 12.4298 20.3129C12.7948 19.9479 13.2897 19.7429 13.8058 19.7429H46.1941C46.7102 19.7429 47.2052 19.9479 47.5701 20.3129C47.9351 20.6778 48.1401 21.1728 48.1401 21.6889V27.2115C47.3805 27.2725 46.6717 27.6173 46.1548 28.1773C45.638 28.7373 45.351 29.4714 45.351 30.2335C45.351 30.9956 45.638 31.7297 46.1548 32.2897C46.6717 32.8497 47.3805 33.1946 48.1401 33.2556V38.315C48.139 38.8305 47.9336 39.3244 47.5688 39.6885C47.2039 40.0526 46.7096 40.2571 46.1941 40.2571Z" stroke="#E5E5E5" stroke-width="1.16757" stroke-linecap="round" stroke-linejoin="round"/>
<path d="M37.9714 21.9478V38.0531" stroke="#E5E5E5" stroke-width="1.16757" stroke-dasharray="3.89 1.95"/>
<path d="M18.3325 26.4749H32.427" stroke="#E5E5E5" stroke-width="1.16757"/>
<path d="M18.3325 30H32.427" stroke="#E5E5E5" stroke-width="1.16757"/>
<path d="M18.3325 33.5261H32.427" stroke="#E5E5E5" stroke-width="1.16757"/>
</svg>
