<svg width="23" height="22" viewBox="0 0 23 22" fill="currentColor" xmlns="http://www.w3.org/2000/svg">
<path fill-rule="evenodd" clip-rule="evenodd" d="M20.83 19.1033L17.6794 14.6942C17.4192 14.3328 17.0418 14.0727 16.6115 13.9581L16.562 14.0177C15.7416 14.9893 14.6984 16.0802 13.2776 17.4533C12.7565 17.9574 12.0593 18.2386 11.3343 18.2371C10.6096 18.2391 9.91265 17.9582 9.39186 17.4542C7.94169 16.0517 6.88202 14.9398 6.05519 13.9553C5.62103 14.068 5.23999 14.3291 4.97811 14.6932L1.82752 19.1033C1.72478 19.2473 1.66369 19.4167 1.65094 19.5931C1.63819 19.7695 1.67429 19.946 1.75527 20.1032C1.83624 20.2604 1.95897 20.3923 2.10998 20.4843C2.26098 20.5764 2.43443 20.6251 2.61127 20.625H20.0463C20.8291 20.625 21.2838 19.7404 20.8291 19.1033" fill="currentColor"/>
<path fill-rule="evenodd" clip-rule="evenodd" d="M11.3334 5.77681C11.5776 5.77123 11.8204 5.81448 12.0476 5.90402C12.2748 5.99357 12.4818 6.1276 12.6565 6.29825C12.8311 6.4689 12.97 6.67273 13.0648 6.89778C13.1596 7.12282 13.2085 7.36454 13.2087 7.60875C13.2088 7.85295 13.1601 8.09472 13.0655 8.31986C12.9709 8.545 12.8323 8.74897 12.6578 8.91979C12.4833 9.09062 12.2764 9.22486 12.0493 9.31463C11.8222 9.4044 11.5794 9.4479 11.3353 9.44256C10.849 9.44268 10.3827 9.24964 10.0388 8.90591C9.69487 8.56218 9.50159 8.09591 9.50147 7.60968C9.50135 7.12345 9.69439 6.65709 10.0381 6.31319C10.3819 5.96928 10.8481 5.77601 11.3343 5.77589M10.667 16.1361C10.847 16.3082 11.0864 16.4041 11.3354 16.404C11.5845 16.4038 11.8238 16.3075 12.0035 16.1351C16.2367 12.045 17.5695 9.99347 17.5695 7.61014C17.5695 3.57314 13.7314 0.431725 9.5056 1.63531C6.8381 2.39614 5.1001 4.83631 5.1001 7.61014C5.1001 9.99531 6.43385 12.0459 10.667 16.1351" fill="currentColor"/>
</svg>
