<svg width="22" height="21" viewBox="0 0 22 21" fill="none" xmlns="http://www.w3.org/2000/svg">
<g id="Group">
<path id="Vector" fill-rule="evenodd" clip-rule="evenodd" d="M11 17.2671C9.60913 17.2656 8.27571 16.7123 7.29224 15.7289C6.30877 14.7454 5.75555 13.412 5.75397 12.0211C5.75529 10.6301 6.30838 9.29646 7.29189 8.31277C8.27539 7.32909 9.60896 6.77574 11 6.77415C12.391 6.77574 13.7245 7.32909 14.708 8.31277C15.6915 9.29646 16.2446 10.6301 16.246 12.0211C16.2444 13.412 15.6912 14.7454 14.7077 15.7289C13.7242 16.7123 12.3908 17.2656 11 17.2671ZM19.113 4.13615H16.159L15.046 1.96715C14.8695 1.62378 14.6017 1.33571 14.2722 1.13459C13.9426 0.933476 13.564 0.827098 13.178 0.827148H8.76497C8.3713 0.827102 7.98555 0.937709 7.65172 1.14635C7.31789 1.35499 7.04943 1.65327 6.87697 2.00715L5.84097 4.13615H2.88697C2.55595 4.13602 2.22815 4.2011 1.9223 4.32769C1.61644 4.45427 1.33852 4.63987 1.10441 4.87389C0.870302 5.1079 0.68459 5.38575 0.557886 5.69156C0.431182 5.99736 0.365967 6.32513 0.365967 6.65615V18.2571C0.365967 18.5882 0.431182 18.9159 0.557886 19.2217C0.68459 19.5275 0.870302 19.8054 1.10441 20.0394C1.33852 20.2734 1.61644 20.459 1.9223 20.5856C2.22815 20.7122 2.55595 20.7773 2.88697 20.7771H19.113C19.444 20.7773 19.7718 20.7122 20.0776 20.5856C20.3835 20.459 20.6614 20.2734 20.8955 20.0394C21.1296 19.8054 21.3153 19.5275 21.442 19.2217C21.5688 18.9159 21.634 18.5882 21.634 18.2571V6.65615C21.634 6.32513 21.5688 5.99736 21.442 5.69156C21.3153 5.38575 21.1296 5.1079 20.8955 4.87389C20.6614 4.63987 20.3835 4.45427 20.0776 4.32769C19.7718 4.2011 19.444 4.13602 19.113 4.13615Z" fill="#A3A3A3"/>
<path id="Vector_2" fill-rule="evenodd" clip-rule="evenodd" d="M11 8.66406C10.1104 8.66512 9.25748 9.01907 8.62849 9.64824C7.99951 10.2774 7.64581 11.1304 7.64502 12.0201C7.64555 12.9098 7.99916 13.7629 8.6282 14.3922C9.25724 15.0214 10.1103 15.3753 11 15.3761C11.8897 15.3753 12.7428 15.0214 13.3718 14.3922C14.0009 13.7629 14.3545 12.9098 14.355 12.0201C14.3542 11.1304 14.0005 10.2774 13.3715 9.64824C12.7426 9.01907 11.8897 8.66512 11 8.66406Z" fill="#A3A3A3"/>
</g>
</svg>
