<svg width="60" height="60" viewBox="0 0 60 60" fill="none" xmlns="http://www.w3.org/2000/svg">
<rect x="0.5" y="0.5" width="59" height="59" rx="11.5" fill="white"/>
<rect x="0.5" y="0.5" width="59" height="59" rx="11.5" stroke="#E5E5E5"/>
<path d="M41.9598 43.1517H18.0404C17.5718 43.1506 17.1228 42.9637 16.7919 42.6319C16.461 42.3001 16.2753 41.8506 16.2754 41.3821V14.7639C16.2753 14.2953 16.461 13.8458 16.7919 13.5141C17.1228 13.1823 17.5718 12.9954 18.0404 12.9943H41.9598C42.4284 12.9954 42.8774 13.1823 43.2083 13.5141C43.5392 13.8458 43.7249 14.2953 43.7248 14.7639V41.3821C43.7249 41.8506 43.5392 42.3001 43.2083 42.6319C42.8774 42.9637 42.4284 43.1506 41.9598 43.1517ZM18.0404 14.0249C17.8451 14.0257 17.6581 14.104 17.5204 14.2425C17.3827 14.3811 17.3056 14.5686 17.306 14.7639V41.3821C17.3056 41.5774 17.3827 41.7649 17.5204 41.9034C17.6581 42.042 17.8451 42.1202 18.0404 42.121H41.9598C42.1551 42.1202 42.3421 42.042 42.4798 41.9034C42.6175 41.7649 42.6945 41.5774 42.6941 41.3821V14.7639C42.6945 14.5686 42.6175 14.3811 42.4798 14.2425C42.3421 14.104 42.1551 14.0257 41.9598 14.0249H18.0404Z" fill="#E5E5E5"/>
<path d="M40.354 47.0058H36.8952C36.732 46.9907 36.5734 46.9436 36.4286 46.867C36.2837 46.7905 36.1554 46.6861 36.051 46.5598C35.9466 46.4335 35.8682 46.2879 35.8202 46.1312C35.7723 45.9745 35.7558 45.8099 35.7717 45.6468V42.6363C35.7717 42.4996 35.826 42.3685 35.9227 42.2719C36.0193 42.1753 36.1504 42.121 36.2871 42.121H40.958C41.0947 42.121 41.2257 42.1753 41.3224 42.2719C41.419 42.3685 41.4733 42.4996 41.4733 42.6363V45.6468C41.4892 45.8096 41.4729 45.9739 41.4252 46.1303C41.3776 46.2868 41.2995 46.4322 41.1956 46.5585C41.0916 46.6847 40.9637 46.7892 40.8193 46.8659C40.6749 46.9427 40.5168 46.9902 40.354 47.0058ZM36.8024 43.1516V45.6468C36.7968 45.7075 36.8043 45.7687 36.8244 45.8262C36.8445 45.8837 36.8767 45.9363 36.9189 45.9803L40.354 45.9751C40.4154 45.8768 40.447 45.7627 40.4447 45.6468V43.1516H36.8024Z" fill="#E5E5E5"/>
<path d="M23.1049 47.0058H19.646C19.4831 46.9905 19.3247 46.9431 19.1801 46.8665C19.0354 46.7898 18.9074 46.6854 18.8032 46.5592C18.699 46.4329 18.6208 46.2873 18.573 46.1308C18.5252 45.9742 18.5088 45.8098 18.5247 45.6468V42.6363C18.5247 42.4996 18.579 42.3685 18.6756 42.2719C18.7723 42.1753 18.9033 42.121 19.04 42.121H23.713C23.8497 42.121 23.9807 42.1753 24.0774 42.2719C24.174 42.3685 24.2283 42.4996 24.2283 42.6363V45.6468C24.2442 45.8099 24.2277 45.9745 24.1798 46.1312C24.1319 46.2879 24.0535 46.4335 23.9491 46.5598C23.8447 46.6861 23.7164 46.7905 23.5715 46.867C23.4266 46.9436 23.2681 46.9907 23.1049 47.0058ZM19.5553 43.1516V45.6468C19.5497 45.7075 19.5572 45.7687 19.5773 45.8262C19.5974 45.8837 19.6296 45.9363 19.6718 45.9803L23.1049 45.9751C23.1663 45.8768 23.1978 45.7627 23.1956 45.6468V43.1516H19.5553Z" fill="#E5E5E5"/>
<path d="M43.2095 18.7462H16.7907C16.654 18.7462 16.523 18.6919 16.4263 18.5953C16.3297 18.4987 16.2754 18.3676 16.2754 18.2309C16.2754 18.0942 16.3297 17.9632 16.4263 17.8665C16.523 17.7699 16.654 17.7156 16.7907 17.7156H43.2095C43.3461 17.7156 43.4772 17.7699 43.5739 17.8665C43.6705 17.9632 43.7248 18.0942 43.7248 18.2309C43.7248 18.3676 43.6705 18.4987 43.5739 18.5953C43.4772 18.6919 43.3461 18.7462 43.2095 18.7462Z" fill="#E5E5E5"/>
<path d="M43.2095 35.4403H16.7907C16.654 35.4403 16.523 35.386 16.4263 35.2894C16.3297 35.1927 16.2754 35.0617 16.2754 34.925C16.2754 34.7883 16.3297 34.6572 16.4263 34.5606C16.523 34.464 16.654 34.4097 16.7907 34.4097H43.2095C43.3461 34.4097 43.4772 34.464 43.5739 34.5606C43.6705 34.6572 43.7248 34.7883 43.7248 34.925C43.7248 35.0617 43.6705 35.1927 43.5739 35.2894C43.4772 35.386 43.3461 35.4403 43.2095 35.4403Z" fill="#E5E5E5"/>
<path d="M37.2889 41.1027C36.8294 41.104 36.3799 40.9688 35.9972 40.7144C35.6145 40.46 35.3159 40.0978 35.1392 39.6736C34.9625 39.2494 34.9157 38.7823 35.0046 38.3315C35.0935 37.8806 35.3141 37.4663 35.6386 37.1409C35.9631 36.8156 36.3769 36.5938 36.8275 36.5037C37.2781 36.4136 37.7453 36.4592 38.1699 36.6348C38.5946 36.8104 38.9576 37.108 39.213 37.49C39.4685 37.872 39.6048 38.3212 39.6048 38.7807C39.6048 39.3955 39.361 39.9851 38.9269 40.4204C38.4928 40.8557 37.9037 41.1011 37.2889 41.1027ZM37.2889 37.4893C37.0333 37.488 36.783 37.5627 36.5698 37.7039C36.3566 37.845 36.1901 38.0463 36.0914 38.2822C35.9927 38.518 35.9663 38.7779 36.0154 39.0288C36.0645 39.2797 36.187 39.5104 36.3674 39.6916C36.5478 39.8729 36.7779 39.9965 37.0285 40.0468C37.2792 40.0971 37.5392 40.0719 37.7755 39.9744C38.0119 39.8768 38.2139 39.7113 38.3561 39.4988C38.4983 39.2863 38.5742 39.0364 38.5742 38.7807C38.5746 38.6115 38.5417 38.4439 38.4773 38.2874C38.4129 38.131 38.3184 37.9887 38.199 37.8688C38.0797 37.7489 37.9379 37.6536 37.7817 37.5885C37.6256 37.5234 37.4581 37.4897 37.2889 37.4893Z" fill="#E5E5E5"/>
<path d="M22.7113 41.1027C22.2518 41.104 21.8022 40.9688 21.4196 40.7144C21.0369 40.46 20.7383 40.0978 20.5616 39.6736C20.3849 39.2494 20.338 38.7823 20.4269 38.3315C20.5158 37.8806 20.7365 37.4663 21.061 37.1409C21.3855 36.8156 21.7992 36.5938 22.2498 36.5037C22.7004 36.4136 23.1676 36.4592 23.5923 36.6348C24.017 36.8104 24.38 37.108 24.6354 37.49C24.8908 37.872 25.0272 38.3212 25.0272 38.7807C25.0272 39.3955 24.7834 39.9851 24.3493 40.4204C23.9151 40.8557 23.3261 41.1011 22.7113 41.1027ZM22.7113 37.4893C22.4556 37.488 22.2053 37.5627 21.9922 37.7039C21.779 37.845 21.6125 38.0463 21.5138 38.2822C21.4151 38.518 21.3886 38.7779 21.4378 39.0288C21.4869 39.2797 21.6094 39.5104 21.7898 39.6916C21.9701 39.8729 22.2002 39.9965 22.4509 40.0468C22.7016 40.0971 22.9615 40.0719 23.1979 39.9744C23.4342 39.8768 23.6363 39.7113 23.7785 39.4988C23.9206 39.2863 23.9965 39.0364 23.9965 38.7807C23.9969 38.6115 23.964 38.4439 23.8996 38.2874C23.8353 38.131 23.7407 37.9887 23.6214 37.8688C23.502 37.7489 23.3602 37.6536 23.2041 37.5885C23.0479 37.5234 22.8805 37.4897 22.7113 37.4893Z" fill="#E5E5E5"/>
<path d="M13.5097 24.6C13.373 24.6 13.242 24.5457 13.1453 24.449C13.0487 24.3524 12.9944 24.2213 12.9944 24.0846V21.291C12.9942 20.7848 13.1949 20.2991 13.5524 19.9406C13.9098 19.5821 14.3948 19.38 14.9011 19.3787H16.7898C16.9264 19.3787 17.0575 19.433 17.1542 19.5296C17.2508 19.6262 17.3051 19.7573 17.3051 19.894C17.3051 20.0307 17.2508 20.1617 17.1542 20.2584C17.0575 20.355 16.9264 20.4093 16.7898 20.4093H14.9011C14.6681 20.4104 14.4451 20.5038 14.2808 20.6691C14.1166 20.8344 14.0246 21.058 14.025 21.291V24.0851C14.0249 24.2217 13.9705 24.3527 13.8739 24.4492C13.7773 24.5457 13.6463 24.6 13.5097 24.6Z" fill="#E5E5E5"/>
<path d="M46.4905 24.6C46.3538 24.6 46.2228 24.5457 46.1261 24.449C46.0295 24.3524 45.9752 24.2213 45.9752 24.0846V21.291C45.9756 21.058 45.8836 20.8344 45.7194 20.6691C45.5552 20.5038 45.3321 20.4104 45.0991 20.4093H43.2094C43.0727 20.4093 42.9417 20.355 42.845 20.2584C42.7484 20.1617 42.6941 20.0307 42.6941 19.894C42.6941 19.7573 42.7484 19.6262 42.845 19.5296C42.9417 19.433 43.0727 19.3787 43.2094 19.3787H45.0991C45.6054 19.38 46.0904 19.5821 46.4479 19.9406C46.8053 20.2991 47.006 20.7848 47.0058 21.291V24.0851C47.0057 24.2217 46.9513 24.3527 46.8547 24.4492C46.7581 24.5457 46.6271 24.6 46.4905 24.6Z" fill="#E5E5E5"/>
<path d="M29.9999 35.4403C29.8633 35.4403 29.7322 35.386 29.6356 35.2893C29.5389 35.1927 29.4846 35.0616 29.4846 34.9249V18.2283C29.4846 18.0917 29.5389 17.9606 29.6356 17.8639C29.7322 17.7673 29.8633 17.713 29.9999 17.713C30.1366 17.713 30.2677 17.7673 30.3643 17.8639C30.461 17.9606 30.5153 18.0917 30.5153 18.2283V34.9249C30.5153 35.0616 30.461 35.1927 30.3643 35.2893C30.2677 35.386 30.1366 35.4403 29.9999 35.4403Z" fill="#E5E5E5"/>
<path d="M19.7486 26.9834C19.6466 26.9835 19.5469 26.9533 19.4621 26.8966C19.3772 26.84 19.3111 26.7594 19.2721 26.6652C19.2331 26.5709 19.2229 26.4672 19.2429 26.3671C19.2629 26.2671 19.3121 26.1752 19.3843 26.1032L24.5773 20.9108C24.6744 20.8169 24.8046 20.765 24.9397 20.7661C25.0749 20.7673 25.2041 20.8215 25.2996 20.917C25.3952 21.0126 25.4494 21.1418 25.4506 21.277C25.4517 21.4121 25.3998 21.5423 25.3059 21.6394L20.113 26.8324C20.0164 26.929 19.8853 26.9834 19.7486 26.9834Z" fill="#E5E5E5"/>
<path d="M19.3204 24.2799C19.2185 24.2798 19.1189 24.2496 19.0342 24.193C18.9494 24.1363 18.8834 24.0559 18.8444 23.9617C18.8054 23.8676 18.7952 23.764 18.8151 23.664C18.8349 23.5641 18.884 23.4723 18.9561 23.4002L21.8713 20.485C21.9685 20.3911 22.0986 20.3392 22.2337 20.3404C22.3689 20.3415 22.4981 20.3957 22.5937 20.4913C22.6892 20.5868 22.7434 20.7161 22.7446 20.8512C22.7457 20.9863 22.6938 21.1165 22.5999 21.2137L19.6847 24.1253C19.6372 24.1738 19.5805 24.2124 19.518 24.2389C19.4555 24.2655 19.3883 24.2794 19.3204 24.2799Z" fill="#E5E5E5"/>
<path d="M32.4317 38.1117H27.5681C27.4314 38.1117 27.3003 38.0574 27.2037 37.9608C27.107 37.8641 27.0527 37.7331 27.0527 37.5964C27.0527 37.4597 27.107 37.3286 27.2037 37.232C27.3003 37.1353 27.4314 37.0811 27.5681 37.0811H32.4317C32.5684 37.0811 32.6995 37.1353 32.7961 37.232C32.8927 37.3286 32.947 37.4597 32.947 37.5964C32.947 37.7331 32.8927 37.8641 32.7961 37.9608C32.6995 38.0574 32.5684 38.1117 32.4317 38.1117Z" fill="#E5E5E5"/>
<path d="M32.4317 40.4802H27.5681C27.4314 40.4802 27.3003 40.4259 27.2037 40.3293C27.107 40.2327 27.0527 40.1016 27.0527 39.9649C27.0527 39.8282 27.107 39.6972 27.2037 39.6005C27.3003 39.5039 27.4314 39.4496 27.5681 39.4496H32.4317C32.5684 39.4496 32.6995 39.5039 32.7961 39.6005C32.8927 39.6972 32.947 39.8282 32.947 39.9649C32.947 40.1016 32.8927 40.2327 32.7961 40.3293C32.6995 40.4259 32.5684 40.4802 32.4317 40.4802Z" fill="#E5E5E5"/>
</svg>
