<svg width="14" height="15" viewBox="0 0 14 15" fill="none" xmlns="http://www.w3.org/2000/svg">
<path d="M4.73968 5.0094L1.01801 5.58244L0.952093 5.59669C0.852308 5.62482 0.76134 5.68057 0.68848 5.75826C0.615621 5.83594 0.563479 5.93276 0.53738 6.03884C0.51128 6.14493 0.512159 6.25646 0.539926 6.36207C0.567693 6.46767 0.621353 6.56356 0.695427 6.63993L3.39159 9.42708L2.75576 13.364L2.74818 13.4322C2.74207 13.5418 2.7635 13.6511 2.81027 13.749C2.85705 13.847 2.92748 13.9299 3.01437 13.9894C3.10126 14.0489 3.20148 14.0828 3.30476 14.0877C3.40805 14.0925 3.51069 14.0681 3.60218 14.017L6.93068 12.1585L10.2516 14.017L10.3099 14.0455C10.4062 14.0857 10.5109 14.0981 10.6131 14.0813C10.7154 14.0644 10.8116 14.019 10.8919 13.9496C10.9721 13.8803 11.0336 13.7895 11.0699 13.6866C11.1062 13.5836 11.1161 13.4723 11.0986 13.364L10.4622 9.42708L13.1595 6.63931L13.205 6.58665C13.27 6.50164 13.3126 6.39985 13.3285 6.29164C13.3444 6.18344 13.333 6.0727 13.2955 5.9707C13.258 5.8687 13.1956 5.77909 13.1149 5.71099C13.0341 5.6429 12.9378 5.59876 12.8358 5.58306L9.11409 5.0094L7.45043 1.42867C7.40229 1.32493 7.32776 1.23756 7.23529 1.17647C7.14281 1.11539 7.03608 1.08301 6.92718 1.08301C6.81827 1.08301 6.71154 1.11539 6.61907 1.17647C6.52659 1.23756 6.45207 1.32493 6.40393 1.42867L4.73968 5.0094Z" fill="#FFE97B"/>
</svg>
