<svg width="60" height="60" viewBox="0 0 60 60" fill="none" xmlns="http://www.w3.org/2000/svg">
<rect x="0.5" y="0.5" width="59" height="59" rx="11.5" fill="white"/>
<rect x="0.5" y="0.5" width="59" height="59" rx="11.5" stroke="#384056"/>
<path d="M45.8822 14.6471H14.1175C13.2404 14.6471 12.5293 15.3582 12.5293 16.2353V43.7647C12.5293 44.6419 13.2404 45.353 14.1175 45.353H45.8822C46.7594 45.353 47.4705 44.6419 47.4705 43.7647V16.2353C47.4705 15.3582 46.7594 14.6471 45.8822 14.6471Z" stroke="#384056" stroke-width="1.05882"/>
<path d="M32.8235 22.7648H15.8824C15.395 22.7648 15 23.1598 15 23.6471V42.0001C15 42.4874 15.395 42.8824 15.8824 42.8824H32.8235C33.3108 42.8824 33.7059 42.4874 33.7059 42.0001V23.6471C33.7059 23.1598 33.3108 22.7648 32.8235 22.7648Z" stroke="#384056" stroke-width="1.05882"/>
<path d="M12 20.3331H47.2914" stroke="#384056" stroke-width="1.05882"/>
<path d="M22.0589 41.2941C22.5462 41.2941 22.9412 40.8991 22.9412 40.4118C22.9412 39.9245 22.5462 39.5294 22.0589 39.5294C21.5716 39.5294 21.1765 39.9245 21.1765 40.4118C21.1765 40.8991 21.5716 41.2941 22.0589 41.2941Z" fill="#384056"/>
<path d="M30.5293 41.2941C31.0166 41.2941 31.4117 40.8991 31.4117 40.4118C31.4117 39.9245 31.0166 39.5294 30.5293 39.5294C30.042 39.5294 29.647 39.9245 29.647 40.4118C29.647 40.8991 30.042 41.2941 30.5293 41.2941Z" fill="#384056"/>
<path d="M17.8235 38.4706C18.3108 38.4706 18.7059 38.0756 18.7059 37.5883C18.7059 37.101 18.3108 36.7059 17.8235 36.7059C17.3362 36.7059 16.9412 37.101 16.9412 37.5883C16.9412 38.0756 17.3362 38.4706 17.8235 38.4706Z" fill="#384056"/>
<path d="M24.8824 38.4706C25.3697 38.4706 25.7647 38.0756 25.7647 37.5883C25.7647 37.101 25.3697 36.7059 24.8824 36.7059C24.395 36.7059 24 37.101 24 37.5883C24 38.0756 24.395 38.4706 24.8824 38.4706Z" fill="#384056"/>
<path d="M22.0589 38.4706C22.5462 38.4706 22.9412 38.0756 22.9412 37.5883C22.9412 37.101 22.5462 36.7059 22.0589 36.7059C21.5716 36.7059 21.1765 37.101 21.1765 37.5883C21.1765 38.0756 21.5716 38.4706 22.0589 38.4706Z" fill="#384056"/>
<path d="M30.5293 38.4706C31.0166 38.4706 31.4117 38.0756 31.4117 37.5883C31.4117 37.101 31.0166 36.7059 30.5293 36.7059C30.042 36.7059 29.647 37.101 29.647 37.5883C29.647 38.0756 30.042 38.4706 30.5293 38.4706Z" fill="#384056"/>
</svg>
