<svg width="23" height="22" viewBox="0 0 23 22" fill="none" xmlns="http://www.w3.org/2000/svg">
<path d="M11.5 0.731445C5.32751 0.731445 0.324707 4.68621 0.324707 9.56742C0.324707 12.7405 2.44395 15.5256 5.62282 17.0832C5.39121 17.9575 4.77744 20.2447 4.65584 20.7369C4.50529 21.3449 4.88166 21.3391 5.12485 21.1711C5.31593 21.0438 8.18791 19.0924 9.42704 18.2471C10.0987 18.3455 10.7935 18.3976 11.5 18.3976C17.6724 18.3976 22.6752 14.4428 22.6752 9.56163C22.6752 4.68621 17.6724 0.731445 11.5 0.731445Z" fill="#262626"/>
<path d="M7.00103 6.96191H3.73531C3.42843 6.96191 3.17944 7.2109 3.17944 7.51778C3.17944 7.82467 3.42843 8.07365 3.73531 8.07365H4.80072V11.9879C4.80072 12.1326 4.85863 12.2716 4.96285 12.37C5.06129 12.4685 5.20025 12.5264 5.34501 12.5264H5.46661C5.61136 12.5264 5.75033 12.4685 5.84876 12.37C5.95299 12.2658 6.01089 12.1268 6.01089 11.9879V8.07365H7.01261C7.3195 8.07365 7.56848 7.82467 7.56848 7.51778C7.5569 7.2109 7.30792 6.96191 7.00103 6.96191Z" fill="#FFE97B"/>
<path d="M14.8584 11.49H13.3413V7.48891C13.3413 7.15307 13.0692 6.88672 12.7392 6.88672C12.4033 6.88672 12.137 7.15886 12.137 7.48891V11.7969C12.137 11.8316 12.1428 11.8606 12.1485 11.8953C12.1428 11.9243 12.137 11.959 12.137 11.9937C12.137 12.2717 12.3628 12.4975 12.6407 12.4975H14.8642C15.1421 12.4975 15.3679 12.2717 15.3679 11.9937C15.3622 11.7158 15.1363 11.49 14.8584 11.49Z" fill="#FFE97B"/>
<path d="M19.7165 11.6695L18.0199 9.44602L19.5485 7.91739C19.757 7.70894 19.757 7.3731 19.5485 7.16465C19.3401 6.9562 19.0043 6.9562 18.7958 7.16465L16.9024 9.05807V7.48891C16.9024 7.15307 16.6302 6.88672 16.3002 6.88672C15.9644 6.88672 15.698 7.15886 15.698 7.48891V11.9301C15.698 12.2659 15.9701 12.5322 16.3002 12.5322C16.636 12.5322 16.9024 12.2601 16.9024 11.9301V10.5578L17.244 10.2161L18.8479 12.318C19.0274 12.5554 19.3632 12.6075 19.6006 12.428C19.8438 12.2485 19.896 11.9127 19.7165 11.6695Z" fill="#FFE97B"/>
<path d="M11.6796 11.8142L10.0525 7.35566L10.0467 7.34987C9.94247 7.07773 9.64138 6.88086 9.28238 6.88086C8.88285 6.88086 8.55859 7.12405 8.48911 7.44252C8.47753 7.46568 8.46595 7.48884 8.46016 7.51779L6.85625 11.8142C6.75782 12.0979 6.90836 12.4048 7.1863 12.5032C7.47002 12.6017 7.77691 12.4511 7.87534 12.1732L8.15327 11.3799H10.3825L10.6605 12.1732C10.7589 12.4569 11.0658 12.6017 11.3495 12.5032C11.6332 12.4048 11.778 12.0979 11.6796 11.8142ZM8.50648 10.3724L9.25343 8.23579C9.25922 8.23579 9.2708 8.23579 9.27659 8.23579L10.0235 10.3724H8.50648Z" fill="#FFE97B"/>
</svg>
