<svg width="64" height="66" viewBox="0 0 64 66" fill="none" xmlns="http://www.w3.org/2000/svg">
<path d="M56.4796 14.066L56.4828 14.0699C56.9005 14.5954 57.2624 15.0635 57.623 15.5793L57.6261 15.5836C58.8103 17.2399 59.7951 19.0605 60.6284 20.9887C62.1821 24.7393 63.0631 28.8535 63.0631 33.1772C63.0631 36.6113 62.4955 39.9457 61.4546 43.0707C57.3616 55.3073 45.7995 64.1032 32.279 64.1032C18.759 64.1032 7.14605 55.252 3.05287 43.015C2.481 41.3027 2.06787 39.5345 1.80886 37.7097C1.5997 36.1996 1.5 34.6888 1.5 33.1772C1.5 30.9409 1.75848 28.7502 2.17287 26.6644C5.12662 12.7101 17.5146 2.24609 32.279 2.24609C42.1267 2.24609 50.8834 6.87855 56.4796 14.066Z" fill="#F5F5F5" stroke="#D4D4D4" stroke-miterlimit="10"/>
<mask id="path-2-inside-1_2738_5495" fill="white">
<path fill-rule="evenodd" clip-rule="evenodd" d="M30.3559 47.291C31.3549 47.951 32.6434 47.951 33.6409 47.291C36.8134 45.197 43.7209 40.1915 46.6969 34.5905C50.6194 27.2015 46.0129 19.832 39.9229 19.832C36.4519 19.832 34.3639 21.6455 33.2089 23.204C33.0702 23.3949 32.8882 23.5503 32.678 23.6574C32.4677 23.7645 32.2351 23.8203 31.9991 23.8203C31.7632 23.8203 31.5305 23.7645 31.3203 23.6574C31.11 23.5503 30.9281 23.3949 30.7894 23.204C29.6344 21.6455 27.5464 19.832 24.0754 19.832C17.9854 19.832 13.3789 27.2015 17.3029 34.5905C20.2759 40.1915 27.1864 45.197 30.3559 47.291Z"/>
</mask>
<path fill-rule="evenodd" clip-rule="evenodd" d="M30.3559 47.291C31.3549 47.951 32.6434 47.951 33.6409 47.291C36.8134 45.197 43.7209 40.1915 46.6969 34.5905C50.6194 27.2015 46.0129 19.832 39.9229 19.832C36.4519 19.832 34.3639 21.6455 33.2089 23.204C33.0702 23.3949 32.8882 23.5503 32.678 23.6574C32.4677 23.7645 32.2351 23.8203 31.9991 23.8203C31.7632 23.8203 31.5305 23.7645 31.3203 23.6574C31.11 23.5503 30.9281 23.3949 30.7894 23.204C29.6344 21.6455 27.5464 19.832 24.0754 19.832C17.9854 19.832 13.3789 27.2015 17.3029 34.5905C20.2759 40.1915 27.1864 45.197 30.3559 47.291Z" fill="white"/>
<path d="M33.6409 47.291L33.09 46.4564L33.0891 46.4571L33.6409 47.291ZM46.6969 34.5905L47.58 35.0597L47.5801 35.0594L46.6969 34.5905ZM33.2089 23.204L32.4054 22.6086L32.4 22.6161L33.2089 23.204ZM30.7894 23.204L31.5983 22.6161L31.5928 22.6086L30.7894 23.204ZM17.3029 34.5905L18.1862 34.1217L18.1861 34.1215L17.3029 34.5905ZM29.8047 48.1254C31.1377 49.0061 32.8604 49.0065 34.1927 48.125L33.0891 46.4571C32.4264 46.8955 31.5721 46.896 30.9071 46.4567L29.8047 48.1254ZM34.1917 48.1256C35.8015 47.0631 38.3633 45.2593 40.9061 43.004C43.4378 40.7587 46.0103 38.0139 47.58 35.0597L45.8138 34.1213C44.4074 36.7682 42.0383 39.3266 39.579 41.5078C37.131 43.679 34.6528 45.425 33.09 46.4564L34.1917 48.1256ZM47.5801 35.0594C51.7742 27.1589 46.9351 18.832 39.9229 18.832V20.832C45.0907 20.832 49.4646 27.2441 45.8136 34.1216L47.5801 35.0594ZM39.9229 18.832C36.0433 18.832 33.6867 20.8797 32.4055 22.6086L34.0123 23.7994C35.041 22.4113 36.8605 20.832 39.9229 20.832V18.832ZM32.4 22.6161C32.354 22.6794 32.2937 22.7308 32.224 22.7663L33.1319 24.5484C33.4827 24.3697 33.7863 24.1105 34.0178 23.7919L32.4 22.6161ZM32.224 22.7663C32.1544 22.8018 32.0773 22.8203 31.9991 22.8203V24.8203C32.3929 24.8203 32.781 24.7271 33.1319 24.5484L32.224 22.7663ZM31.9991 22.8203C31.9209 22.8203 31.8439 22.8018 31.7742 22.7663L30.8664 24.5484C31.2172 24.7271 31.6054 24.8203 31.9991 24.8203V22.8203ZM31.7742 22.7663C31.7045 22.7308 31.6443 22.6794 31.5983 22.6161L29.9805 23.7919C30.2119 24.1105 30.5155 24.3697 30.8664 24.5484L31.7742 22.7663ZM31.5928 22.6086C30.3115 20.8797 27.955 18.832 24.0754 18.832V20.832C27.1378 20.832 28.9572 22.4113 29.986 23.7994L31.5928 22.6086ZM24.0754 18.832C17.0631 18.832 12.224 27.159 16.4197 35.0596L18.1861 34.1215C14.5337 27.244 18.9076 20.832 24.0754 20.832V18.832ZM16.4196 35.0594C17.9878 38.0138 20.5606 40.7587 23.0922 43.004C25.635 45.2593 28.1967 47.0631 29.8046 48.1254L30.9071 46.4567C29.3456 45.425 26.8673 43.679 24.4192 41.5078C21.96 39.3266 19.591 36.7683 18.1862 34.1217L16.4196 35.0594Z" fill="#D4D4D4" mask="url(#path-2-inside-1_2738_5495)"/>
</svg>
