<svg width="60" height="60" viewBox="0 0 60 60" fill="none" xmlns="http://www.w3.org/2000/svg">
<rect x="0.5" y="0.5" width="59" height="59" rx="11.5" fill="white"/>
<rect x="0.5" y="0.5" width="59" height="59" rx="11.5" stroke="#E5E5E5"/>
<path d="M47.8046 21.5361H42.8402L22.96 41.238" stroke="#E5E5E5" stroke-width="1.215" stroke-linecap="round" stroke-linejoin="round"/>
<path d="M16.8032 26.9886H42.7232V31.2411C42.7232 32.6912 42.1472 34.0819 41.1218 35.1073C40.0965 36.1326 38.7058 36.7086 37.2557 36.7086H22.2707C20.8207 36.7086 19.43 36.1326 18.4046 35.1073C17.3793 34.0819 16.8032 32.6912 16.8032 31.2411V26.9886Z" stroke="#E5E5E5" stroke-width="1.215" stroke-linejoin="round"/>
<path d="M33.3989 30.9042L37.8583 41.0292" stroke="#E5E5E5" stroke-width="1.215"/>
<path d="M16.7871 27.0532C16.7871 20.1504 16.3586 17.5714 21.0396 13.7381C25.1552 11.0752 30.6926 11.9877 33.3154 14.8526C33.3559 14.8121 26.5364 26.8765 26.5364 26.8765" stroke="#E5E5E5" stroke-width="1.215" stroke-linecap="round" stroke-linejoin="round"/>
<path d="M20.8528 47.2387C22.6422 47.2387 24.0928 45.7881 24.0928 43.9987C24.0928 42.2093 22.6422 40.7587 20.8528 40.7587C19.0634 40.7587 17.6128 42.2093 17.6128 43.9987C17.6128 45.7881 19.0634 47.2387 20.8528 47.2387Z" stroke="#E5E5E5" stroke-width="1.215"/>
<path d="M38.6738 47.2387C40.4632 47.2387 41.9138 45.7881 41.9138 43.9987C41.9138 42.2093 40.4632 40.7587 38.6738 40.7587C36.8844 40.7587 35.4338 42.2093 35.4338 43.9987C35.4338 45.7881 36.8844 47.2387 38.6738 47.2387Z" stroke="#E5E5E5" stroke-width="1.215"/>
</svg>
