<svg width="60" height="60" viewBox="0 0 60 60" fill="none" xmlns="http://www.w3.org/2000/svg">
<rect x="0.5" y="0.5" width="59" height="59" rx="11.5" fill="white"/>
<rect x="0.5" y="0.5" width="59" height="59" rx="11.5" stroke="#384056"/>
<path d="M40.0031 12.0497C40.0031 12.0497 39.2098 15.3987 41.6774 17.9547C42.399 18.6985 43.2858 19.2618 44.2658 19.5987C45.2458 19.9355 46.2913 20.0365 47.3176 19.8935" stroke="#384056" stroke-width="1.22727" stroke-linecap="round"/>
<path d="M34.395 12.8925C34.395 12.8925 33.1842 18.0014 36.949 21.9C38.0498 23.0345 39.4021 23.8935 40.8969 24.4073C42.3918 24.9212 43.9867 25.0755 45.5523 24.8576" stroke="#384056" stroke-width="1.22727" stroke-linecap="round"/>
<path d="M29.0337 13.8088C29.0337 13.8088 27.3725 20.8217 32.5401 26.1727C34.0509 27.7299 35.9071 28.9091 37.959 29.6144C40.0108 30.3197 42.2001 30.5313 44.349 30.232" stroke="#384056" stroke-width="1.22727" stroke-linecap="round"/>
<path d="M19.5982 24.4845C21.0859 24.4845 22.292 23.2784 22.292 21.7907C22.292 20.3029 21.0859 19.0968 19.5982 19.0968C18.1104 19.0968 16.9043 20.3029 16.9043 21.7907C16.9043 23.2784 18.1104 24.4845 19.5982 24.4845Z" stroke="#384056" stroke-width="1.22727" stroke-linecap="round"/>
<mask id="mask0_2363_4543" style="mask-type:luminance" maskUnits="userSpaceOnUse" x="12" y="23" width="15" height="14">
<path d="M26.5137 23.2939H12.6824V36.5239H26.5137V23.2939Z" fill="white"/>
</mask>
<g mask="url(#mask0_2363_4543)">
<path d="M23.0486 26.313H16.1472C14.9046 26.313 13.8972 27.3203 13.8972 28.563V42.6811C13.8972 43.9238 14.9046 44.9311 16.1472 44.9311H23.0486C24.2912 44.9311 25.2986 43.9238 25.2986 42.6811V28.563C25.2986 27.3203 24.2912 26.313 23.0486 26.313Z" stroke="#384056" stroke-width="1.22727" stroke-linecap="round"/>
</g>
<mask id="mask1_2363_4543" style="mask-type:luminance" maskUnits="userSpaceOnUse" x="15" y="36" width="10" height="12">
<path d="M24.1081 36.524H15.0876V47.95H24.1081V36.524Z" fill="white"/>
</mask>
<g mask="url(#mask1_2363_4543)">
<path d="M22.8929 34.7323H16.3025V50.3432H22.8929V34.7323Z" stroke="#384056" stroke-width="1.22727" stroke-linecap="round"/>
</g>
<path d="M32.9564 47.7627L27.6382 36.7173" stroke="#384056" stroke-width="1.22727" stroke-linecap="round"/>
</svg>
