<svg width="22" height="22" viewBox="0 0 22 22" fill="none" xmlns="http://www.w3.org/2000/svg">
<path fill-rule="evenodd" clip-rule="evenodd" d="M15.4797 6.09038C15.4798 6.67964 15.3638 7.26313 15.1384 7.80755C14.9129 8.35197 14.5825 8.84666 14.1658 9.26337C13.7492 9.68007 13.2546 10.0106 12.7102 10.2362C12.1658 10.4617 11.5824 10.5779 10.9931 10.5779C9.80307 10.578 8.66172 10.1054 7.82014 9.26401C6.97856 8.42261 6.5057 7.28135 6.50558 6.0913C6.50552 5.50205 6.62152 4.91856 6.84696 4.37413C7.0724 3.82971 7.40287 3.33503 7.81949 2.91832C8.6609 2.07674 9.80216 1.60388 10.9922 1.60376C12.1823 1.60364 13.3236 2.07627 14.1652 2.91767C15.0068 3.75908 15.4796 4.90034 15.4797 6.09038ZM10.9927 11.9506C4.53108 11.9506 2.01758 16.0628 2.01758 17.9759C2.01758 19.8881 7.36816 20.3977 10.9927 20.3977C14.6172 20.3977 19.9677 19.8881 19.9677 17.9759C19.9677 16.0628 17.4542 11.9506 10.9927 11.9506Z" fill="currentColor"/>
</svg>
