<svg width="28" height="28" viewBox="0 0 28 28" fill="none" xmlns="http://www.w3.org/2000/svg">
<path d="M9.38867 7.56281C9.38867 7.1486 9.05288 6.81281 8.63867 6.81281C8.22445 6.81281 7.88867 7.1486 7.88867 7.56281H9.38867ZM8.63867 15.4H7.88867C7.88867 15.8142 8.22445 16.15 8.63867 16.15V15.4ZM18.2023 15.4L18.8731 15.0645C18.7461 14.8105 18.4864 14.65 18.2023 14.65V15.4ZM21.7481 22.4899L21.0774 22.8253C21.248 23.1666 21.6477 23.3253 22.006 23.1942L21.7481 22.4899ZM24.892 22.1377C25.281 21.9953 25.4809 21.5646 25.3385 21.1756C25.1961 20.7866 24.7653 20.5867 24.3764 20.7291L24.892 22.1377ZM17.1739 12.2161C17.5881 12.2161 17.9239 11.8803 17.9239 11.4661C17.9239 11.0519 17.5881 10.7161 17.1739 10.7161V12.2161ZM11.2217 25.4433L11.2178 24.6933L11.2176 24.6933L11.2217 25.4433ZM18.804 18.5316C18.804 18.1174 18.4682 17.7816 18.054 17.7816C17.6398 17.7816 17.304 18.1174 17.304 18.5316H18.804ZM11.4563 5.3175C11.4563 6.18321 10.7545 6.885 9.88877 6.885V8.385C11.5829 8.385 12.9563 7.01163 12.9563 5.3175H11.4563ZM9.88877 6.885C9.02306 6.885 8.32127 6.18321 8.32127 5.3175H6.82127C6.82127 7.01163 8.19463 8.385 9.88877 8.385V6.885ZM8.32127 5.3175C8.32127 4.45179 9.02306 3.75 9.88877 3.75V2.25C8.19463 2.25 6.82127 3.62337 6.82127 5.3175H8.32127ZM9.88877 3.75C10.7545 3.75 11.4563 4.45179 11.4563 5.3175H12.9563C12.9563 3.62337 11.5829 2.25 9.88877 2.25V3.75ZM7.88867 7.56281V15.4H9.38867V7.56281H7.88867ZM8.63867 16.15H18.2023V14.65H8.63867V16.15ZM17.5316 15.7355L21.0774 22.8253L22.4189 22.1544L18.8731 15.0645L17.5316 15.7355ZM22.006 23.1942L24.892 22.1377L24.3764 20.7291L21.4903 21.7856L22.006 23.1942ZM17.1739 10.7161H10.2892V12.2161H17.1739V10.7161ZM10.2892 10.7161C8.51601 10.7161 6.75428 11.6469 5.45398 13.0777C4.14527 14.5177 3.25 16.5186 3.25 18.7642H4.75C4.75 16.9218 5.48521 15.2736 6.56403 14.0865C7.65126 12.8902 9.03411 12.2161 10.2892 12.2161V10.7161ZM3.25 18.7642C3.25 23.3834 7.57024 26.2132 11.2258 26.1933L11.2176 24.6933C8.14292 24.7101 4.75 22.3213 4.75 18.7642H3.25ZM11.2256 26.1933C13.927 26.1793 15.8409 24.8877 17.058 23.2975C18.2543 21.7348 18.804 19.8541 18.804 18.5316H17.304C17.304 19.5122 16.8704 21.0748 15.8669 22.3858C14.8844 23.6695 13.382 24.6821 11.2178 24.6933L11.2256 26.1933Z" fill="#404040"/>
</svg>
