<svg width="32" height="32" viewBox="0 0 32 32" fill="none" xmlns="http://www.w3.org/2000/svg">
<path d="M10.8336 10.3076L2.32695 11.6174L2.17628 11.65C1.9482 11.7143 1.74028 11.8417 1.57374 12.0193C1.4072 12.1968 1.28802 12.4182 1.22837 12.6606C1.16871 12.9031 1.17072 13.1581 1.23419 13.3994C1.29765 13.6408 1.42031 13.86 1.58962 14.0345L7.75228 20.4052L6.29895 29.4039L6.28162 29.5596C6.26765 29.8102 6.31664 30.0601 6.42355 30.2839C6.53046 30.5077 6.69146 30.6974 6.89006 30.8334C7.08867 30.9694 7.31773 31.0469 7.55381 31.0579C7.78989 31.069 8.0245 31.0132 8.23362 30.8964L15.8416 26.6483L23.4323 30.8964L23.5656 30.9615C23.7857 31.0536 24.0249 31.0818 24.2586 31.0433C24.4924 31.0048 24.7123 30.9009 24.8957 30.7424C25.0792 30.5839 25.2197 30.3763 25.3027 30.1411C25.3858 29.9059 25.4084 29.6515 25.3683 29.4039L23.9136 20.4052L30.0789 14.0331L30.1829 13.9128C30.3315 13.7184 30.4289 13.4858 30.4652 13.2385C30.5016 12.9911 30.4755 12.738 30.3897 12.5049C30.304 12.2717 30.1615 12.0669 29.9769 11.9113C29.7923 11.7556 29.5722 11.6547 29.3389 11.6188L20.8323 10.3076L17.0296 2.1231C16.9196 1.88596 16.7492 1.68628 16.5379 1.54665C16.3265 1.40701 16.0825 1.33301 15.8336 1.33301C15.5847 1.33301 15.3407 1.40701 15.1294 1.54665C14.918 1.68628 14.7477 1.88596 14.6376 2.1231L10.8336 10.3076Z" fill="#FFE047"/>
</svg>
