<svg width="18" height="18" viewBox="0 0 18 18" fill="none" xmlns="http://www.w3.org/2000/svg">
<path fill-rule="evenodd" clip-rule="evenodd" d="M9.30342 8.8286C9.30342 8.85222 9.29197 8.87297 9.28983 8.89587C9.28579 8.94435 9.27594 8.99216 9.26048 9.03829C9.23458 9.12386 9.19229 9.20358 9.13596 9.27302C9.10447 9.31095 9.07155 9.34458 9.03291 9.37607C9.01502 9.39038 9.00428 9.41114 8.98496 9.42402L5.60281 11.6783C5.44488 11.7796 5.25348 11.8149 5.06982 11.7764C4.88617 11.738 4.72495 11.629 4.62089 11.4728C4.51683 11.3167 4.47826 11.1259 4.51347 10.9416C4.54868 10.7573 4.65487 10.5942 4.80916 10.4875L7.87213 8.44573V5.10366C7.87213 4.91386 7.94753 4.73183 8.08174 4.59762C8.21595 4.46341 8.39797 4.38801 8.58778 4.38801C8.77758 4.38801 8.9596 4.46341 9.09381 4.59762C9.22802 4.73183 9.30342 4.91386 9.30342 5.10366V8.8286ZM8.58778 1.48535C4.43774 1.48535 1.07349 4.84961 1.07349 8.99964C1.07349 13.1497 4.43774 16.5139 8.58778 16.5139C12.7378 16.5139 16.1021 13.1497 16.1021 8.99964C16.1021 4.84961 12.7378 1.48535 8.58778 1.48535Z" fill="#D4D4D4"/>
</svg>
