<svg width="60" height="60" viewBox="0 0 60 60" fill="none" xmlns="http://www.w3.org/2000/svg">
<rect x="0.5" y="0.5" width="59" height="59" rx="11.5" fill="white"/>
<rect x="0.5" y="0.5" width="59" height="59" rx="11.5" stroke="#384056"/>
<path d="M45.1875 38.4375H44.625V32.25C44.6245 31.8026 44.4466 31.3737 44.1302 31.0573C43.8138 30.7409 43.3849 30.563 42.9375 30.5625H38.4375C37.9901 30.563 37.5612 30.7409 37.2448 31.0573C36.9284 31.3737 36.7505 31.8026 36.75 32.25V38.4375H36.1875C36.0383 38.4375 35.8952 38.4968 35.7898 38.6023C35.6843 38.7077 35.625 38.8508 35.625 39V40.125C35.6255 40.5724 35.8034 41.0013 36.1198 41.3177C36.4362 41.6341 36.8651 41.812 37.3125 41.8125H40.125V44.625H30.5625V41.8125H33.375C33.8224 41.812 34.2513 41.6341 34.5677 41.3177C34.8841 41.0013 35.062 40.5724 35.0625 40.125V39C35.0625 38.8508 35.0032 38.7077 34.8977 38.6023C34.7923 38.4968 34.6492 38.4375 34.5 38.4375H33.9375V32.25C33.937 31.8026 33.7591 31.3737 33.4427 31.0573C33.1263 30.7409 32.6974 30.563 32.25 30.5625H27.75C27.3026 30.563 26.8737 30.7409 26.5573 31.0573C26.2409 31.3737 26.063 31.8026 26.0625 32.25V38.4375H25.5C25.3508 38.4375 25.2077 38.4968 25.1023 38.6023C24.9968 38.7077 24.9375 38.8508 24.9375 39V40.125C24.938 40.5724 25.1159 41.0013 25.4323 41.3177C25.7487 41.6341 26.1776 41.812 26.625 41.8125H29.4375V44.625H19.875V41.8125H22.6875C23.1349 41.812 23.5638 41.6341 23.8802 41.3177C24.1966 41.0013 24.3745 40.5724 24.375 40.125V39C24.375 38.8508 24.3157 38.7077 24.2102 38.6023C24.1048 38.4968 23.9617 38.4375 23.8125 38.4375H23.25V32.25C23.2495 31.8026 23.0716 31.3737 22.7552 31.0573C22.4388 30.7409 22.0099 30.563 21.5625 30.5625H17.0625C16.6151 30.563 16.1862 30.7409 15.8698 31.0573C15.5534 31.3737 15.3755 31.8026 15.375 32.25V38.4375H14.8125C14.6633 38.4375 14.5202 38.4968 14.4148 38.6023C14.3093 38.7077 14.25 38.8508 14.25 39V40.125C14.2505 40.5724 14.4284 41.0013 14.7448 41.3177C15.0612 41.6341 15.4901 41.812 15.9375 41.8125H18.75V44.625H14.8125C14.6633 44.625 14.5202 44.6843 14.4148 44.7898C14.3093 44.8952 14.25 45.0383 14.25 45.1875C14.25 45.3367 14.3093 45.4798 14.4148 45.5852C14.5202 45.6907 14.6633 45.75 14.8125 45.75H45.1875C45.3367 45.75 45.4798 45.6907 45.5852 45.5852C45.6907 45.4798 45.75 45.3367 45.75 45.1875C45.75 45.0383 45.6907 44.8952 45.5852 44.7898C45.4798 44.6843 45.3367 44.625 45.1875 44.625H41.25V41.8125H44.0625C44.5099 41.812 44.9388 41.6341 45.2552 41.3177C45.5716 41.0013 45.7495 40.5724 45.75 40.125V39C45.75 38.8508 45.6907 38.7077 45.5852 38.6023C45.4798 38.4968 45.3367 38.4375 45.1875 38.4375ZM27.1875 32.25C27.1877 32.1009 27.247 31.9579 27.3525 31.8525C27.4579 31.747 27.6009 31.6877 27.75 31.6875H32.25C32.3991 31.6877 32.5421 31.747 32.6475 31.8525C32.753 31.9579 32.8123 32.1009 32.8125 32.25V38.4375H27.1875V32.25ZM26.0625 40.125V39.5625H33.9375V40.125C33.9373 40.2741 33.878 40.4171 33.7725 40.5225C33.6671 40.628 33.5241 40.6873 33.375 40.6875H26.625C26.4759 40.6873 26.3329 40.628 26.2275 40.5225C26.122 40.4171 26.0627 40.2741 26.0625 40.125ZM16.5 32.25C16.5002 32.1009 16.5595 31.9579 16.665 31.8525C16.7704 31.747 16.9134 31.6877 17.0625 31.6875H21.5625C21.7116 31.6877 21.8546 31.747 21.96 31.8525C22.0655 31.9579 22.1248 32.1009 22.125 32.25V38.4375H16.5V32.25ZM15.375 40.125V39.5625H23.25V40.125C23.2498 40.2741 23.1905 40.4171 23.085 40.5225C22.9796 40.628 22.8366 40.6873 22.6875 40.6875H15.9375C15.7884 40.6873 15.6454 40.628 15.54 40.5225C15.4345 40.4171 15.3752 40.2741 15.375 40.125ZM37.875 32.25C37.8752 32.1009 37.9345 31.9579 38.04 31.8525C38.1454 31.747 38.2884 31.6877 38.4375 31.6875H42.9375C43.0866 31.6877 43.2296 31.747 43.335 31.8525C43.4405 31.9579 43.4998 32.1009 43.5 32.25V38.4375H37.875V32.25ZM44.625 40.125C44.6248 40.2741 44.5655 40.4171 44.46 40.5225C44.3546 40.628 44.2116 40.6873 44.0625 40.6875H37.3125C37.1634 40.6873 37.0204 40.628 36.915 40.5225C36.8095 40.4171 36.7502 40.2741 36.75 40.125V39.5625H44.625V40.125Z" fill="#384056"/>
<path d="M44.0625 25.5C44.5099 25.4995 44.9388 25.3216 45.2552 25.0052C45.5716 24.6888 45.7495 24.2599 45.75 23.8125V22.6875C45.75 22.5383 45.6907 22.3952 45.5852 22.2898C45.4798 22.1843 45.3367 22.125 45.1875 22.125H44.625V15.9375C44.6245 15.4901 44.4466 15.0612 44.1302 14.7448C43.8138 14.4284 43.3849 14.2505 42.9375 14.25H38.4375C37.9901 14.2505 37.5612 14.4284 37.2448 14.7448C36.9284 15.0612 36.7505 15.4901 36.75 15.9375V22.125H36.1875C36.0383 22.125 35.8952 22.1843 35.7898 22.2898C35.6843 22.3952 35.625 22.5383 35.625 22.6875V23.8125C35.6255 24.2599 35.8034 24.6888 36.1198 25.0052C36.4362 25.3216 36.8651 25.4995 37.3125 25.5H40.125V28.3125H30.5625V25.5H33.375C33.8224 25.4995 34.2513 25.3216 34.5677 25.0052C34.8841 24.6888 35.062 24.2599 35.0625 23.8125V22.6875C35.0625 22.5383 35.0032 22.3952 34.8977 22.2898C34.7923 22.1843 34.6492 22.125 34.5 22.125H33.9375V15.9375C33.937 15.4901 33.7591 15.0612 33.4427 14.7448C33.1263 14.4284 32.6974 14.2505 32.25 14.25H27.75C27.3026 14.2505 26.8737 14.4284 26.5573 14.7448C26.2409 15.0612 26.063 15.4901 26.0625 15.9375V22.125H25.5C25.3508 22.125 25.2077 22.1843 25.1023 22.2898C24.9968 22.3952 24.9375 22.5383 24.9375 22.6875V23.8125C24.938 24.2599 25.1159 24.6888 25.4323 25.0052C25.7487 25.3216 26.1776 25.4995 26.625 25.5H29.4375V28.3125H19.875V25.5H22.6875C23.1349 25.4995 23.5638 25.3216 23.8802 25.0052C24.1966 24.6888 24.3745 24.2599 24.375 23.8125V22.6875C24.375 22.5383 24.3157 22.3952 24.2102 22.2898C24.1048 22.1843 23.9617 22.125 23.8125 22.125H23.25V15.9375C23.2495 15.4901 23.0716 15.0612 22.7552 14.7448C22.4388 14.4284 22.0099 14.2505 21.5625 14.25H17.0625C16.6151 14.2505 16.1862 14.4284 15.8698 14.7448C15.5534 15.0612 15.3755 15.4901 15.375 15.9375V22.125H14.8125C14.6633 22.125 14.5202 22.1843 14.4148 22.2898C14.3093 22.3952 14.25 22.5383 14.25 22.6875V23.8125C14.2505 24.2599 14.4284 24.6888 14.7448 25.0052C15.0612 25.3216 15.4901 25.4995 15.9375 25.5H18.75V28.3125H14.8125C14.6633 28.3125 14.5202 28.3718 14.4148 28.4773C14.3093 28.5827 14.25 28.7258 14.25 28.875C14.25 29.0242 14.3093 29.1673 14.4148 29.2727C14.5202 29.3782 14.6633 29.4375 14.8125 29.4375H45.1875C45.3367 29.4375 45.4798 29.3782 45.5852 29.2727C45.6907 29.1673 45.75 29.0242 45.75 28.875C45.75 28.7258 45.6907 28.5827 45.5852 28.4773C45.4798 28.3718 45.3367 28.3125 45.1875 28.3125H41.25V25.5H44.0625ZM27.1875 15.9375C27.1877 15.7884 27.247 15.6454 27.3525 15.54C27.4579 15.4345 27.6009 15.3752 27.75 15.375H32.25C32.3991 15.3752 32.5421 15.4345 32.6475 15.54C32.753 15.6454 32.8123 15.7884 32.8125 15.9375V22.125H27.1875V15.9375ZM26.0625 23.8125V23.25H33.9375V23.8125C33.9373 23.9616 33.878 24.1046 33.7725 24.21C33.6671 24.3155 33.5241 24.3748 33.375 24.375H26.625C26.4759 24.3748 26.3329 24.3155 26.2275 24.21C26.122 24.1046 26.0627 23.9616 26.0625 23.8125ZM16.5 15.9375C16.5002 15.7884 16.5595 15.6454 16.665 15.54C16.7704 15.4345 16.9134 15.3752 17.0625 15.375H21.5625C21.7116 15.3752 21.8546 15.4345 21.96 15.54C22.0655 15.6454 22.1248 15.7884 22.125 15.9375V22.125H16.5V15.9375ZM15.375 23.8125V23.25H23.25V23.8125C23.2498 23.9616 23.1905 24.1046 23.085 24.21C22.9796 24.3155 22.8366 24.3748 22.6875 24.375H15.9375C15.7884 24.3748 15.6454 24.3155 15.54 24.21C15.4345 24.1046 15.3752 23.9616 15.375 23.8125ZM37.875 15.9375C37.8752 15.7884 37.9345 15.6454 38.04 15.54C38.1454 15.4345 38.2884 15.3752 38.4375 15.375H42.9375C43.0866 15.3752 43.2296 15.4345 43.335 15.54C43.4405 15.6454 43.4998 15.7884 43.5 15.9375V22.125H37.875V15.9375ZM36.75 23.8125V23.25H44.625V23.8125C44.6248 23.9616 44.5655 24.1046 44.46 24.21C44.3546 24.3155 44.2116 24.3748 44.0625 24.375H37.3125C37.1634 24.3748 37.0204 24.3155 36.915 24.21C36.8095 24.1046 36.7502 23.9616 36.75 23.8125Z" fill="#384056"/>
</svg>
