<svg width="14" height="14" viewBox="0 0 14 14" fill="none" xmlns="http://www.w3.org/2000/svg">
<path fill-rule="evenodd" clip-rule="evenodd" d="M6.99994 7.43283C6.78951 7.43687 6.5804 7.39892 6.38481 7.32118C6.18923 7.24345 6.01112 7.1275 5.86088 6.98012C5.71063 6.83274 5.59129 6.65688 5.50982 6.46282C5.42834 6.26877 5.38638 6.06042 5.38638 5.84996C5.38638 5.6395 5.42834 5.43115 5.50982 5.2371C5.59129 5.04304 5.71063 4.86718 5.86088 4.7198C6.01112 4.57241 6.18923 4.45647 6.38481 4.37873C6.5804 4.301 6.78951 4.26304 6.99994 4.26708C7.41448 4.27504 7.80935 4.44531 8.09971 4.74129C8.39006 5.03727 8.55271 5.43534 8.55271 5.84996C8.55271 6.26458 8.39006 6.66265 8.09971 6.95863C7.80935 7.25461 7.41448 7.42488 6.99994 7.43283ZM5.76094 0.604918C3.2701 1.16083 1.5236 3.50525 1.6216 6.05558C1.6986 8.05875 2.92769 9.85075 6.5846 13.3665C6.8156 13.5882 7.18543 13.5893 7.41702 13.3671C11.1994 9.73117 12.3847 7.93917 12.3847 5.84967C12.3847 2.47217 9.27377 -0.179082 5.76094 0.605501" fill="white"/>
</svg>
