<svg width="28" height="28" viewBox="0 0 28 28" fill="none" xmlns="http://www.w3.org/2000/svg">
<path d="M25.8349 13.676C25.8015 13.597 24.9933 11.718 23.1966 9.835C20.8025 7.326 17.7786 6 14.4504 6C11.1221 6 8.09828 7.326 5.70419 9.835C3.90743 11.718 3.09541 13.6 3.06583 13.676C3.02243 13.7783 3 13.889 3 14.001C3 14.113 3.02243 14.2237 3.06583 14.326C3.09923 14.405 3.90743 16.283 5.70419 18.166C8.09828 20.674 11.1221 22 14.4504 22C17.7786 22 20.8025 20.674 23.1966 18.166C24.9933 16.283 25.8015 14.405 25.8349 14.326C25.8783 14.2237 25.9008 14.113 25.9008 14.001C25.9008 13.889 25.8783 13.7783 25.8349 13.676ZM14.4504 20.4C11.5134 20.4 8.94751 19.281 6.82347 17.075C5.95194 16.1667 5.21048 15.131 4.62213 14C5.21032 12.8689 5.9518 11.8332 6.82347 10.925C8.94751 8.719 11.5134 7.6 14.4504 7.6C17.3874 7.6 19.9532 8.719 22.0773 10.925C22.9505 11.833 23.6936 12.8687 24.2834 14C23.5954 15.346 20.5983 20.4 14.4504 20.4ZM14.4504 9.2C13.5445 9.2 12.659 9.48152 11.9058 10.0089C11.1526 10.5364 10.5655 11.286 10.2189 12.1631C9.87221 13.0402 9.78151 14.0053 9.95823 14.9364C10.135 15.8675 10.5712 16.7228 11.2117 17.3941C11.8523 18.0654 12.6684 18.5226 13.5568 18.7078C14.4453 18.893 15.3662 18.7979 16.2031 18.4346C17.04 18.0713 17.7554 17.4561 18.2586 16.6667C18.7619 15.8774 19.0305 14.9494 19.0305 14C19.0293 12.7274 18.5463 11.5072 17.6876 10.6073C16.829 9.70746 15.6647 9.20132 14.4504 9.2ZM14.4504 17.2C13.8465 17.2 13.2561 17.0123 12.754 16.6607C12.2518 16.3091 11.8605 15.8093 11.6294 15.2246C11.3983 14.6399 11.3378 13.9965 11.4556 13.3757C11.5734 12.755 11.8642 12.1848 12.2913 11.7373C12.7183 11.2897 13.2624 10.985 13.8547 10.8615C14.447 10.738 15.0609 10.8014 15.6189 11.0436C16.1768 11.2858 16.6537 11.6959 16.9892 12.2222C17.3247 12.7484 17.5038 13.3671 17.5038 14C17.5038 14.8487 17.1821 15.6626 16.6095 16.2627C16.0369 16.8629 15.2602 17.2 14.4504 17.2Z" fill="#404040"/>
</svg>
