<svg width="60" height="60" viewBox="0 0 60 60" fill="none" xmlns="http://www.w3.org/2000/svg">
<rect x="0.5" y="0.5" width="59" height="59" rx="11.5" fill="white"/>
<rect x="0.5" y="0.5" width="59" height="59" rx="11.5" stroke="#E5E5E5"/>
<path d="M40.0031 12.0498C40.0031 12.0498 39.2098 15.3989 41.6774 17.9549C42.399 18.6986 43.2858 19.262 44.2658 19.5988C45.2458 19.9357 46.2913 20.0366 47.3176 19.8936" stroke="#E5E5E5" stroke-width="1.22727" stroke-linecap="round"/>
<path d="M34.395 12.8926C34.395 12.8926 33.1842 18.0015 36.949 21.9002C38.0498 23.0346 39.4021 23.8936 40.8969 24.4074C42.3918 24.9213 43.9867 25.0756 45.5523 24.8577" stroke="#E5E5E5" stroke-width="1.22727" stroke-linecap="round"/>
<path d="M29.0337 13.8088C29.0337 13.8088 27.3725 20.8217 32.5401 26.1727C34.0509 27.7299 35.9071 28.9091 37.959 29.6144C40.0108 30.3197 42.2001 30.5313 44.349 30.232" stroke="#E5E5E5" stroke-width="1.22727" stroke-linecap="round"/>
<path d="M19.5982 24.4847C21.0859 24.4847 22.292 23.2786 22.292 21.7908C22.292 20.303 21.0859 19.0969 19.5982 19.0969C18.1104 19.0969 16.9043 20.303 16.9043 21.7908C16.9043 23.2786 18.1104 24.4847 19.5982 24.4847Z" stroke="#E5E5E5" stroke-width="1.22727" stroke-linecap="round"/>
<mask id="mask0_2016_4426" style="mask-type:luminance" maskUnits="userSpaceOnUse" x="12" y="23" width="15" height="14">
<path d="M26.5137 23.2942H12.6824V36.5242H26.5137V23.2942Z" fill="white"/>
</mask>
<g mask="url(#mask0_2016_4426)">
<path d="M23.0486 26.3132H16.1472C14.9046 26.3132 13.8972 27.3206 13.8972 28.5632V42.6814C13.8972 43.924 14.9046 44.9314 16.1472 44.9314H23.0486C24.2912 44.9314 25.2986 43.924 25.2986 42.6814V28.5632C25.2986 27.3206 24.2912 26.3132 23.0486 26.3132Z" stroke="#E5E5E5" stroke-width="1.22727" stroke-linecap="round"/>
</g>
<mask id="mask1_2016_4426" style="mask-type:luminance" maskUnits="userSpaceOnUse" x="15" y="36" width="10" height="12">
<path d="M24.1081 36.5242H15.0876V47.9501H24.1081V36.5242Z" fill="white"/>
</mask>
<g mask="url(#mask1_2016_4426)">
<path d="M22.8929 34.7322H16.3025V50.3431H22.8929V34.7322Z" stroke="#E5E5E5" stroke-width="1.22727" stroke-linecap="round"/>
</g>
<path d="M32.9564 47.763L27.6382 36.7175" stroke="#E5E5E5" stroke-width="1.22727" stroke-linecap="round"/>
</svg>
