<svg width="60" height="60" viewBox="0 0 60 60" fill="none" xmlns="http://www.w3.org/2000/svg">
<rect x="0.5" y="0.5" width="59" height="59" rx="11.5" fill="white"/>
<rect x="0.5" y="0.5" width="59" height="59" rx="11.5" stroke="#E5E5E5"/>
<path d="M46.2691 42.7385H13.7307C12.8307 42.7385 12.1038 42.0116 12.1038 41.077V18.9231C12.1038 18.0231 12.8307 17.2616 13.7307 17.2616H46.2691C47.1691 17.2616 47.8961 17.9885 47.8961 18.9231V41.077C47.9307 41.977 47.1691 42.7385 46.2691 42.7385ZM13.7307 18.5078C13.4884 18.5078 13.3153 18.7154 13.3153 18.9578V41.1116C13.3153 41.3539 13.4884 41.5616 13.7307 41.5616H46.2691C46.5115 41.5616 46.6845 41.3539 46.6845 41.1116V18.9231C46.6845 18.6808 46.5115 18.4731 46.2691 18.4731H13.7307V18.5078Z" fill="#E5E5E5"/>
<path d="M37.5116 36.5077C34.2924 36.5077 32.1462 33.9807 32.1462 30.2077C32.1462 26.5384 34.5001 23.873 37.7193 23.873C40.177 23.873 41.9424 25.3615 42.4616 27.8538C42.5309 28.1654 42.3232 28.5115 41.977 28.5807C41.6655 28.65 41.3193 28.4423 41.2501 28.0961C41.0078 26.9538 40.2462 25.0846 37.7193 25.0846C35.1924 25.0846 33.3578 27.2307 33.3578 30.2077C33.3578 33.2884 34.9847 35.2961 37.5116 35.2961C40.1078 35.2961 41.0078 33.5654 41.3193 32.1115C41.3885 31.8 41.7001 31.5577 42.0462 31.6269C42.3578 31.6961 42.6001 32.0077 42.5309 32.3538C41.977 34.9846 40.177 36.5077 37.5116 36.5077Z" fill="#E5E5E5"/>
<path d="M22.9731 36.5077C19.7538 36.5077 17.6077 33.9807 17.6077 30.2077C17.6077 26.5384 19.9615 23.873 23.1807 23.873C25.6384 23.873 27.4038 25.3615 27.9231 27.8538C27.9923 28.1654 27.7846 28.5115 27.4384 28.5807C27.0923 28.65 26.7807 28.4423 26.7115 28.0961C26.4692 26.9538 25.7077 25.0846 23.1807 25.0846C20.6538 25.0846 18.8192 27.2307 18.8192 30.2077C18.8192 33.2884 20.4461 35.2961 22.9731 35.2961C25.5692 35.2961 26.4692 33.5654 26.7807 32.1115C26.85 31.8 27.1615 31.5577 27.5077 31.6269C27.8192 31.6961 28.0615 32.0077 27.9923 32.3538C27.4384 34.9846 25.6384 36.5077 22.9731 36.5077Z" fill="#E5E5E5"/>
</svg>
