<svg width="18" height="18" viewBox="0 0 18 18" fill="none" xmlns="http://www.w3.org/2000/svg">
<path d="M8.58768 1.48535C7.02236 1.48713 5.52167 2.10973 4.41482 3.21658C3.30798 4.32343 2.68537 5.82412 2.68359 7.38944C2.68359 12.4415 8.05094 16.259 8.27906 16.42C8.37047 16.4809 8.47785 16.5133 8.58768 16.5133C8.69751 16.5133 8.80488 16.4809 8.8963 16.42C9.12441 16.259 14.4918 12.4415 14.4918 7.38944C14.49 5.82412 13.8674 4.32343 12.7605 3.21658C11.6537 2.10973 10.153 1.48713 8.58768 1.48535ZM8.58768 5.2425C9.0123 5.2425 9.42739 5.36841 9.78045 5.60432C10.1335 5.84023 10.4087 6.17554 10.5712 6.56784C10.7337 6.96014 10.7762 7.39182 10.6934 7.80828C10.6105 8.22475 10.406 8.6073 10.1058 8.90755C9.80554 9.20781 9.42299 9.41228 9.00653 9.49512C8.59006 9.57796 8.15838 9.53545 7.76608 9.37295C7.37378 9.21045 7.03847 8.93527 6.80256 8.58221C6.56665 8.22915 6.44074 7.81406 6.44074 7.38944C6.44074 6.82003 6.66693 6.27395 7.06956 5.87132C7.47219 5.46869 8.01827 5.2425 8.58768 5.2425Z" fill="#D4D4D4"/>
</svg>
