<svg width="48" height="48" viewBox="0 0 48 48" fill="none" xmlns="http://www.w3.org/2000/svg">
<path fill-rule="evenodd" clip-rule="evenodd" d="M21.8079 43.0544C23.1399 43.9344 24.8579 43.9344 26.1879 43.0544C30.4179 40.2624 39.6279 33.5884 43.5959 26.1204C48.8259 16.2684 42.6839 6.44238 34.5639 6.44238C29.9359 6.44238 27.1519 8.86038 25.6119 10.9384C25.4269 11.1929 25.1843 11.4 24.904 11.5428C24.6237 11.6856 24.3135 11.7601 23.9989 11.7601C23.6843 11.7601 23.3741 11.6856 23.0938 11.5428C22.8134 11.4 22.5708 11.1929 22.3859 10.9384C20.8459 8.86038 18.0619 6.44238 13.4339 6.44238C5.31388 6.44238 -0.828122 16.2684 4.40388 26.1204C8.36788 33.5884 17.5819 40.2624 21.8079 43.0544Z" fill="#E5E5E5"/>
</svg>
