<svg width="64" height="65" viewBox="0 0 64 65" fill="none" xmlns="http://www.w3.org/2000/svg">
<g clip-path="url(#clip0_2576_4960)">
<path d="M63.4942 32.5737C63.4942 36.0632 62.9174 39.4511 61.8599 42.6257C57.7009 55.06 45.9523 63.9997 32.2101 63.9997C18.468 63.9997 6.66884 55.0042 2.50978 42.5699C1.92791 40.8277 1.50796 39.0296 1.24485 37.1756C1.03235 35.6416 0.931152 34.1077 0.931152 32.5737C0.931152 30.2981 1.19426 28.0734 1.61421 25.9604C4.61461 11.7788 17.2031 1.14258 32.2101 1.14258C42.2182 1.14258 51.1182 5.85115 56.8053 13.1553C57.2252 13.6835 57.5946 14.161 57.964 14.6892C59.1732 16.3807 60.175 18.2346 61.02 20.1902C62.5986 23.9997 63.4942 28.18 63.4942 32.5737Z" fill="#F5F5F5" stroke="#D4D4D4" stroke-width="1.01587" stroke-miterlimit="10"/>
<path d="M61.8645 42.6262C57.7055 55.0605 45.9569 64.0002 32.2148 64.0002C28 64.0002 23.9472 63.157 20.2587 61.6179C19.3126 61.2522 18.417 60.7748 17.5214 60.2973C10.5138 56.6452 5.08978 50.296 2.50934 42.6262L15.3104 29.8211L19.9956 25.1125C21.2605 23.8427 23.3654 23.8427 24.6303 25.1125L26.9476 27.4389L38.7468 39.2941L46.3313 31.6751C47.5962 30.4052 49.7011 30.4052 50.966 31.6751L57.5486 38.2884L61.8696 42.6262H61.8645Z" fill="#F5F5F5" stroke="#D4D4D4" stroke-width="1.01587"/>
<path opacity="0.1" d="M61.8645 42.6262C57.7055 55.0605 45.9569 64.0002 32.2148 64.0002C28 64.0002 23.9472 63.157 20.2587 61.6179C19.3126 61.2522 18.417 60.7748 17.5214 60.2973C10.5138 56.6452 5.08978 50.296 2.50934 42.6262L15.3104 29.8211L19.9956 25.1125C21.2605 23.8427 23.3654 23.8427 24.6303 25.1125L26.9476 27.4389L38.7468 39.2941L46.3313 31.6751C47.5962 30.4052 49.7011 30.4052 50.966 31.6751L57.5486 38.2884L61.8696 42.6262H61.8645Z" fill="#A3A3A3" stroke="#D4D4D4" stroke-width="0.96"/>
<path d="M61.865 42.6261C57.7059 55.0604 45.9624 64.0001 32.2152 64.0001C28.0005 64.0001 23.9477 63.1569 20.2591 61.6179C19.313 61.2522 18.4174 60.7747 17.5219 60.2973L38.6916 39.1874L46.3267 31.675C47.5916 30.4052 49.6964 30.4052 50.9613 31.675L61.865 42.6261Z" fill="#F5F5F5" stroke="#D4D4D4" stroke-width="1.01587"/>
<path d="M60.9688 20.1904H40.9578C41.064 17.3358 43.3814 15.0602 46.2249 15.0602H46.6449C47.3836 12.678 49.5947 10.8799 52.2257 10.8799C54.6999 10.8799 56.8604 12.4646 57.7053 14.6335H57.9684C59.1271 16.4367 60.1795 18.2856 60.9688 20.1904Z" fill="white" stroke="#D4D4D4" stroke-width="0.96" stroke-miterlimit="10"/>
<path d="M18.8323 37.2262H1.24485C1.03235 35.6922 0.931152 34.1583 0.931152 32.6243C0.931152 30.3487 1.19426 28.1291 1.61421 26.011C1.92791 25.9043 2.24667 25.9043 2.56037 25.9043C5.61642 25.9043 8.19687 27.8091 9.19362 30.5062C11.5616 30.6129 13.5652 32.2535 14.1977 34.4783C14.5114 34.4224 14.7795 34.3716 15.1438 34.3716C16.8793 34.3157 18.4073 35.5348 18.8323 37.2262Z" fill="white" stroke="#D4D4D4" stroke-width="0.96" stroke-miterlimit="10"/>
<path d="M24.6261 25.1122L26.9434 27.4385L23.5737 30.8264L20.9932 28.236L17.4666 31.7763C17.4666 31.7763 16.3586 30.7756 15.3062 29.7699L19.9914 25.0614C21.2563 23.7915 23.3106 23.7915 24.6261 25.1122Z" fill="white" stroke="#D4D4D4" stroke-width="0.96"/>
<path d="M57.5432 38.2884L54.0166 41.8338L51.3805 39.1874L47.5908 42.9969L41.3218 36.6985L46.3259 31.675C47.5908 30.4052 49.6956 30.4052 50.9605 31.675L57.5432 38.2884Z" fill="white" stroke="#D4D4D4" stroke-width="0.96"/>
<path d="M63.4942 32.5737C63.4942 36.0632 62.9174 39.4511 61.8599 42.6257C57.7009 55.06 45.9523 63.9997 32.2101 63.9997C18.468 63.9997 6.66884 55.0042 2.50978 42.5699C1.92791 40.8277 1.50796 39.0296 1.24485 37.1756C1.03235 35.6416 0.931152 34.1077 0.931152 32.5737C0.931152 30.2981 1.19426 28.0734 1.61421 25.9604C4.61461 11.7788 17.2031 1.14258 32.2101 1.14258C42.2182 1.14258 51.1182 5.85115 56.8053 13.1553C57.2252 13.6835 57.5946 14.161 57.964 14.6892C59.1732 16.3807 60.175 18.2346 61.02 20.1902C62.5986 23.9997 63.4942 28.18 63.4942 32.5737Z" stroke="#D4D4D4" stroke-miterlimit="10"/>
</g>
<defs>
<clipPath id="clip0_2576_4960">
<rect width="64" height="64.5079" fill="white"/>
</clipPath>
</defs>
</svg>
