<svg width="60" height="60" viewBox="0 0 60 60" fill="none" xmlns="http://www.w3.org/2000/svg">
<rect x="0.5" y="0.5" width="59" height="59" rx="11.5" fill="white"/>
<rect x="0.5" y="0.5" width="59" height="59" rx="11.5" stroke="#E5E5E5"/>
<path d="M40.322 23.5355H37.7747V20.4074C37.7747 18.3455 36.9556 16.368 35.4976 14.9099C34.0396 13.4519 32.0621 12.6328 30.0001 12.6328C27.9382 12.6328 25.9607 13.4519 24.5026 14.9099C23.0446 16.368 22.2255 18.3455 22.2255 20.4074V23.5355H19.6782C19.2141 23.536 18.7692 23.7206 18.441 24.0488C18.1129 24.3769 17.9283 24.8219 17.9277 25.286V25.6921C17.9283 26.1561 18.113 26.601 18.4411 26.9291C18.7693 27.2572 19.2142 27.4418 19.6782 27.4423H20.0256V29.8777C20.0274 31.1048 20.4465 32.2949 21.214 33.2524C21.9815 34.2099 23.0518 34.878 24.2491 35.1469L21.9364 46.0059C21.9014 46.1701 21.9036 46.34 21.9428 46.5033C21.9819 46.6665 22.0571 46.8189 22.1627 46.9494C22.2683 47.0799 22.4017 47.1851 22.5532 47.2574C22.7047 47.3297 22.8705 47.3672 23.0383 47.3672H24.0415C24.2993 47.3662 24.5491 47.2773 24.7494 47.115C24.9497 46.9528 25.0887 46.727 25.1432 46.4751L27.5268 35.2793H32.4734L34.8567 46.4751C34.9114 46.727 35.0504 46.9528 35.2507 47.115C35.4511 47.2772 35.7009 47.3662 35.9587 47.3672H36.9619C37.1298 47.3672 37.2955 47.3297 37.447 47.2574C37.5985 47.1851 37.7319 47.0799 37.8375 46.9494C37.9432 46.8189 38.0183 46.6665 38.0574 46.5033C38.0966 46.34 38.0988 46.1701 38.0638 46.0059L35.7511 35.1469C36.9483 34.8779 38.0185 34.2098 38.7859 33.2522C39.5533 32.2947 39.9723 31.1047 39.9741 29.8777V27.4423H40.322C40.786 27.4418 41.2309 27.2572 41.5591 26.9291C41.8873 26.601 42.0719 26.1561 42.0725 25.6921V25.286C42.072 24.8219 41.8874 24.3769 41.5592 24.0488C41.231 23.7206 40.7861 23.536 40.322 23.5355ZM23.2099 20.4074C23.2099 18.6065 23.9253 16.8794 25.1987 15.606C26.4721 14.3326 28.1992 13.6172 30.0001 13.6172C31.801 13.6172 33.5281 14.3326 34.8015 15.606C36.0749 16.8794 36.7903 18.6065 36.7903 20.4074V23.5355H23.2099V20.4074ZM24.1805 46.2703C24.1736 46.3021 24.1561 46.3306 24.1308 46.351C24.1056 46.3715 24.0741 46.3827 24.0415 46.3828H23.0383C23.0171 46.3828 22.9962 46.3781 22.9771 46.369C22.9579 46.3598 22.9411 46.3466 22.9277 46.3301C22.9144 46.3136 22.9049 46.2944 22.9 46.2738C22.895 46.2532 22.8947 46.2317 22.8991 46.211L25.2279 35.2757C25.4247 35.2822 25.8421 35.2785 26.5216 35.2793L24.1805 46.2703ZM34.7724 35.2757L37.1011 46.211C37.1055 46.2318 37.1052 46.2534 37.1002 46.2741C37.0952 46.2948 37.0855 46.3141 37.072 46.3306C37.0585 46.3471 37.0415 46.3604 37.0222 46.3694C37.0029 46.3784 36.9818 46.383 36.9605 46.3828H35.9587C35.9259 46.383 35.894 46.3719 35.8685 46.3514C35.8429 46.331 35.8251 46.3023 35.818 46.2703L33.4797 35.2793C34.159 35.2785 34.5755 35.2822 34.7724 35.2757ZM38.9897 29.8777C38.9877 31.0442 38.5249 32.1627 37.7022 32.9897C36.8795 33.8167 35.7634 34.2852 34.5969 34.2933C34.5887 34.2933 34.5814 34.2933 34.5732 34.2933H25.427C25.4188 34.2933 25.4112 34.2933 25.4031 34.2933C24.2366 34.2852 23.1205 33.8167 22.2979 32.9897C21.4752 32.1627 21.0125 31.0442 21.0105 29.8777V27.4423H22.2255V29.6467C22.2266 30.5569 22.5886 31.4295 23.2322 32.0731C23.8757 32.7166 24.7483 33.0786 25.6585 33.0797H34.3418C35.2519 33.0786 36.1245 32.7166 36.7681 32.0731C37.4116 31.4295 37.7737 30.5569 37.7747 29.6467V27.4423H38.9897V29.8777ZM23.2099 27.4423H36.7903V29.6467C36.7896 30.2959 36.5314 30.9183 36.0723 31.3773C35.6133 31.8364 34.9909 32.0946 34.3418 32.0953H25.6585C25.0093 32.0946 24.3869 31.8364 23.9279 31.3773C23.4688 30.9183 23.2106 30.2959 23.2099 29.6467V27.4423ZM41.0875 25.6921C41.0873 25.8952 41.0065 26.0899 40.8629 26.2335C40.7193 26.3771 40.5245 26.4578 40.3214 26.4579H19.6782C19.4751 26.4578 19.2804 26.3771 19.1368 26.2335C18.9931 26.0899 18.9123 25.8952 18.9121 25.6921V25.286C18.9123 25.0828 18.9931 24.8881 19.1367 24.7445C19.2804 24.6009 19.4751 24.5201 19.6782 24.5198H40.322C40.5251 24.5201 40.7198 24.6009 40.8635 24.7445C41.0071 24.8881 41.0879 25.0828 41.0881 25.286L41.0875 25.6921Z" fill="#E5E5E5"/>
</svg>
