<svg width="60" height="60" viewBox="0 0 60 60" fill="none" xmlns="http://www.w3.org/2000/svg">
<rect x="0.5" y="0.5" width="59" height="59" rx="11.5" fill="white"/>
<rect x="0.5" y="0.5" width="59" height="59" rx="11.5" stroke="#E5E5E5"/>
<path d="M44.4569 21.6625L42.2803 20.841C42.1125 20.7773 41.9611 20.6766 41.8375 20.5465L40.5948 19.2361V16.1761C40.5947 16.0769 40.5643 15.9802 40.5076 15.8988C40.4509 15.8175 40.3706 15.7554 40.2776 15.7211C40.1846 15.6867 40.0833 15.6817 39.9873 15.7067C39.8914 15.7316 39.8053 15.7854 39.7409 15.8607L39.2325 16.4554L39.1022 15.7441C39.0837 15.6433 39.0337 15.5509 38.9595 15.4802C38.8852 15.4095 38.7905 15.3642 38.6889 15.3507C38.5873 15.3372 38.484 15.3562 38.3938 15.405C38.3037 15.4538 38.2313 15.5299 38.1871 15.6224L33.3185 25.8464L20.1633 16.1898C19.6269 15.8254 19.0884 16.58 19.5873 16.9717L32.0217 26.0998H20.6033C17.4907 26.1538 16.3956 24.0032 16.4366 22.0952C16.4463 21.9789 16.4138 21.863 16.3451 21.7688C16.2763 21.6745 16.1758 21.6082 16.0621 21.5819C15.9484 21.5557 15.8291 21.5713 15.726 21.6259C15.6228 21.6805 15.5428 21.7704 15.5006 21.8792C13.6236 26.552 14.2989 29.6343 19.056 30.5674V32.8801C19.056 36.1791 17.5389 36.7357 17.4252 36.7731C17.3213 36.7984 17.2292 36.8586 17.1644 36.9437C17.0997 37.0287 17.0661 37.1335 17.0695 37.2404V44.1682C17.0695 44.2969 17.1206 44.4204 17.2116 44.5114C17.3026 44.6024 17.4261 44.6535 17.5548 44.6535H20.1468C20.838 44.6593 21.2822 44.1999 21.4637 43.6239H22.4515C24.1449 43.6239 24.3185 40.9556 22.9361 40.435V38.7841C23.8615 38.2023 24.5275 37.369 24.9341 36.2842H32.664V43.1408C32.664 43.2695 32.7151 43.3929 32.8061 43.4839C32.8971 43.575 33.0205 43.6261 33.1493 43.6261H34.3142V44.1704C34.3142 44.2341 34.3268 44.2972 34.3512 44.3561C34.3755 44.415 34.4113 44.4685 34.4564 44.5135C34.5014 44.5586 34.5549 44.5944 34.6138 44.6187C34.6727 44.6431 34.7358 44.6557 34.7995 44.6557H37.3879C39.0439 44.6694 39.2901 42.0219 37.8732 41.4668V34.7852L41.016 26.2086L43.7397 25.8903C44.0453 25.855 44.3335 25.7299 44.5679 25.5309C44.8024 25.3319 44.9727 25.0679 45.0573 24.7722L45.408 23.5539C45.5142 23.1768 45.4756 22.7736 45.2995 22.4236C45.1235 22.0736 44.8229 21.8021 44.4569 21.6625ZM39.6242 17.4865V18.213L39.5364 18.1201L39.4572 17.6881L39.6242 17.4865ZM22.4443 41.3185C22.8043 41.3185 22.8857 41.8138 22.8857 42.0046C22.8911 42.181 22.8432 42.3549 22.7481 42.5036C22.715 42.5532 22.6696 42.5933 22.6164 42.6201C22.5631 42.6468 22.5038 42.6593 22.4443 42.6562H21.5177C21.4269 42.1364 21.1339 41.6662 20.6249 41.4675V39.6294C21.0802 39.551 21.5269 39.4293 21.959 39.2658V40.8332C21.959 40.8969 21.9716 40.96 21.996 41.0188C22.0204 41.0776 22.0561 41.1311 22.1012 41.1761C22.1463 41.2211 22.1998 41.2568 22.2586 41.2811C22.3175 41.3054 22.3806 41.3179 22.4443 41.3178V41.3185ZM20.1403 43.6858H18.0365V37.5601C18.6953 37.2001 20.0222 36.0747 20.0222 32.8858V30.1549C20.0222 30.0383 19.9802 29.9256 19.9039 29.8374C19.8277 29.7492 19.7222 29.6914 19.6068 29.6746C16.0694 29.1418 14.8973 27.4225 15.785 24.0514C16.4769 26.025 18.2582 27.0963 20.6033 27.0697H31.4033V35.3137H25.2055C25.2716 34.9979 25.3197 34.6787 25.3495 34.3575C25.3877 33.7131 24.4632 33.6318 24.3833 34.2661C24.1313 36.9301 22.7222 38.391 20.0777 38.7301C19.9607 38.7451 19.8532 38.8022 19.7753 38.8908C19.6974 38.9793 19.6544 39.0931 19.6543 39.211V41.8606C19.6543 41.9893 19.7054 42.1128 19.7964 42.2038C19.8874 42.2948 20.0109 42.3459 20.1396 42.3459C20.1396 42.3459 20.4809 42.369 20.4686 43.0443C20.4578 43.675 20.1396 43.6851 20.1396 43.6851L20.1403 43.6858ZM33.636 42.6562V36.2842H34.3164V42.6555L33.636 42.6562ZM34.068 26.5333L38.9244 29.0965L36.9336 34.5361C36.9141 34.5896 36.9041 34.6461 36.9041 34.7031V41.8657C36.9041 41.9944 36.9552 42.1178 37.0462 42.2088C37.1372 42.2998 37.2606 42.351 37.3893 42.351C37.7493 42.351 37.8307 42.8463 37.8307 43.0371C37.8307 43.1034 37.8185 43.6887 37.3893 43.6887H35.2862V35.799C35.2862 35.6703 35.2351 35.5468 35.1441 35.4558C35.0531 35.3648 34.9296 35.3137 34.8009 35.3137H32.376V27.0697H33.5035C33.8001 27.061 33.9787 26.8674 34.0665 26.5326L34.068 26.5333ZM44.472 23.2854L44.1206 24.5036C44.0887 24.6155 44.0244 24.7153 43.9357 24.7906C43.847 24.8658 43.7379 24.913 43.6224 24.9262L40.6027 25.279C40.5135 25.2896 40.4289 25.3247 40.3584 25.3803C40.2878 25.436 40.2341 25.5101 40.2031 25.5944L39.2592 28.1763L34.4841 25.6563L38.4175 17.3943L38.6076 18.4362C38.6246 18.5288 38.6681 18.6146 38.7329 18.6831L41.1333 21.2161C41.3578 21.4524 41.6327 21.6351 41.9376 21.7503L44.112 22.5704C44.2504 22.6231 44.3641 22.7257 44.4307 22.858C44.4973 22.9903 44.5121 23.1428 44.472 23.2854Z" fill="#E5E5E5"/>
<path d="M39.5242 21.183C39.529 21.3098 39.5829 21.4299 39.6743 21.518C39.7658 21.606 39.8879 21.6552 40.0149 21.6552C40.1418 21.6552 40.2639 21.606 40.3554 21.518C40.4468 21.4299 40.5007 21.3098 40.5055 21.183C40.4847 20.5393 39.545 20.5393 39.5242 21.183Z" fill="#E5E5E5"/>
</svg>
