<svg width="22" height="22" viewBox="0 0 22 22" fill="none" xmlns="http://www.w3.org/2000/svg">
<path fill-rule="evenodd" clip-rule="evenodd" d="M19.3133 7.52023L11.5702 1.36298C11.4082 1.23388 11.2072 1.16357 11 1.16357C10.7929 1.16357 10.5919 1.23388 10.4299 1.36298L2.68586 7.52023C2.47003 7.69191 2.29571 7.91006 2.17588 8.15844C2.05606 8.40682 1.99381 8.67904 1.99377 8.95482V17.588C1.99377 18.1715 2.22556 18.731 2.63814 19.1436C3.05072 19.5562 3.6103 19.788 4.19377 19.788H9.16669V15.432C9.16669 15.1889 9.26327 14.9557 9.43518 14.7838C9.60709 14.6119 9.84024 14.5153 10.0834 14.5153H11.9167C12.1598 14.5153 12.393 14.6119 12.5649 14.7838C12.7368 14.9557 12.8334 15.1889 12.8334 15.432V19.788H17.8054C18.3888 19.788 18.9484 19.5562 19.361 19.1436C19.7736 18.731 20.0054 18.1715 20.0054 17.588V8.95573C20.0053 8.67996 19.9431 8.40774 19.8232 8.15936C19.7034 7.91097 19.5291 7.69282 19.3133 7.52115" fill="currentColor"/>
</svg>
