<svg width="47" height="46" viewBox="0 0 47 46" fill="none" xmlns="http://www.w3.org/2000/svg">
<g filter="url(#filter0_d_3137_4784)">
<rect x="4.93701" y="4" width="38" height="38" rx="19" fill="white"/>
</g>
<path fill-rule="evenodd" clip-rule="evenodd" d="M25.7521 23.0001L31.4031 17.3491C31.5146 17.2377 31.603 17.1054 31.6634 16.9598C31.7237 16.8142 31.7548 16.6581 31.7549 16.5005C31.7549 16.3428 31.7239 16.1868 31.6636 16.0411C31.6034 15.8955 31.515 15.7631 31.4036 15.6516C31.2921 15.5401 31.1598 15.4517 31.0142 15.3913C30.8686 15.3309 30.7125 15.2999 30.5549 15.2998C30.3973 15.2998 30.2412 15.3308 30.0956 15.391C29.9499 15.4513 29.8176 15.5397 29.7061 15.6511L24.0551 21.3031L18.4031 15.6511C18.1754 15.4385 17.8741 15.3226 17.5626 15.328C17.2512 15.3333 16.954 15.4595 16.7338 15.6798C16.5136 15.9002 16.3876 16.1974 16.3824 16.5089C16.3773 16.8203 16.4933 17.1216 16.7061 17.3491L22.3581 23.0001L16.7061 28.6511C16.539 28.8193 16.4254 29.0331 16.3796 29.2657C16.3338 29.4983 16.3577 29.7392 16.4485 29.9582C16.5392 30.1772 16.6927 30.3645 16.8896 30.4965C17.0865 30.6285 17.318 30.6994 17.5551 30.7001C17.8621 30.7001 18.1691 30.5831 18.4031 30.3491L24.0551 24.6971L29.7061 30.3491C29.8174 30.4608 29.9496 30.5494 30.0952 30.6098C30.2408 30.6703 30.3969 30.7014 30.5546 30.7014C30.7122 30.7014 30.8683 30.6703 31.0139 30.6098C31.1595 30.5494 31.2918 30.4608 31.4031 30.3491C31.5146 30.2377 31.6031 30.1053 31.6635 29.9596C31.7239 29.814 31.755 29.6578 31.755 29.5001C31.755 29.3424 31.7239 29.1863 31.6635 29.0406C31.6031 28.8949 31.5146 28.7626 31.4031 28.6511L25.7521 23.0001Z" fill="#8B95A1"/>
<defs>
<filter id="filter0_d_3137_4784" x="0.937012" y="0" width="46" height="46" filterUnits="userSpaceOnUse" color-interpolation-filters="sRGB">
<feFlood flood-opacity="0" result="BackgroundImageFix"/>
<feColorMatrix in="SourceAlpha" type="matrix" values="0 0 0 0 0 0 0 0 0 0 0 0 0 0 0 0 0 0 127 0" result="hardAlpha"/>
<feOffset/>
<feGaussianBlur stdDeviation="2"/>
<feComposite in2="hardAlpha" operator="out"/>
<feColorMatrix type="matrix" values="0 0 0 0 0 0 0 0 0 0 0 0 0 0 0 0 0 0 0.25 0"/>
<feBlend mode="normal" in2="BackgroundImageFix" result="effect1_dropShadow_3137_4784"/>
<feBlend mode="normal" in="SourceGraphic" in2="effect1_dropShadow_3137_4784" result="shape"/>
</filter>
</defs>
</svg>
