<svg width="60" height="60" viewBox="0 0 60 60" fill="none" xmlns="http://www.w3.org/2000/svg">
<rect width="60" height="60" rx="12" fill="#F5F5F5"/>
<path d="M46.9598 32.1539L17.056 46.0258H46.9598V32.1539ZM48.0966 30.3733V47.1627H11.9038L48.0966 30.3733Z" fill="#737373"/>
<path d="M22.0497 17.9133C23.2944 17.9133 24.3035 16.9043 24.3035 15.6596C24.3035 14.4148 23.2944 13.4058 22.0497 13.4058C20.805 13.4058 19.7959 14.4148 19.7959 15.6596C19.7959 16.9043 20.805 17.9133 22.0497 17.9133Z" stroke="#737373" stroke-width="1.13684"/>
<path d="M22.0498 18.1345V26.5868H32.3654L36.1863 34.2287L39.2995 33.0926" stroke="#737373" stroke-width="1.13684" stroke-linecap="round" stroke-linejoin="round"/>
<path d="M29.5428 22.3445H22.1184C18.8547 22.3445 15.3369 25.802 15.3369 30.2139C15.3369 34.6258 19.4975 37.4363 23.1259 37.4145C28.3715 37.3861 30.4911 32.4444 30.4911 29.9604" stroke="#737373" stroke-width="1.13684" stroke-linecap="round" stroke-linejoin="round"/>
</svg>
