<svg width="60" height="60" viewBox="0 0 60 60" fill="none" xmlns="http://www.w3.org/2000/svg">
<rect x="0.5" y="0.5" width="59" height="59" rx="11.5" fill="white"/>
<rect x="0.5" y="0.5" width="59" height="59" rx="11.5" stroke="#E5E5E5"/>
<path d="M44.0709 24.4558H31.3857C30.3806 24.4558 29.4168 24.0566 28.7061 23.3459C27.9954 22.6353 27.5962 21.6714 27.5962 20.6664V20.5404C27.6341 20.5404 27.6748 20.5451 27.726 20.5451C28.175 20.5451 28.6056 20.3667 28.9231 20.0492C29.2406 19.7318 29.4189 19.3011 29.4189 18.8521C29.4189 18.4032 29.2406 17.9725 28.9231 17.6551C28.6056 17.3376 28.175 17.1592 27.726 17.1592C27.6824 17.1611 27.6388 17.1611 27.5962 17.1611V16.7821C27.5962 15.7771 27.9954 14.8133 28.7061 14.1026C29.4168 13.3919 30.3806 12.9927 31.3857 12.9927H44.0709C45.076 12.9927 46.0398 13.3919 46.7505 14.1026C47.4612 14.8133 47.8604 15.7771 47.8604 16.7821V17.1611C47.4357 17.1945 47.0392 17.3868 46.75 17.6996C46.4608 18.0125 46.3002 18.4228 46.3002 18.8488C46.3002 19.2749 46.4608 19.6852 46.75 19.998C47.0392 20.3109 47.4357 20.5032 47.8604 20.5366V20.6664C47.8604 21.6714 47.4612 22.6353 46.7505 23.3459C46.0398 24.0566 45.076 24.4558 44.0709 24.4558Z" stroke="#E5E5E5" stroke-width="1.13684" stroke-linecap="round" stroke-linejoin="round"/>
<path d="M42.186 14.2234V23.2151" stroke="#E5E5E5" stroke-width="1.13684" stroke-dasharray="1.89 1.89"/>
<path d="M31.2117 16.7527H39.0843" stroke="#E5E5E5" stroke-width="1.13684"/>
<path d="M31.2117 18.7224H39.0843" stroke="#E5E5E5" stroke-width="1.13684"/>
<path d="M31.2117 20.6909H39.0843" stroke="#E5E5E5" stroke-width="1.13684"/>
<path d="M19.3511 26.1069C20.712 26.1069 21.8152 25.0037 21.8152 23.6428C21.8152 22.2819 20.712 21.1787 19.3511 21.1787C17.9902 21.1787 16.887 22.2819 16.887 23.6428C16.887 25.0037 17.9902 26.1069 19.3511 26.1069Z" stroke="#E5E5E5" stroke-width="1.13684"/>
<path d="M19.3438 26.2952V35.3794H30.4281L34.534 43.6096L37.8776 42.3782" stroke="#E5E5E5" stroke-width="1.13684" stroke-linecap="round" stroke-linejoin="round"/>
<path d="M27.4169 30.8203H19.4244C15.9191 30.8203 12.1396 34.5274 12.1396 39.268C12.1396 44.0086 16.6262 47.025 20.5142 47.007C26.1463 46.97 28.4364 41.6653 28.4364 39.0136" stroke="#E5E5E5" stroke-width="1.13684" stroke-linecap="round" stroke-linejoin="round"/>
</svg>
