<svg width="60" height="60" viewBox="0 0 60 60" fill="none" xmlns="http://www.w3.org/2000/svg">
<rect x="0.5" y="0.5" width="59" height="59" rx="11.5" fill="white"/>
<rect x="0.5" y="0.5" width="59" height="59" rx="11.5" stroke="#E5E5E5"/>
<path d="M29.9997 47.3979C39.6083 47.3979 47.3977 39.6086 47.3977 30C47.3977 20.3914 39.6083 12.6021 29.9997 12.6021C20.3911 12.6021 12.6018 20.3914 12.6018 30C12.6018 39.6086 20.3911 47.3979 29.9997 47.3979Z" stroke="#E5E5E5" stroke-width="1.20415"/>
<path d="M30.0782 21.0391C30.4858 21.0391 30.8843 21.1599 31.2233 21.3864C31.5622 21.6129 31.8264 21.9348 31.9824 22.3114C32.1384 22.688 32.1792 23.1024 32.0997 23.5023C32.0202 23.9021 31.8239 24.2693 31.5356 24.5576C31.2474 24.8458 30.8801 25.0421 30.4803 25.1217C30.0805 25.2012 29.6661 25.1604 29.2894 25.0044C28.9128 24.8484 28.5909 24.5842 28.3644 24.2452C28.138 23.9063 28.0171 23.5078 28.0171 23.1002C28.0171 22.5535 28.2342 22.0293 28.6208 21.6427C29.0073 21.2562 29.5316 21.0391 30.0782 21.0391Z" fill="#E5E5E5"/>
<path d="M31.554 29.2926C31.554 28.4242 30.8502 27.7202 29.9821 27.7202C29.1139 27.7202 28.4102 28.4242 28.4102 29.2926V38.3308C28.4102 39.1992 29.1139 39.9032 29.9821 39.9032C30.8502 39.9032 31.554 39.1992 31.554 38.3308V29.2926Z" fill="#E5E5E5"/>
</svg>
