<svg width="60" height="60" viewBox="0 0 60 60" fill="none" xmlns="http://www.w3.org/2000/svg">
<rect x="0.5" y="0.5" width="59" height="59" rx="11.5" fill="white"/>
<rect x="0.5" y="0.5" width="59" height="59" rx="11.5" stroke="#E5E5E5"/>
<path d="M37.8567 30.5296C42.8494 30.5296 46.8967 26.4823 46.8967 21.4897C46.8967 16.497 42.8494 12.4497 37.8567 12.4497C32.864 12.4497 28.8167 16.497 28.8167 21.4897C28.8167 26.4823 32.864 30.5296 37.8567 30.5296Z" stroke="#E5E5E5" stroke-width="1.23273"/>
<path d="M37.8261 16.7053C38.0431 16.7053 38.2552 16.7697 38.4357 16.8902C38.6161 17.0108 38.7567 17.1821 38.8398 17.3826C38.9228 17.5831 38.9445 17.8037 38.9022 18.0165C38.8599 18.2293 38.7554 18.4248 38.6019 18.5782C38.4485 18.7317 38.253 18.8362 38.0402 18.8785C37.8274 18.9208 37.6068 18.8991 37.4063 18.8161C37.2058 18.733 37.0345 18.5924 36.9139 18.412C36.7933 18.2316 36.729 18.0194 36.729 17.8024C36.729 17.5115 36.8446 17.2324 37.0503 17.0267C37.2561 16.8209 37.5352 16.7053 37.8261 16.7053Z" fill="#E5E5E5"/>
<path d="M38.6129 21.0999C38.6129 20.6375 38.2381 20.2627 37.7757 20.2627C37.3133 20.2627 36.9385 20.6375 36.9385 21.0999V25.9127C36.9385 26.3751 37.3133 26.7499 37.7757 26.7499C38.2381 26.7499 38.6129 26.3751 38.6129 25.9127V21.0999Z" fill="#E5E5E5"/>
<path d="M19.2874 25.077C20.7438 25.077 21.9244 23.8963 21.9244 22.44C21.9244 20.9836 20.7438 19.803 19.2874 19.803C17.831 19.803 16.6504 20.9836 16.6504 22.44C16.6504 23.8963 17.831 25.077 19.2874 25.077Z" stroke="#E5E5E5" stroke-width="1.23273" stroke-linecap="round"/>
<mask id="mask0_2008_2797" style="mask-type:luminance" maskUnits="userSpaceOnUse" x="12" y="23" width="15" height="14">
<path d="M26.0895 23.9182H12.4863V36.9296H26.0895V23.9182Z" fill="white"/>
</mask>
<g mask="url(#mask0_2008_2797)">
<path d="M24.8811 32.4941C24.8811 29.4049 22.3768 26.9006 19.2876 26.9006C16.1984 26.9006 13.6941 29.4049 13.6941 32.4941V39.5915C13.6941 42.6807 16.1984 45.185 19.2876 45.185C22.3768 45.185 24.8811 42.6807 24.8811 39.5915V32.4941Z" stroke="#E5E5E5" stroke-width="1.23273" stroke-linecap="round"/>
</g>
<mask id="mask1_2008_2797" style="mask-type:luminance" maskUnits="userSpaceOnUse" x="14" y="36" width="10" height="13">
<path d="M23.7234 36.9294H14.8518V48.1667H23.7234V36.9294Z" fill="white"/>
</mask>
<g mask="url(#mask1_2008_2797)">
<path d="M22.516 33.9436H16.0596V50.5073H22.516V33.9436Z" stroke="#E5E5E5" stroke-width="1.23273" stroke-linecap="round"/>
</g>
</svg>
