<svg width="28" height="28" viewBox="0 0 28 28" fill="none" xmlns="http://www.w3.org/2000/svg">
<path d="M6.36639 7.56949C6.94279 5.84194 9.21167 2.39453 13.6668 2.39453C19.2381 2.39453 22.4358 7.35787 21.4592 12.0038C20.6148 16.0322 18.2156 17.4365 17.1583 18.3965C15.6126 19.8009 15.6126 20.9455 15.0528 22.7981C14.7278 23.8696 13.6026 25.3971 12.0313 25.5876C10.8931 25.7222 9.52557 25.1547 8.05888 23.2021" stroke="#404040" stroke-width="1.5" stroke-linecap="round" stroke-linejoin="round"/>
<path d="M9.68158 10.0824C10.0157 9.21667 11.2052 7.53145 13.2978 7.69689C15.3905 7.86041 17.1858 10.0824 16.446 12.1408C15.7044 14.2031 14.726 13.5644 13.8357 14.9495C12.9454 16.3366 13.2776 19.1183 11.297 19.5339C10.0634 19.7917 9.41357 19.0491 9.41357 19.0491" stroke="#404040" stroke-width="1.5" stroke-linecap="round" stroke-linejoin="round"/>
</svg>
