<svg width="60" height="60" viewBox="0 0 60 60" fill="none" xmlns="http://www.w3.org/2000/svg">
<rect x="0.5" y="0.5" width="59" height="59" rx="11.5" fill="white"/>
<rect x="0.5" y="0.5" width="59" height="59" rx="11.5" stroke="#384056"/>
<path d="M44.625 34.0412V30.5625C44.7862 22.7017 37.8622 15.7749 29.9999 15.9376C22.1384 15.7757 15.2131 22.7012 15.3751 30.5626C15.375 30.5625 15.375 34.0412 15.375 34.0412C14.7217 34.2741 14.25 34.8927 14.25 35.625V40.125C14.25 41.0555 15.007 41.8125 15.9375 41.8125H17.625C17.625 43.0534 18.6344 44.0625 19.875 44.0625C21.1156 44.0625 22.125 43.0534 22.125 41.8125V33.9375C22.0332 30.9644 17.7171 30.9653 17.625 33.9375C17.625 33.9375 16.5 33.9375 16.5 33.9375V30.5625C16.5 27.145 17.7633 23.9223 20.0659 21.424C20.7278 22.1736 21.5857 22.8253 22.59 22.7869C23.1371 22.7869 23.6834 22.6232 24.1544 22.2898C25.865 21.078 27.8865 20.4375 30 20.4375C32.1135 20.4375 34.135 21.078 35.8456 22.2892C36.9381 23.0643 38.4367 22.9204 39.4092 21.9487L39.9341 21.424C42.2367 23.9223 43.5 27.145 43.5 30.5625V33.9375H42.375C42.2765 30.9599 37.9698 30.9672 37.875 33.9375C37.875 33.9375 37.875 41.8125 37.875 41.8125C37.9629 44.7771 42.281 44.7921 42.375 41.8124C42.375 41.8125 44.0625 41.8125 44.0625 41.8125C44.993 41.8125 45.75 41.0555 45.75 40.125V35.625C45.75 34.8927 45.2783 34.2741 44.625 34.0412ZM18.1875 35.0625C18.4981 35.0625 18.75 34.8109 18.75 34.5V33.9375C18.7874 32.4566 20.9613 32.4525 21 33.9375C21 33.9375 21 41.8125 21 41.8125C20.9614 43.2938 18.7895 43.2977 18.75 41.8125V37.3125C18.7376 36.5732 17.6373 36.5731 17.625 37.3125C17.625 37.3125 17.625 40.6875 17.625 40.6875H15.9375C15.6274 40.6875 15.375 40.4354 15.375 40.125V35.625C15.375 35.3146 15.6274 35.0625 15.9375 35.0625H18.1875ZM38.6138 21.1533C38.0403 21.7268 37.1299 21.8212 36.4959 21.3713C32.734 18.6371 27.2658 18.6368 23.5041 21.3719C22.8699 21.8207 21.9599 21.7268 21.3862 21.1533L20.8613 20.6285C25.7877 15.9044 34.2124 15.9045 39.1387 20.6287C39.1387 20.6285 38.6138 21.1533 38.6138 21.1533ZM44.625 40.125C44.625 40.4354 44.3726 40.6875 44.0625 40.6875H41.8125C41.5019 40.6875 41.25 40.9391 41.25 41.25V41.8125C41.2126 43.2934 39.0387 43.2975 39 41.8125V33.9375C39.0386 32.4562 41.2105 32.4523 41.25 33.9375C41.25 33.9375 41.25 38.4375 41.25 38.4375C41.2624 39.1768 42.3627 39.1769 42.375 38.4375V35.0625H44.0625C44.3726 35.0625 44.625 35.3146 44.625 35.625V40.125Z" fill="#384056"/>
<path d="M30.5625 33.375V26.625C30.5625 26.3141 30.3106 26.0625 30 26.0625C29.6894 26.0625 29.4375 26.3141 29.4375 26.625V33.375C29.4493 34.1123 30.55 34.116 30.5625 33.375Z" fill="#384056"/>
<path d="M33.375 32.0814V27.9187C33.363 27.1805 32.2625 27.1784 32.25 27.9187V32.0814C32.262 32.8196 33.3625 32.8218 33.375 32.0814Z" fill="#384056"/>
<path d="M36.1875 31.125V28.875C36.1753 28.1363 35.0749 28.1352 35.0625 28.8751V31.125C35.0747 31.8638 36.1751 31.8649 36.1875 31.125Z" fill="#384056"/>
<path d="M27.75 32.0814V27.9187C27.738 27.1805 26.6375 27.1784 26.625 27.9187V32.0814C26.637 32.8196 27.7375 32.8218 27.75 32.0814Z" fill="#384056"/>
<path d="M24.9375 31.125V28.875C24.9253 28.1363 23.8249 28.1352 23.8125 28.8751V31.125C23.8247 31.8638 24.9251 31.8649 24.9375 31.125Z" fill="#384056"/>
</svg>
