<svg width="60" height="60" viewBox="0 0 60 60" fill="none" xmlns="http://www.w3.org/2000/svg">
<rect width="60" height="60" rx="12" fill="#F5F5F5"/>
<path d="M45.8822 14.647H14.1175C13.2404 14.647 12.5293 15.358 12.5293 16.2352V43.7646C12.5293 44.6418 13.2404 45.3529 14.1175 45.3529H45.8822C46.7594 45.3529 47.4705 44.6418 47.4705 43.7646V16.2352C47.4705 15.358 46.7594 14.647 45.8822 14.647Z" stroke="#737373" stroke-width="1.05882"/>
<path d="M32.8235 22.7646H15.8824C15.395 22.7646 15 23.1597 15 23.647V41.9999C15 42.4873 15.395 42.8823 15.8824 42.8823H32.8235C33.3108 42.8823 33.7059 42.4873 33.7059 41.9999V23.647C33.7059 23.1597 33.3108 22.7646 32.8235 22.7646Z" stroke="#737373" stroke-width="1.05882"/>
<path d="M12 20.333H47.2914" stroke="#737373" stroke-width="1.05882"/>
<path d="M22.0586 41.2942C22.5459 41.2942 22.941 40.8992 22.941 40.4119C22.941 39.9246 22.5459 39.5295 22.0586 39.5295C21.5713 39.5295 21.1763 39.9246 21.1763 40.4119C21.1763 40.8992 21.5713 41.2942 22.0586 41.2942Z" fill="#737373"/>
<path d="M30.5293 41.2942C31.0166 41.2942 31.4117 40.8992 31.4117 40.4119C31.4117 39.9246 31.0166 39.5295 30.5293 39.5295C30.042 39.5295 29.647 39.9246 29.647 40.4119C29.647 40.8992 30.042 41.2942 30.5293 41.2942Z" fill="#737373"/>
<path d="M17.8238 38.4705C18.3111 38.4705 18.7061 38.0755 18.7061 37.5882C18.7061 37.1009 18.3111 36.7058 17.8238 36.7058C17.3364 36.7058 16.9414 37.1009 16.9414 37.5882C16.9414 38.0755 17.3364 38.4705 17.8238 38.4705Z" fill="#737373"/>
<path d="M24.8824 38.4705C25.3697 38.4705 25.7647 38.0755 25.7647 37.5882C25.7647 37.1009 25.3697 36.7058 24.8824 36.7058C24.395 36.7058 24 37.1009 24 37.5882C24 38.0755 24.395 38.4705 24.8824 38.4705Z" fill="#737373"/>
<path d="M22.0586 38.4705C22.5459 38.4705 22.941 38.0755 22.941 37.5882C22.941 37.1009 22.5459 36.7058 22.0586 36.7058C21.5713 36.7058 21.1763 37.1009 21.1763 37.5882C21.1763 38.0755 21.5713 38.4705 22.0586 38.4705Z" fill="#737373"/>
<path d="M30.5293 38.4705C31.0166 38.4705 31.4117 38.0755 31.4117 37.5882C31.4117 37.1009 31.0166 36.7058 30.5293 36.7058C30.042 36.7058 29.647 37.1009 29.647 37.5882C29.647 38.0755 30.042 38.4705 30.5293 38.4705Z" fill="#737373"/>
</svg>
