<svg width="46" height="46" viewBox="0 0 46 46" fill="none" xmlns="http://www.w3.org/2000/svg">
<g filter="url(#filter0_d_2735_5308)">
<circle cx="23" cy="23" r="19" fill="#384056"/>
</g>
<path d="M29.3901 22.8054L29.3971 22.7981L29.4038 22.7906C29.6845 22.4787 30.0747 22.2873 30.493 22.2563C30.9071 22.2257 31.3171 22.3545 31.6391 22.6163C31.819 22.7778 31.9653 22.9733 32.0697 23.1915C32.176 23.4137 32.2366 23.6549 32.248 23.9008C32.2594 24.1468 32.2214 24.3926 32.1361 24.6236C32.0511 24.8538 31.9211 25.0646 31.7535 25.2438L28.4992 28.6579L25.2453 25.2441C25.078 25.0648 24.9482 24.8539 24.8635 24.6238C24.7784 24.3927 24.7405 24.1469 24.752 23.9009C24.7636 23.6549 24.8243 23.4137 24.9306 23.1915C25.0351 22.9732 25.1816 22.7776 25.3617 22.616C25.6839 22.3532 26.0947 22.2238 26.5095 22.2544C26.9285 22.2854 27.3193 22.4773 27.6 22.79L27.607 22.7978L27.6142 22.8054L27.9583 23.1678L28.5022 23.7404L29.046 23.1678L29.3901 22.8054Z" fill="#FFE97B" stroke="#FFE97B" stroke-width="1.5"/>
<path d="M15 18H31" stroke="#FFE97B" stroke-width="1.5" stroke-linecap="round"/>
<path d="M15 23.5H21" stroke="#FFE97B" stroke-width="1.5" stroke-linecap="round"/>
<path d="M15 29H23" stroke="#FFE97B" stroke-width="1.5" stroke-linecap="round"/>
<defs>
<filter id="filter0_d_2735_5308" x="0" y="0" width="46" height="46" filterUnits="userSpaceOnUse" color-interpolation-filters="sRGB">
<feFlood flood-opacity="0" result="BackgroundImageFix"/>
<feColorMatrix in="SourceAlpha" type="matrix" values="0 0 0 0 0 0 0 0 0 0 0 0 0 0 0 0 0 0 127 0" result="hardAlpha"/>
<feOffset/>
<feGaussianBlur stdDeviation="2"/>
<feComposite in2="hardAlpha" operator="out"/>
<feColorMatrix type="matrix" values="0 0 0 0 0 0 0 0 0 0 0 0 0 0 0 0 0 0 0.25 0"/>
<feBlend mode="normal" in2="BackgroundImageFix" result="effect1_dropShadow_2735_5308"/>
<feBlend mode="normal" in="SourceGraphic" in2="effect1_dropShadow_2735_5308" result="shape"/>
</filter>
</defs>
</svg>
