<svg width="22" height="22" viewBox="0 0 22 22" fill="none" xmlns="http://www.w3.org/2000/svg">
<g id="icon-star">
<path id="Vector" d="M7.44808 7.08704L1.59975 7.98753L1.49616 8.00992C1.33936 8.05413 1.19641 8.14174 1.08192 8.26381C0.967421 8.38588 0.885484 8.53803 0.844471 8.70473C0.803458 8.87143 0.804839 9.04671 0.848473 9.21266C0.892106 9.3786 0.976429 9.52928 1.09283 9.6493L5.32966 14.0291L4.3305 20.2157L4.31858 20.3228C4.30898 20.495 4.34266 20.6669 4.41616 20.8208C4.48966 20.9746 4.60035 21.105 4.73689 21.1985C4.87343 21.292 5.03091 21.3453 5.19322 21.3529C5.35552 21.3605 5.51681 21.3222 5.66058 21.2418L10.8911 18.3213L16.1097 21.2418L16.2013 21.2866C16.3526 21.3499 16.5171 21.3693 16.6778 21.3428C16.8385 21.3163 16.9896 21.2449 17.1158 21.1359C17.2419 21.0269 17.3385 20.8843 17.3956 20.7226C17.4527 20.5609 17.4682 20.3859 17.4407 20.2157L16.4406 14.0291L20.6792 9.64833L20.7507 9.56558C20.8529 9.43198 20.9199 9.27202 20.9448 9.10199C20.9698 8.93196 20.9519 8.75794 20.8929 8.59765C20.8339 8.43737 20.736 8.29655 20.6091 8.18954C20.4822 8.08254 20.3309 8.01317 20.1705 7.9885L14.3222 7.08704L11.7078 1.46018C11.6322 1.29715 11.5151 1.15987 11.3698 1.06387C11.2244 0.967871 11.0567 0.916992 10.8856 0.916992C10.7144 0.916992 10.5467 0.967871 10.4014 1.06387C10.2561 1.15987 10.139 1.29715 10.0633 1.46018L7.44808 7.08704Z" fill="url(#paint0_linear_2106_13613)"/>
</g>
<defs>
<linearGradient id="paint0_linear_2106_13613" x1="0.814697" y1="11.1356" x2="20.9558" y2="11.1356" gradientUnits="userSpaceOnUse">
<stop offset="1" stop-color="#E5E5E5"/>
</linearGradient>
</defs>
</svg>
