<svg width="65" height="65" viewBox="0 0 65 65" fill="none" xmlns="http://www.w3.org/2000/svg">
<g clip-path="url(#clip0_2714_5943)">
<path d="M56.9796 13.3199L56.9828 13.3238C57.4005 13.8493 57.7624 14.3174 58.123 14.8332L58.1261 14.8375C59.3103 16.4938 60.2951 18.3144 61.1284 20.2426C62.6821 23.9932 63.5631 28.1074 63.5631 32.4311C63.5631 35.8652 62.9955 39.1996 61.9546 42.3246C57.8616 54.5612 46.2995 63.3571 32.779 63.3571C19.259 63.3571 7.64605 54.5059 3.55287 42.2689C2.981 40.5566 2.56787 38.7884 2.30886 36.9636C2.0997 35.4535 2 33.9427 2 32.4311C2 30.1948 2.25848 28.0041 2.67287 25.9183C5.62662 11.964 18.0146 1.5 32.779 1.5C42.6267 1.5 51.3834 6.13246 56.9796 13.3199Z" fill="#F5F5F5" stroke="#D4D4D4" stroke-miterlimit="10"/>
<path d="M35.7093 45.3953C35.7093 45.9105 35.5565 46.4141 35.2703 46.8424C34.9841 47.2707 34.5773 47.6046 34.1014 47.8017C33.6255 47.9989 33.1018 48.0505 32.5965 47.95C32.0913 47.8495 31.6272 47.6014 31.2629 47.2371C30.8986 46.8728 30.6505 46.4087 30.55 45.9035C30.4495 45.3982 30.5011 44.8745 30.6983 44.3986C30.8954 43.9227 31.2293 43.5159 31.6576 43.2297C32.0859 42.9435 32.5895 42.7907 33.1047 42.7907C33.7954 42.7907 34.458 43.0651 34.9464 43.5536C35.4349 44.042 35.7093 44.7046 35.7093 45.3953ZM33.1047 37.5814C33.4007 37.5814 33.6846 37.4638 33.894 37.2544C34.1033 37.0451 34.2209 36.7612 34.2209 36.4651V17.1163C34.2209 16.8202 34.1033 16.5363 33.894 16.327C33.6846 16.1176 33.4007 16 33.1047 16C32.8086 16 32.5247 16.1176 32.3153 16.327C32.106 16.5363 31.9884 16.8202 31.9884 17.1163V36.4651C31.9884 36.7612 32.106 37.0451 32.3153 37.2544C32.5247 37.4638 32.8086 37.5814 33.1047 37.5814Z" fill="#D4D4D4"/>
</g>
<defs>
<clipPath id="clip0_2714_5943">
<rect width="64" height="64.5079" fill="white" transform="translate(0.5)"/>
</clipPath>
</defs>
</svg>
