<svg width="32" height="32" viewBox="0 0 32 32" fill="none" xmlns="http://www.w3.org/2000/svg">
<g id="icon-star">
<path id="Vector" d="M10.8334 10.3086L2.32671 11.6184L2.17604 11.651C1.94796 11.7153 1.74003 11.8427 1.5735 12.0203C1.40696 12.1978 1.28778 12.4191 1.22812 12.6616C1.16847 12.9041 1.17048 13.159 1.23394 13.4004C1.29741 13.6418 1.42006 13.861 1.58937 14.0355L7.75204 20.4061L6.29871 29.4049L6.28137 29.5606C6.26741 29.8111 6.31639 30.0611 6.42331 30.2849C6.53022 30.5087 6.69122 30.6983 6.88982 30.8343C7.08842 30.9703 7.31749 31.0478 7.55357 31.0589C7.78965 31.07 8.02426 31.0142 8.23337 30.8973L15.8414 26.6493L23.432 30.8973L23.5654 30.9625C23.7855 31.0545 24.0246 31.0828 24.2584 31.0443C24.4921 31.0058 24.712 30.9019 24.8955 30.7434C25.079 30.5848 25.2194 30.3773 25.3025 30.1421C25.3855 29.9069 25.4082 29.6524 25.368 29.4049L23.9134 20.4061L30.0787 14.0341L30.1827 13.9137C30.3313 13.7194 30.4287 13.4868 30.465 13.2394C30.5013 12.9921 30.4753 12.739 30.3895 12.5059C30.3037 12.2727 30.1613 12.0679 29.9767 11.9122C29.7921 11.7566 29.572 11.6557 29.3387 11.6198L20.832 10.3086L17.0294 2.12407C16.9193 1.88694 16.749 1.68726 16.5376 1.54762C16.3263 1.40799 16.0823 1.33398 15.8334 1.33398C15.5844 1.33398 15.3405 1.40799 15.1291 1.54762C14.9178 1.68726 14.7474 1.88694 14.6374 2.12407L10.8334 10.3086Z" fill="#E5E5E5"/>
</g>
</svg>
