<svg width="60" height="60" viewBox="0 0 60 60" fill="none" xmlns="http://www.w3.org/2000/svg">
<rect width="60" height="60" rx="12" fill="#F5F5F5"/>
<path d="M47.3066 36.3957C46.3879 34.7981 45.12 32.8951 45.0977 30.9965C45.133 30.0821 45.588 27.0559 45.408 26.2027C45.2467 25.3833 44.22 20.4953 43.9075 19.6997L42.3192 16.3877C42.0442 15.821 41.4588 15.4553 40.8288 15.4553C39.6401 15.4272 38.7934 16.7743 39.3398 17.832L39.5242 18.2179L36.3403 15.7937C35.989 15.5258 35.5541 15.4113 35.1156 15.4704C34.3128 15.5647 33.6691 16.3027 33.6821 17.1098C33.6821 17.6318 33.9197 18.1121 34.3344 18.4274C34.5641 18.6348 37.9121 21.059 37.943 21.2829C36.5952 20.6961 33.4416 20.0769 31.9829 19.7285C30.9835 19.4721 29.9302 20.3117 29.9575 21.3434C29.9575 22.1196 30.4867 22.7834 31.2442 22.9562C31.363 23.0023 35.567 23.9009 35.5267 23.975L36.3367 24.3717L35.6664 24.2551C35.2596 24.1205 32.8613 24.7037 32.4149 24.7526C31.8086 24.8657 31.2823 25.2897 30.972 25.9154L30.1361 27.6002C29.73 28.4203 29.9539 29.4686 30.6552 29.9611C29.5738 31.2535 30.6257 32.4609 31.1779 33.69C31.5178 34.3754 32.093 34.8398 32.7554 34.9637C33.1435 35.0745 35.1235 35.3085 35.4158 35.5706L38.7883 37.7832C39.0742 37.9704 39.3139 38.2555 39.4824 38.6069L40.0526 39.7941C40.1268 39.9489 40.2816 40.0389 40.4422 40.0389C40.7503 40.0425 40.9735 39.6991 40.831 39.4197L40.2607 38.2325C40.0238 37.7393 39.679 37.3339 39.2614 37.0603C38.6738 36.7493 35.7182 34.5475 35.0918 34.5223L32.9138 34.1141C32.5207 34.0406 32.1694 33.7454 31.9512 33.3055L31.1621 31.7157C30.9245 31.2621 31.0742 30.4773 31.6027 30.3614C32.4682 30.2469 32.2291 32.2017 34.0399 32.5697C36.0379 32.957 35.8406 33.0672 37.3037 31.6034C37.5514 31.3637 37.6932 31.0109 37.6932 30.6357V28.9891C37.6932 28.529 37.4765 28.1042 37.1273 27.881L35.7974 27.0329C35.5786 26.8932 35.3208 26.8428 35.0731 26.8889C33.96 27.12 32.8375 27.0768 32.2558 28.3094C32.0909 28.6017 31.8634 29.3311 31.4666 29.3405C30.8554 29.3498 30.6473 28.4981 30.9086 27.984L31.7446 26.2992C31.9332 25.919 32.2349 25.6641 32.5726 25.6015L35.2034 25.1076C35.3172 24.9895 38.9863 25.7484 39.1778 25.7426C39.5659 25.8189 39.8446 25.3301 39.5796 25.0356C39.5414 24.9917 39.4946 24.9557 39.4421 24.929L35.9076 23.1989C35.7564 23.0484 31.7402 22.1995 31.4364 22.1131C30.4262 21.8618 30.7639 20.3599 31.7899 20.5701C32.6957 20.8265 35.9825 21.4471 36.7968 21.7898L39.0158 22.584L40.3162 24.1615C40.4018 24.2652 40.525 24.3185 40.6495 24.3185C41.0002 24.3285 41.2198 23.88 40.9829 23.6114C40.7539 23.3681 38.316 20.285 38.0964 20.2058L34.8571 17.7384C34.513 17.4878 34.4417 16.9637 34.7074 16.6296C34.9579 16.2861 35.4835 16.2149 35.8162 16.4791L39.2801 19.1172C39.4478 19.2079 40.6574 20.7444 40.813 20.9136C40.8886 20.9201 41.6201 24.4193 41.6683 24.5546C41.7209 24.7872 41.952 24.9333 42.1846 24.8808C42.4171 24.8282 42.5633 24.5971 42.5107 24.3645L41.759 21.0302C41.7266 20.6796 40.273 17.8356 40.116 17.4554C39.6826 16.5129 41.0585 15.8325 41.5387 16.7621L43.127 20.0748C43.3474 20.6781 44.4468 25.7405 44.5498 26.3229C44.7089 27.0631 44.2488 30.2232 44.2301 31.0137C44.2495 33.0693 45.5462 35.1084 46.5542 36.8256C46.8358 37.308 47.5846 36.8918 47.3038 36.3957H47.3066ZM32.7094 29.3455C32.9635 28.8278 33.2472 28.0826 33.8606 27.9955C33.8952 28.0005 35.3489 27.6773 35.3359 27.7608L36.665 28.6089C36.7486 28.6622 36.8321 28.7997 36.8321 28.9884V30.635C36.8321 30.7733 36.7831 30.9065 36.7039 30.9828L35.832 31.8317C35.7643 31.9094 35.5894 32.0023 35.4439 31.9519L34.2012 31.7193C33.1529 31.5257 33.2018 30.2505 32.443 29.7365C32.5466 29.6227 32.6366 29.4917 32.7094 29.3448V29.3455Z" fill="#737373"/>
<path d="M25.0348 35.7342L27.5058 35.3072C28.1121 35.1942 28.6384 34.7701 28.9494 34.1444C29.1913 33.5583 30.0481 32.2472 29.9855 31.5877C29.9841 30.975 29.7191 30.4177 29.2655 30.0987C30.3426 28.8646 29.2943 27.565 28.7428 26.3691C28.4029 25.6844 27.8277 25.2207 27.166 25.0962C26.7765 24.9882 24.8 24.7484 24.5048 24.4892L21.1316 22.2752C20.8465 22.0887 20.6068 21.8043 20.4383 21.4515L19.868 20.265C19.6175 19.7602 18.85 20.121 19.089 20.6394C19.4684 21.409 19.894 22.5654 20.6586 22.9981C21.2317 23.307 24.2111 25.5138 24.8281 25.5361L27.0061 25.945C27.3993 26.0185 27.7506 26.313 27.9688 26.7529L28.7579 28.3441C28.9638 28.7588 28.8752 29.311 28.5664 29.5746C28.5246 29.5933 28.4404 29.6307 28.2733 29.7027C27.4453 29.7308 27.6714 27.8617 25.88 27.4894C23.8856 27.1006 24.0772 26.9934 22.6148 28.4564C22.3679 28.6969 22.2268 29.049 22.2268 29.4234V31.07C22.2268 31.5301 22.4435 31.9549 22.7927 32.1781L24.1204 33.0248C24.3392 33.1659 24.5977 33.217 24.8461 33.1702L26.2206 32.9125C27.8744 32.5683 27.6743 30.8389 28.4541 30.7186C28.881 30.6978 29.1179 31.1593 29.1208 31.5877C29.1805 31.9585 28.3057 33.4158 28.1747 33.7599C27.986 34.1401 27.6844 34.395 27.3524 34.4569L24.8872 34.8831C24.4033 35.0005 23.296 34.904 22.7941 34.9098C22.3132 34.9234 21.7775 34.8694 21.4384 34.4864L19.6096 32.6036C19.4432 32.4322 19.1696 32.4286 18.999 32.595C18.8276 32.7613 18.824 33.0349 18.9904 33.2055L20.8192 35.0883C21.2915 35.5887 21.9654 35.7968 22.6422 35.7702L23.7582 36.5794C24.0527 36.8336 24.4077 37.0136 24.7849 37.0993L28.4836 37.9446C29.4649 38.1836 29.1849 39.697 28.1668 39.4962C27.7866 39.3939 23.6617 38.5134 23.4313 38.3629C23.2571 38.2916 20.5369 37.1691 20.4743 37.1432C19.3403 36.7616 18.5641 35.3936 17.8931 34.4886C17.5568 34.0357 16.8656 34.526 17.1925 34.994L18.2279 36.4282C18.7564 37.1691 19.5088 37.7142 20.3591 38.0302C20.619 38.3535 21.483 39.6416 21.8243 39.8511L25.0636 42.3178C25.232 42.446 25.34 42.6318 25.3681 42.8413C25.4819 43.5138 24.6352 44.0127 24.1045 43.5771L20.6406 40.9398C20.5506 40.8706 20.4707 40.7936 20.4001 40.7079C20.0416 40.2198 17.852 37.7725 17.672 37.2426L17.3444 36.5305C17.1011 36.0207 16.33 36.3699 16.5596 36.8919L16.8872 37.604C17.1306 38.2203 17.9644 39.0872 18.3712 39.6092L19.804 42.6015C20.236 43.5469 18.8615 44.2251 18.3812 43.2963L16.7929 39.9836C16.5733 39.3795 15.4732 34.3186 15.3702 33.7354C15.219 33.05 15.6546 29.851 15.6892 29.1102C15.7007 27.0286 14.3831 24.9687 13.3664 23.2321C13.0806 22.7511 12.3404 23.1572 12.6169 23.6619L13.8496 25.8111C14.4169 26.8004 14.7546 27.9243 14.8259 29.0619C14.7884 29.967 14.337 33.009 14.5148 33.8557C14.6768 34.6786 15.7028 39.5602 16.0153 40.3587L17.6036 43.6707C18.819 45.7681 21.7472 43.9983 20.3987 41.8412L23.5818 44.264C23.8727 44.4858 24.219 44.6031 24.5841 44.6031C25.5597 44.6276 26.3783 43.6873 26.2256 42.7254C26.1666 42.2869 25.9398 41.8981 25.5877 41.6302C25.2565 41.3293 22.0187 39.0534 21.9143 38.671L23.103 39.1614C23.4688 39.3644 27.482 40.2061 27.9745 40.3378C28.8256 40.5546 29.7616 39.9548 29.9207 39.0908C30.1252 38.198 29.5672 37.3059 28.6772 37.1014L24.9779 36.2562C24.6647 36.1971 24.4098 35.9962 24.1636 35.8047C24.4566 35.8062 24.7504 35.7824 25.0355 35.7327L25.0348 35.7342ZM27.2128 30.7136C26.9586 31.2313 26.6742 31.9765 26.0615 32.0636C26.0248 32.0586 24.5747 32.3826 24.5862 32.2976L23.2571 31.4502C23.1736 31.3969 23.09 31.2586 23.09 31.0707V29.4241C23.09 29.2858 23.139 29.1526 23.2168 29.0763L24.0894 28.2274C24.1564 28.1475 24.3414 28.0582 24.4775 28.1065L25.7202 28.3398C26.7729 28.537 26.7145 29.8057 27.4799 30.3205C27.3755 30.4342 27.2848 30.5667 27.2121 30.7136H27.2128Z" fill="#737373"/>
</svg>
