<svg width="60" height="60" viewBox="0 0 60 60" fill="none" xmlns="http://www.w3.org/2000/svg">
<rect x="0.5" y="0.5" width="59" height="59" rx="11.5" fill="white"/>
<rect x="0.5" y="0.5" width="59" height="59" rx="11.5" stroke="#E5E5E5"/>
<path d="M30.1038 44.4692C23.2845 44.4692 17.4345 39.7961 15.9461 33.2538C15.7384 33.2885 15.5307 33.3231 15.323 33.3231C13.5576 33.3231 12.1038 31.9038 12.1038 30.1038C12.1038 28.3038 13.523 26.8846 15.2884 26.8846C15.4961 26.8846 15.6691 26.9192 15.8768 26.9538C17.2961 20.3077 23.1807 15.5308 30.0691 15.5308C36.9576 15.5308 42.8422 20.2731 44.2615 26.9192C44.3999 26.9192 44.5384 26.8846 44.6422 26.8846C46.4076 26.8846 47.8615 28.3038 47.8615 30.1038C47.8615 31.9038 46.4076 33.3231 44.6422 33.3231C44.5038 33.3231 44.3307 33.3231 44.1922 33.2885C42.7384 39.7961 36.8884 44.4692 30.1038 44.4692ZM16.3961 31.8692C16.4999 31.8692 16.6038 31.9038 16.673 31.9385C16.8461 32.0423 16.9499 32.1808 16.9845 32.3538C18.1268 38.6538 23.6307 43.2577 30.1038 43.2577C36.5076 43.2577 42.0461 38.7231 43.1884 32.4577C43.223 32.2846 43.3268 32.1461 43.4999 32.0423C43.6384 31.9385 43.8461 31.9385 44.0191 32.0077C44.2268 32.0769 44.4691 32.1461 44.7115 32.1461C45.8191 32.1461 46.7191 31.2461 46.7191 30.1385C46.7191 29.0308 45.8191 28.1308 44.7115 28.1308C44.4691 28.1308 44.2615 28.1654 44.0538 28.2346C43.8807 28.3038 43.7076 28.2692 43.5345 28.2C43.3961 28.0961 43.2576 27.9577 43.2576 27.7846C42.1499 21.4154 36.6461 16.7769 30.1384 16.7769C23.5961 16.7769 18.0576 21.4154 16.9845 27.8538C16.9499 28.0269 16.8461 28.2 16.673 28.3038C16.4999 28.4077 16.3268 28.4077 16.1538 28.3385C15.9115 28.2346 15.6345 28.1654 15.3576 28.1654C14.2499 28.1654 13.3499 29.0654 13.3499 30.1731C13.3499 31.2808 14.2499 32.1808 15.3576 32.1808C15.6345 32.1808 15.9461 32.1115 16.1884 32.0077C16.223 31.8692 16.2922 31.8692 16.3961 31.8692Z" fill="#E5E5E5"/>
<path d="M26.3655 28.6153C26.0193 28.6153 25.7424 28.3384 25.7424 27.9923C25.7424 27.2653 25.1539 26.6769 24.427 26.6769C23.7001 26.6769 23.1116 27.2653 23.1116 27.9923C23.1116 28.3384 22.8347 28.6153 22.4886 28.6153C22.1424 28.6153 21.8655 28.3384 21.8655 27.9923C21.8655 26.6076 23.0078 25.4653 24.3924 25.4653C25.777 25.4653 26.9193 26.6076 26.9193 27.9923C26.9886 28.3384 26.7116 28.6153 26.3655 28.6153Z" fill="#E5E5E5"/>
<path d="M37.304 28.6153C36.9578 28.6153 36.6809 28.3384 36.6809 27.9923C36.6809 27.2653 36.0924 26.6769 35.3655 26.6769C34.6386 26.6769 34.0501 27.2653 34.0501 27.9923C34.0501 28.3384 33.7732 28.6153 33.427 28.6153C33.0809 28.6153 32.804 28.3384 32.804 27.9923C32.804 26.6076 33.9463 25.4653 35.3309 25.4653C36.7155 25.4653 37.8578 26.6076 37.8578 27.9923C37.927 28.3384 37.6501 28.6153 37.304 28.6153Z" fill="#E5E5E5"/>
<path d="M29.9308 37.1654C27.4731 37.1654 25.5 35.1577 25.5 32.7C25.5 32.3538 25.7769 32.0769 26.1231 32.0769H33.7731C34.1192 32.0769 34.3962 32.3538 34.3962 32.7C34.3615 35.1577 32.3885 37.1654 29.9308 37.1654ZM26.7462 33.2884C27.0231 34.7769 28.3385 35.9192 29.9308 35.9192C31.5231 35.9192 32.8038 34.7769 33.1154 33.2884H26.7462Z" fill="#E5E5E5"/>
<path d="M30.5192 23.3885C28.8231 23.3885 27.4385 22.0038 27.4385 20.2731C27.4385 18.7846 28.65 17.5731 30.1039 17.5731C31.0039 17.5731 31.8346 18.2654 32.0423 19.1654C32.2154 19.8923 31.9039 20.8961 30.6231 21.4846C30.3116 21.6231 29.9654 21.4846 29.8269 21.1731C29.6885 20.8615 29.8269 20.5154 30.1385 20.3769C30.45 20.2385 30.9692 19.9269 30.8654 19.4077C30.7962 19.0615 30.45 18.7846 30.1039 18.7846C29.3077 18.7846 28.65 19.4423 28.65 20.2731C28.65 21.3115 29.4808 22.1769 30.5192 22.1769C31.8346 22.1769 32.9077 21.1038 32.9077 19.7885C32.9077 18.1269 31.5577 16.7769 29.9308 16.7769C29.5846 16.7769 29.3077 16.5 29.3077 16.1538C29.3077 15.8077 29.5846 15.5308 29.9308 15.5308C32.25 15.5308 34.1192 17.4346 34.1192 19.7538C34.0846 21.7615 32.4923 23.3885 30.5192 23.3885Z" fill="#E5E5E5"/>
</svg>
