<svg width="18" height="18" viewBox="0 0 18 18" fill="none" xmlns="http://www.w3.org/2000/svg">
<path fill-rule="evenodd" clip-rule="evenodd" d="M15.9871 12.5159L13.1396 10.3117C13.002 10.2055 12.8306 10.1532 12.6572 10.1644C12.4838 10.1756 12.3205 10.2496 12.1978 10.3725L10.6863 11.8847C10.5738 11.9984 10.4261 12.0708 10.2673 12.0901C10.1084 12.1095 9.94769 12.0746 9.8111 11.9913C9.32446 11.6929 8.51006 11.1146 7.49098 10.0948C6.4719 9.07646 5.89365 8.26134 5.59523 7.77541C5.51176 7.63893 5.47693 7.47822 5.49643 7.31944C5.51592 7.16065 5.58857 7.01313 5.70257 6.90089L7.21402 5.38873C7.33713 5.26607 7.41119 5.10265 7.42226 4.92921C7.43333 4.75577 7.38065 4.58426 7.27413 4.44694L5.07066 1.59867C4.56971 0.952438 3.62505 0.8501 3.0096 1.39041C2.19877 2.10177 1.22477 3.16736 0.941377 4.36321C0.428258 6.51731 1.23909 9.2203 4.80301 12.7842C8.36693 16.3474 11.0699 17.159 13.2233 16.6466C14.4192 16.3617 15.4855 15.387 16.1968 14.5769C16.7364 13.9615 16.6341 13.0168 15.9871 12.5159Z" fill="#D4D4D4"/>
</svg>
