<svg width="14" height="14" viewBox="0 0 14 14" fill="none" xmlns="http://www.w3.org/2000/svg">
<path d="M6.04827 1.4513C6.34629 0.527215 7.65371 0.527215 7.95173 1.4513L8.7862 4.03875C8.91966 4.4526 9.30527 4.73276 9.74011 4.73181L12.4588 4.72587C13.4297 4.72375 13.8338 5.96717 13.047 6.53617L10.844 8.12936C10.4917 8.38418 10.3444 8.83749 10.4797 9.25075L11.3254 11.8345C11.6275 12.7573 10.5698 13.5258 9.78552 12.9534L7.58955 11.3506C7.23832 11.0942 6.76168 11.0942 6.41045 11.3506L4.21448 12.9534C3.43022 13.5258 2.3725 12.7573 2.67455 11.8345L3.52032 9.25075C3.6556 8.83749 3.50831 8.38418 3.15596 8.12936L0.95301 6.53617C0.166248 5.96717 0.570263 4.72375 1.54121 4.72587L4.25989 4.73181C4.69473 4.73276 5.08034 4.4526 5.2138 4.03875L6.04827 1.4513Z" fill="#FFE047"/>
</svg>
