<svg width="24" height="25" viewBox="0 0 24 25" fill="none" xmlns="http://www.w3.org/2000/svg">
<path fill-rule="evenodd" clip-rule="evenodd" d="M10.904 21.6288C11.57 22.0688 12.429 22.0688 13.094 21.6288C15.209 20.2328 19.814 16.8958 21.798 13.1618C24.413 8.23575 21.342 3.32275 17.282 3.32275C14.968 3.32275 13.576 4.53175 12.806 5.57075C12.7135 5.69801 12.5922 5.80157 12.4521 5.87298C12.3119 5.94438 12.1568 5.98161 11.9995 5.98161C11.8422 5.98161 11.6871 5.94438 11.5469 5.87298C11.4068 5.80157 11.2855 5.69801 11.193 5.57075C10.423 4.53175 9.031 3.32275 6.717 3.32275C2.657 3.32275 -0.414 8.23575 2.202 13.1618C4.184 16.8958 8.791 20.2328 10.904 21.6288Z" fill="#FFE97B"/>
</svg>
