<svg width="65" height="65" viewBox="0 0 65 65" fill="none" xmlns="http://www.w3.org/2000/svg">
<g id="_&#235;&#160;&#136;&#236;&#157;&#180;&#236;&#150;&#180;_1" clip-path="url(#clip0_2734_5743)">
<path id="Vector" d="M63.9942 32.5737C63.9942 36.0632 63.4174 39.4511 62.3599 42.6257C58.2009 55.06 46.4523 63.9997 32.7101 63.9997C18.968 63.9997 7.16884 55.0042 3.00978 42.5699C2.42791 40.8277 2.00796 39.0296 1.74485 37.1756C1.53235 35.6416 1.43115 34.1077 1.43115 32.5737C1.43115 30.2981 1.69426 28.0734 2.11421 25.9604C5.11461 11.7788 17.7031 1.14258 32.7101 1.14258C42.7182 1.14258 51.6182 5.85115 57.3053 13.1553C57.7253 13.6835 58.0946 14.161 58.464 14.6892C59.6732 16.3807 60.675 18.2346 61.52 20.1902C63.0986 23.9997 63.9942 28.18 63.9942 32.5737Z" fill="#F5F5F5" stroke="#D4D4D4" stroke-width="1.01587" stroke-miterlimit="10"/>
<path id="Vector_2" d="M62.3645 42.6262C58.2055 55.0605 46.4569 64.0002 32.7148 64.0002C28.5 64.0002 24.4472 63.157 20.7587 61.6179C19.8126 61.2522 18.917 60.7748 18.0214 60.2973C11.0138 56.6452 5.58978 50.296 3.00934 42.6262L15.8104 29.8211L20.4956 25.1125C21.7605 23.8427 23.8654 23.8427 25.1303 25.1125L27.4476 27.4389L39.2468 39.2941L46.8313 31.6751C48.0962 30.4052 50.2011 30.4052 51.466 31.6751L58.0486 38.2884L62.3696 42.6262H62.3645Z" fill="#F5F5F5" stroke="#D4D4D4" stroke-width="1.01587"/>
<path id="Vector_3" opacity="0.1" d="M62.3645 42.6262C58.2055 55.0605 46.4569 64.0002 32.7148 64.0002C28.5 64.0002 24.4472 63.157 20.7587 61.6179C19.8126 61.2522 18.917 60.7748 18.0214 60.2973C11.0138 56.6452 5.58978 50.296 3.00934 42.6262L15.8104 29.8211L20.4956 25.1125C21.7605 23.8427 23.8654 23.8427 25.1303 25.1125L27.4476 27.4389L39.2468 39.2941L46.8313 31.6751C48.0962 30.4052 50.2011 30.4052 51.466 31.6751L58.0486 38.2884L62.3696 42.6262H62.3645Z" fill="#A3A3A3" stroke="#D4D4D4" stroke-width="0.96"/>
<path id="Vector_4" d="M62.365 42.6261C58.2059 55.0604 46.4624 64.0001 32.7152 64.0001C28.5005 64.0001 24.4477 63.1569 20.7591 61.6179C19.813 61.2522 18.9174 60.7747 18.0219 60.2973L39.1916 39.1874L46.8267 31.675C48.0916 30.4052 50.1964 30.4052 51.4613 31.675L62.365 42.6261Z" fill="#F5F5F5" stroke="#D4D4D4" stroke-width="1.01587"/>
<path id="Vector_5" d="M61.4688 20.1904H41.4578C41.564 17.3358 43.8814 15.0602 46.7249 15.0602H47.1449C47.8836 12.678 50.0947 10.8799 52.7257 10.8799C55.1999 10.8799 57.3604 12.4646 58.2053 14.6335H58.4684C59.6271 16.4367 60.6795 18.2856 61.4688 20.1904Z" fill="white" stroke="#D4D4D4" stroke-width="0.96" stroke-miterlimit="10"/>
<path id="Vector_6" d="M19.3323 37.2262H1.74485C1.53235 35.6922 1.43115 34.1583 1.43115 32.6243C1.43115 30.3487 1.69426 28.1291 2.11421 26.011C2.42791 25.9043 2.74667 25.9043 3.06037 25.9043C6.11642 25.9043 8.69687 27.8091 9.69362 30.5062C12.0616 30.6129 14.0652 32.2535 14.6977 34.4783C15.0114 34.4224 15.2795 34.3716 15.6438 34.3716C17.3793 34.3157 18.9073 35.5348 19.3323 37.2262Z" fill="white" stroke="#D4D4D4" stroke-width="0.96" stroke-miterlimit="10"/>
<path id="Vector_7" d="M25.1261 25.1122L27.4434 27.4385L24.0737 30.8264L21.4932 28.236L17.9666 31.7763C17.9666 31.7763 16.8586 30.7756 15.8062 29.7699L20.4914 25.0614C21.7563 23.7915 23.8106 23.7915 25.1261 25.1122Z" fill="white" stroke="#D4D4D4" stroke-width="0.96"/>
<path id="Vector_8" d="M58.0432 38.2884L54.5166 41.8338L51.8805 39.1874L48.0908 42.9969L41.8218 36.6985L46.8259 31.675C48.0908 30.4052 50.1956 30.4052 51.4605 31.675L58.0432 38.2884Z" fill="white" stroke="#D4D4D4" stroke-width="0.96"/>
<path id="Vector_9" d="M63.9942 32.5737C63.9942 36.0632 63.4174 39.4511 62.3599 42.6257C58.2009 55.06 46.4523 63.9997 32.7101 63.9997C18.968 63.9997 7.16884 55.0042 3.00978 42.5699C2.42791 40.8277 2.00796 39.0296 1.74485 37.1756C1.53235 35.6416 1.43115 34.1077 1.43115 32.5737C1.43115 30.2981 1.69426 28.0734 2.11421 25.9604C5.11461 11.7788 17.7031 1.14258 32.7101 1.14258C42.7182 1.14258 51.6182 5.85115 57.3053 13.1553C57.7252 13.6835 58.0946 14.161 58.464 14.6892C59.6732 16.3807 60.675 18.2346 61.52 20.1902C63.0986 23.9997 63.9942 28.18 63.9942 32.5737Z" stroke="#D4D4D4" stroke-miterlimit="10"/>
</g>
<defs>
<clipPath id="clip0_2734_5743">
<rect width="64" height="64.5079" fill="white" transform="translate(0.5)"/>
</clipPath>
</defs>
</svg>
