<svg width="60" height="60" viewBox="0 0 60 60" fill="none" xmlns="http://www.w3.org/2000/svg">
<rect width="60" height="60" rx="12" fill="#384056"/>
<path d="M29.9997 47.3979C39.6083 47.3979 47.3977 39.6086 47.3977 30C47.3977 20.3914 39.6083 12.6021 29.9997 12.6021C20.3911 12.6021 12.6018 20.3914 12.6018 30C12.6018 39.6086 20.3911 47.3979 29.9997 47.3979Z" stroke="white" stroke-width="1.20415"/>
<path d="M30.0782 21.0392C30.4858 21.0392 30.8843 21.1601 31.2233 21.3865C31.5622 21.613 31.8264 21.9349 31.9824 22.3115C32.1384 22.6882 32.1792 23.1026 32.0997 23.5024C32.0202 23.9022 31.8239 24.2695 31.5356 24.5577C31.2474 24.846 30.8801 25.0423 30.4803 25.1218C30.0805 25.2013 29.6661 25.1605 29.2894 25.0045C28.9128 24.8485 28.5909 24.5843 28.3644 24.2454C28.138 23.9064 28.0171 23.5079 28.0171 23.1003C28.0171 22.5536 28.2342 22.0294 28.6208 21.6429C29.0073 21.2563 29.5316 21.0392 30.0782 21.0392Z" fill="white"/>
<path d="M31.554 29.2926C31.554 28.4242 30.8502 27.7202 29.9821 27.7202C29.1139 27.7202 28.4102 28.4242 28.4102 29.2926V38.3308C28.4102 39.1992 29.1139 39.9032 29.9821 39.9032C30.8502 39.9032 31.554 39.1992 31.554 38.3308V29.2926Z" fill="white"/>
</svg>
