<svg width="60" height="60" viewBox="0 0 60 60" fill="none" xmlns="http://www.w3.org/2000/svg">
<rect width="60" height="60" rx="12" fill="#F5F5F5"/>
<path d="M41.9598 43.1516H18.0404C17.5718 43.1505 17.1228 42.9635 16.7919 42.6318C16.461 42.3 16.2753 41.8505 16.2754 41.3819V14.7638C16.2753 14.2952 16.461 13.8457 16.7919 13.5139C17.1228 13.1822 17.5718 12.9952 18.0404 12.9941H41.9598C42.4284 12.9952 42.8774 13.1822 43.2083 13.5139C43.5392 13.8457 43.7249 14.2952 43.7248 14.7638V41.3819C43.7249 41.8505 43.5392 42.3 43.2083 42.6318C42.8774 42.9635 42.4284 43.1505 41.9598 43.1516ZM18.0404 14.0248C17.8451 14.0256 17.6581 14.1039 17.5204 14.2424C17.3827 14.381 17.3056 14.5685 17.306 14.7638V41.3819C17.3056 41.5773 17.3827 41.7648 17.5204 41.9033C17.6581 42.0418 17.8451 42.1201 18.0404 42.1209H41.9598C42.1551 42.1201 42.3421 42.0418 42.4798 41.9033C42.6175 41.7648 42.6945 41.5773 42.6941 41.3819V14.7638C42.6945 14.5685 42.6175 14.381 42.4798 14.2424C42.3421 14.1039 42.1551 14.0256 41.9598 14.0248H18.0404Z" fill="#737373"/>
<path d="M40.354 47.0056H36.8952C36.732 46.9906 36.5734 46.9434 36.4286 46.8669C36.2837 46.7904 36.1554 46.686 36.051 46.5597C35.9466 46.4334 35.8682 46.2878 35.8202 46.1311C35.7723 45.9744 35.7558 45.8098 35.7717 45.6467V42.6362C35.7717 42.4995 35.826 42.3684 35.9227 42.2718C36.0193 42.1751 36.1504 42.1208 36.2871 42.1208H40.958C41.0947 42.1208 41.2257 42.1751 41.3224 42.2718C41.419 42.3684 41.4733 42.4995 41.4733 42.6362V45.6467C41.4892 45.8095 41.4729 45.9738 41.4252 46.1302C41.3776 46.2866 41.2995 46.4321 41.1956 46.5584C41.0916 46.6846 40.9637 46.7891 40.8193 46.8658C40.6749 46.9426 40.5168 46.9901 40.354 47.0056ZM36.8024 43.1515V45.6467C36.7968 45.7074 36.8043 45.7686 36.8244 45.8261C36.8445 45.8836 36.8767 45.9362 36.9189 45.9801L40.354 45.975C40.4154 45.8767 40.447 45.7626 40.4447 45.6467V43.1515H36.8024Z" fill="#737373"/>
<path d="M23.1049 47.0056H19.646C19.4831 46.9903 19.3247 46.943 19.1801 46.8664C19.0354 46.7897 18.9074 46.6853 18.8032 46.559C18.699 46.4328 18.6208 46.2872 18.573 46.1306C18.5252 45.9741 18.5088 45.8096 18.5247 45.6467V42.6362C18.5247 42.4995 18.579 42.3684 18.6756 42.2718C18.7723 42.1751 18.9033 42.1208 19.04 42.1208H23.713C23.8497 42.1208 23.9807 42.1751 24.0774 42.2718C24.174 42.3684 24.2283 42.4995 24.2283 42.6362V45.6467C24.2442 45.8098 24.2277 45.9744 24.1798 46.1311C24.1319 46.2878 24.0535 46.4334 23.9491 46.5597C23.8447 46.686 23.7164 46.7904 23.5715 46.8669C23.4266 46.9434 23.2681 46.9906 23.1049 47.0056ZM19.5553 43.1515V45.6467C19.5497 45.7074 19.5572 45.7686 19.5773 45.8261C19.5974 45.8836 19.6296 45.9362 19.6718 45.9801L23.1049 45.975C23.1663 45.8767 23.1978 45.7626 23.1956 45.6467V43.1515H19.5553Z" fill="#737373"/>
<path d="M43.2095 18.746H16.7907C16.654 18.746 16.523 18.6917 16.4263 18.595C16.3297 18.4984 16.2754 18.3673 16.2754 18.2307C16.2754 18.094 16.3297 17.9629 16.4263 17.8663C16.523 17.7696 16.654 17.7153 16.7907 17.7153H43.2095C43.3461 17.7153 43.4772 17.7696 43.5739 17.8663C43.6705 17.9629 43.7248 18.094 43.7248 18.2307C43.7248 18.3673 43.6705 18.4984 43.5739 18.595C43.4772 18.6917 43.3461 18.746 43.2095 18.746Z" fill="#737373"/>
<path d="M43.2095 35.4403H16.7907C16.654 35.4403 16.523 35.386 16.4263 35.2894C16.3297 35.1927 16.2754 35.0617 16.2754 34.925C16.2754 34.7883 16.3297 34.6572 16.4263 34.5606C16.523 34.464 16.654 34.4097 16.7907 34.4097H43.2095C43.3461 34.4097 43.4772 34.464 43.5739 34.5606C43.6705 34.6572 43.7248 34.7883 43.7248 34.925C43.7248 35.0617 43.6705 35.1927 43.5739 35.2894C43.4772 35.386 43.3461 35.4403 43.2095 35.4403Z" fill="#737373"/>
<path d="M37.2889 41.1026C36.8294 41.1038 36.3799 40.9687 35.9972 40.7143C35.6145 40.4599 35.3159 40.0977 35.1392 39.6735C34.9625 39.2493 34.9157 38.7822 35.0046 38.3313C35.0935 37.8805 35.3141 37.4662 35.6386 37.1408C35.9631 36.8154 36.3769 36.5937 36.8275 36.5036C37.2781 36.4135 37.7453 36.4591 38.1699 36.6347C38.5946 36.8102 38.9576 37.1078 39.213 37.4898C39.4685 37.8718 39.6048 38.321 39.6048 38.7806C39.6048 39.3953 39.361 39.985 38.9269 40.4203C38.4928 40.8556 37.9037 41.101 37.2889 41.1026ZM37.2889 37.4891C37.0333 37.4879 36.783 37.5626 36.5698 37.7038C36.3566 37.8449 36.1901 38.0462 36.0914 38.2821C35.9927 38.5179 35.9663 38.7778 36.0154 39.0287C36.0645 39.2796 36.187 39.5103 36.3674 39.6915C36.5478 39.8727 36.7779 39.9963 37.0285 40.0467C37.2792 40.097 37.5392 40.0718 37.7755 39.9742C38.0119 39.8767 38.2139 39.7112 38.3561 39.4987C38.4983 39.2862 38.5742 39.0362 38.5742 38.7806C38.5746 38.6114 38.5417 38.4438 38.4773 38.2873C38.4129 38.1308 38.3184 37.9886 38.199 37.8687C38.0797 37.7487 37.9379 37.6535 37.7817 37.5884C37.6256 37.5233 37.4581 37.4895 37.2889 37.4891Z" fill="#737373"/>
<path d="M22.7113 41.1026C22.2518 41.1038 21.8022 40.9687 21.4196 40.7143C21.0369 40.4599 20.7383 40.0977 20.5616 39.6735C20.3849 39.2493 20.338 38.7822 20.4269 38.3313C20.5158 37.8805 20.7365 37.4662 21.061 37.1408C21.3855 36.8154 21.7992 36.5937 22.2498 36.5036C22.7004 36.4135 23.1676 36.4591 23.5923 36.6347C24.017 36.8102 24.38 37.1078 24.6354 37.4898C24.8908 37.8718 25.0272 38.321 25.0272 38.7806C25.0272 39.3953 24.7834 39.985 24.3493 40.4203C23.9151 40.8556 23.3261 41.101 22.7113 41.1026ZM22.7113 37.4891C22.4556 37.4879 22.2053 37.5626 21.9922 37.7038C21.779 37.8449 21.6125 38.0462 21.5138 38.2821C21.4151 38.5179 21.3886 38.7778 21.4378 39.0287C21.4869 39.2796 21.6094 39.5103 21.7898 39.6915C21.9701 39.8727 22.2002 39.9963 22.4509 40.0467C22.7016 40.097 22.9615 40.0718 23.1979 39.9742C23.4342 39.8767 23.6363 39.7112 23.7785 39.4987C23.9206 39.2862 23.9965 39.0362 23.9965 38.7806C23.9969 38.6114 23.964 38.4438 23.8996 38.2873C23.8353 38.1308 23.7407 37.9886 23.6214 37.8687C23.502 37.7487 23.3602 37.6535 23.2041 37.5884C23.0479 37.5233 22.8805 37.4895 22.7113 37.4891Z" fill="#737373"/>
<path d="M13.5097 24.5997C13.373 24.5997 13.242 24.5454 13.1453 24.4488C13.0487 24.3521 12.9944 24.2211 12.9944 24.0844V21.2908C12.9942 20.7845 13.1949 20.2989 13.5524 19.9404C13.9098 19.5819 14.3948 19.3798 14.9011 19.3784H16.7898C16.9264 19.3784 17.0575 19.4327 17.1542 19.5294C17.2508 19.626 17.3051 19.7571 17.3051 19.8937C17.3051 20.0304 17.2508 20.1615 17.1542 20.2581C17.0575 20.3548 16.9264 20.4091 16.7898 20.4091H14.9011C14.6681 20.4102 14.4451 20.5036 14.2808 20.6689C14.1166 20.8342 14.0246 21.0578 14.025 21.2908V24.0849C14.0249 24.2215 13.9705 24.3524 13.8739 24.449C13.7773 24.5455 13.6463 24.5997 13.5097 24.5997Z" fill="#737373"/>
<path d="M46.4905 24.5997C46.3538 24.5997 46.2228 24.5454 46.1261 24.4488C46.0295 24.3521 45.9752 24.2211 45.9752 24.0844V21.2908C45.9756 21.0578 45.8836 20.8342 45.7194 20.6689C45.5552 20.5036 45.3321 20.4102 45.0991 20.4091H43.2094C43.0727 20.4091 42.9417 20.3548 42.845 20.2581C42.7484 20.1615 42.6941 20.0304 42.6941 19.8937C42.6941 19.7571 42.7484 19.626 42.845 19.5294C42.9417 19.4327 43.0727 19.3784 43.2094 19.3784H45.0991C45.6054 19.3798 46.0904 19.5819 46.4479 19.9404C46.8053 20.2989 47.006 20.7845 47.0058 21.2908V24.0849C47.0057 24.2215 46.9513 24.3524 46.8547 24.449C46.7581 24.5455 46.6271 24.5997 46.4905 24.5997Z" fill="#737373"/>
<path d="M29.9999 35.4401C29.8633 35.4401 29.7322 35.3858 29.6356 35.2892C29.5389 35.1926 29.4846 35.0615 29.4846 34.9248V18.2282C29.4846 18.0915 29.5389 17.9605 29.6356 17.8638C29.7322 17.7672 29.8633 17.7129 29.9999 17.7129C30.1366 17.7129 30.2677 17.7672 30.3643 17.8638C30.461 17.9605 30.5153 18.0915 30.5153 18.2282V34.9248C30.5153 35.0615 30.461 35.1926 30.3643 35.2892C30.2677 35.3858 30.1366 35.4401 29.9999 35.4401Z" fill="#737373"/>
<path d="M19.7486 26.9831C19.6466 26.9832 19.5469 26.953 19.4621 26.8964C19.3772 26.8397 19.3111 26.7592 19.2721 26.6649C19.2331 26.5707 19.2229 26.4669 19.2429 26.3669C19.2629 26.2669 19.3121 26.175 19.3843 26.103L24.5773 20.9105C24.6744 20.8167 24.8046 20.7647 24.9397 20.7659C25.0749 20.7671 25.2041 20.8213 25.2996 20.9168C25.3952 21.0124 25.4494 21.1416 25.4506 21.2767C25.4517 21.4118 25.3998 21.542 25.3059 21.6392L20.113 26.8321C20.0164 26.9288 19.8853 26.9831 19.7486 26.9831Z" fill="#737373"/>
<path d="M19.3204 24.2799C19.2185 24.2798 19.1189 24.2496 19.0342 24.193C18.9494 24.1363 18.8834 24.0559 18.8444 23.9617C18.8054 23.8676 18.7952 23.764 18.8151 23.664C18.8349 23.5641 18.884 23.4723 18.9561 23.4002L21.8713 20.485C21.9685 20.3911 22.0986 20.3392 22.2337 20.3404C22.3689 20.3415 22.4981 20.3957 22.5937 20.4913C22.6892 20.5868 22.7434 20.7161 22.7446 20.8512C22.7457 20.9863 22.6938 21.1165 22.5999 21.2137L19.6847 24.1253C19.6372 24.1738 19.5805 24.2124 19.518 24.2389C19.4555 24.2655 19.3883 24.2794 19.3204 24.2799Z" fill="#737373"/>
<path d="M32.4317 38.1117H27.5681C27.4314 38.1117 27.3003 38.0574 27.2037 37.9608C27.107 37.8641 27.0527 37.7331 27.0527 37.5964C27.0527 37.4597 27.107 37.3286 27.2037 37.232C27.3003 37.1353 27.4314 37.0811 27.5681 37.0811H32.4317C32.5684 37.0811 32.6995 37.1353 32.7961 37.232C32.8927 37.3286 32.947 37.4597 32.947 37.5964C32.947 37.7331 32.8927 37.8641 32.7961 37.9608C32.6995 38.0574 32.5684 38.1117 32.4317 38.1117Z" fill="#737373"/>
<path d="M32.4317 40.4801H27.5681C27.4314 40.4801 27.3003 40.4258 27.2037 40.3292C27.107 40.2325 27.0527 40.1015 27.0527 39.9648C27.0527 39.8281 27.107 39.697 27.2037 39.6004C27.3003 39.5038 27.4314 39.4495 27.5681 39.4495H32.4317C32.5684 39.4495 32.6995 39.5038 32.7961 39.6004C32.8927 39.697 32.947 39.8281 32.947 39.9648C32.947 40.1015 32.8927 40.2325 32.7961 40.3292C32.6995 40.4258 32.5684 40.4801 32.4317 40.4801Z" fill="#737373"/>
</svg>
