<svg width="60" height="60" viewBox="0 0 60 60" fill="none" xmlns="http://www.w3.org/2000/svg">
<rect width="60" height="60" rx="12" fill="#384056"/>
<path d="M47.3066 36.3957C46.3879 34.7981 45.12 32.8951 45.0977 30.9965C45.133 30.0821 45.588 27.0559 45.408 26.2027C45.2467 25.3833 44.22 20.4953 43.9075 19.6997L42.3192 16.3877C42.0442 15.821 41.4588 15.4553 40.8288 15.4553C39.6401 15.4272 38.7934 16.7743 39.3398 17.832L39.5242 18.2179L36.3403 15.7937C35.989 15.5258 35.5541 15.4113 35.1156 15.4704C34.3128 15.5647 33.6691 16.3027 33.6821 17.1098C33.6821 17.6318 33.9197 18.1121 34.3344 18.4274C34.5641 18.6348 37.9121 21.059 37.943 21.2829C36.5952 20.6961 33.4416 20.0769 31.9829 19.7285C30.9835 19.4721 29.9302 20.3117 29.9575 21.3434C29.9575 22.1196 30.4867 22.7834 31.2442 22.9562C31.363 23.0023 35.567 23.9009 35.5267 23.975L36.3367 24.3717L35.6664 24.2551C35.2596 24.1205 32.8613 24.7037 32.4149 24.7526C31.8086 24.8657 31.2823 25.2897 30.972 25.9154L30.1361 27.6002C29.73 28.4203 29.9539 29.4686 30.6552 29.9611C29.5738 31.2535 30.6257 32.4609 31.1779 33.69C31.5178 34.3754 32.093 34.8398 32.7554 34.9637C33.1435 35.0745 35.1235 35.3085 35.4158 35.5706L38.7883 37.7832C39.0742 37.9704 39.3139 38.2555 39.4824 38.6069L40.0526 39.7941C40.1268 39.9489 40.2816 40.0389 40.4422 40.0389C40.7503 40.0425 40.9735 39.6991 40.831 39.4197L40.2607 38.2325C40.0238 37.7393 39.679 37.3339 39.2614 37.0603C38.6738 36.7493 35.7182 34.5475 35.0918 34.5223L32.9138 34.1141C32.5207 34.0406 32.1694 33.7454 31.9512 33.3055L31.1621 31.7157C30.9245 31.2621 31.0742 30.4773 31.6027 30.3614C32.4682 30.2469 32.2291 32.2017 34.0399 32.5697C36.0379 32.957 35.8406 33.0672 37.3037 31.6034C37.5514 31.3637 37.6932 31.0109 37.6932 30.6357V28.9891C37.6932 28.529 37.4765 28.1042 37.1273 27.881L35.7974 27.0329C35.5786 26.8932 35.3208 26.8428 35.0731 26.8889C33.96 27.12 32.8375 27.0768 32.2558 28.3094C32.0909 28.6017 31.8634 29.3311 31.4666 29.3405C30.8554 29.3498 30.6473 28.4981 30.9086 27.984L31.7446 26.2992C31.9332 25.919 32.2349 25.6641 32.5726 25.6015L35.2034 25.1076C35.3172 24.9895 38.9863 25.7484 39.1778 25.7426C39.5659 25.8189 39.8446 25.3301 39.5796 25.0356C39.5414 24.9917 39.4946 24.9557 39.4421 24.929L35.9076 23.1989C35.7564 23.0484 31.7402 22.1995 31.4364 22.1131C30.4262 21.8618 30.7639 20.3599 31.7899 20.5701C32.6957 20.8265 35.9825 21.4471 36.7968 21.7898L39.0158 22.584L40.3162 24.1615C40.4018 24.2652 40.525 24.3185 40.6495 24.3185C41.0002 24.3285 41.2198 23.88 40.9829 23.6114C40.7539 23.3681 38.316 20.285 38.0964 20.2058L34.8571 17.7384C34.513 17.4878 34.4417 16.9637 34.7074 16.6296C34.9579 16.2861 35.4835 16.2149 35.8162 16.4791L39.2801 19.1172C39.4478 19.2079 40.6574 20.7444 40.813 20.9136C40.8886 20.9201 41.6201 24.4193 41.6683 24.5546C41.7209 24.7872 41.952 24.9333 42.1846 24.8808C42.4171 24.8282 42.5633 24.5971 42.5107 24.3645L41.759 21.0302C41.7266 20.6796 40.273 17.8356 40.116 17.4554C39.6826 16.5129 41.0585 15.8325 41.5387 16.7621L43.127 20.0748C43.3474 20.6781 44.4468 25.7405 44.5498 26.3229C44.7089 27.0631 44.2488 30.2232 44.2301 31.0137C44.2495 33.0693 45.5462 35.1084 46.5542 36.8256C46.8358 37.308 47.5846 36.8918 47.3038 36.3957H47.3066ZM32.7094 29.3455C32.9635 28.8278 33.2472 28.0826 33.8606 27.9955C33.8952 28.0005 35.3489 27.6773 35.3359 27.7608L36.665 28.6089C36.7486 28.6622 36.8321 28.7997 36.8321 28.9884V30.635C36.8321 30.7733 36.7831 30.9065 36.7039 30.9828L35.832 31.8317C35.7643 31.9094 35.5894 32.0023 35.4439 31.9519L34.2012 31.7193C33.1529 31.5257 33.2018 30.2505 32.443 29.7365C32.5466 29.6227 32.6366 29.4917 32.7094 29.3448V29.3455Z" fill="white"/>
<path d="M25.0348 35.734L27.5058 35.3071C28.1121 35.194 28.6384 34.77 28.9494 34.1443C29.1913 33.5582 30.0481 32.2471 29.9855 31.5876C29.9841 30.9748 29.7191 30.4176 29.2655 30.0986C30.3426 28.8645 29.2943 27.5649 28.7428 26.369C28.4029 25.6843 27.8277 25.2206 27.166 25.096C26.7765 24.988 24.8 24.7483 24.5048 24.4891L21.1316 22.2751C20.8465 22.0886 20.6068 21.8042 20.4383 21.4514L19.868 20.2648C19.6175 19.7601 18.85 20.1208 19.089 20.6392C19.4684 21.4089 19.894 22.5652 20.6586 22.998C21.2317 23.3068 24.2111 25.5136 24.8281 25.536L27.0061 25.9449C27.3993 26.0184 27.7506 26.3128 27.9688 26.7528L28.7579 28.344C28.9638 28.7587 28.8752 29.3109 28.5664 29.5744C28.5246 29.5932 28.4404 29.6306 28.2733 29.7026C27.4453 29.7307 27.6714 27.8616 25.88 27.4893C23.8856 27.1005 24.0772 26.9932 22.6148 28.4563C22.3679 28.6968 22.2268 29.0488 22.2268 29.4232V31.0699C22.2268 31.53 22.4435 31.9548 22.7927 32.178L24.1204 33.0247C24.3392 33.1658 24.5977 33.2169 24.8461 33.1701L26.2206 32.9124C27.8744 32.5682 27.6743 30.8388 28.4541 30.7185C28.881 30.6976 29.1179 31.1592 29.1208 31.5876C29.1805 31.9584 28.3057 33.4156 28.1747 33.7598C27.986 34.14 27.6844 34.3948 27.3524 34.4568L24.8872 34.883C24.4033 35.0004 23.296 34.9039 22.7941 34.9096C22.3132 34.9233 21.7775 34.8693 21.4384 34.4863L19.6096 32.6035C19.4432 32.4321 19.1696 32.4285 18.999 32.5948C18.8276 32.7612 18.824 33.0348 18.9904 33.2054L20.8192 35.0882C21.2915 35.5886 21.9654 35.7967 22.6422 35.77L23.7582 36.5793C24.0527 36.8335 24.4077 37.0135 24.7849 37.0992L28.4836 37.9444C29.4649 38.1835 29.1849 39.6969 28.1668 39.496C27.7866 39.3938 23.6617 38.5132 23.4313 38.3628C23.2571 38.2915 20.5369 37.169 20.4743 37.1431C19.3403 36.7615 18.5641 35.3935 17.8931 34.4884C17.5568 34.0356 16.8656 34.5259 17.1925 34.9939L18.2279 36.4281C18.7564 37.169 19.5088 37.714 20.3591 38.0301C20.619 38.3534 21.483 39.6415 21.8243 39.851L25.0636 42.3177C25.232 42.4459 25.34 42.6316 25.3681 42.8412C25.4819 43.5136 24.6352 44.0126 24.1045 43.577L20.6406 40.9396C20.5506 40.8705 20.4707 40.7935 20.4001 40.7078C20.0416 40.2196 17.852 37.7724 17.672 37.2424L17.3444 36.5304C17.1011 36.0206 16.33 36.3698 16.5596 36.8918L16.8872 37.6039C17.1306 38.2202 17.9644 39.0871 18.3712 39.6091L19.804 42.6014C20.236 43.5468 18.8615 44.225 18.3812 43.2962L16.7929 39.9835C16.5733 39.3794 15.4732 34.3185 15.3702 33.7353C15.219 33.0499 15.6546 29.8509 15.6892 29.11C15.7007 27.0285 14.3831 24.9686 13.3664 23.232C13.0806 22.751 12.3404 23.1571 12.6169 23.6618L13.8496 25.811C14.4169 26.8003 14.7546 27.9242 14.8259 29.0618C14.7884 29.9668 14.337 33.0088 14.5148 33.8556C14.6768 34.6785 15.7028 39.5601 16.0153 40.3586L17.6036 43.6706C18.819 45.768 21.7472 43.9982 20.3987 41.8411L23.5818 44.2639C23.8727 44.4856 24.219 44.603 24.5841 44.603C25.5597 44.6275 26.3783 43.6872 26.2256 42.7252C26.1666 42.2868 25.9398 41.898 25.5877 41.6301C25.2565 41.3292 22.0187 39.0532 21.9143 38.6709L23.103 39.1612C23.4688 39.3643 27.482 40.206 27.9745 40.3377C28.8256 40.5544 29.7616 39.9547 29.9207 39.0907C30.1252 38.1979 29.5672 37.3058 28.6772 37.1013L24.9779 36.256C24.6647 36.197 24.4098 35.9961 24.1636 35.8046C24.4566 35.806 24.7504 35.7823 25.0355 35.7326L25.0348 35.734ZM27.2128 30.7135C26.9586 31.2312 26.6742 31.9764 26.0615 32.0635C26.0248 32.0584 24.5747 32.3824 24.5862 32.2975L23.2571 31.45C23.1736 31.3968 23.09 31.2585 23.09 31.0706V29.424C23.09 29.2857 23.139 29.1525 23.2168 29.0762L24.0894 28.2273C24.1564 28.1474 24.3414 28.0581 24.4775 28.1064L25.7202 28.3396C26.7729 28.5369 26.7145 29.8056 27.4799 30.3204C27.3755 30.4341 27.2848 30.5666 27.2121 30.7135H27.2128Z" fill="white"/>
</svg>
