<svg width="17" height="16" viewBox="0 0 17 16" fill="none" xmlns="http://www.w3.org/2000/svg">
<path d="M7.33677 1.60684C7.70102 0.477409 9.29898 0.477409 9.66323 1.60684L10.6831 4.76929C10.8463 5.2751 11.3176 5.61752 11.849 5.61636L15.1719 5.6091C16.3586 5.6065 16.8524 7.12625 15.8908 7.82168L13.1983 9.76892C12.7676 10.0804 12.5876 10.6344 12.7529 11.1395L13.7867 14.2975C14.1558 15.4253 12.8631 16.3645 11.9045 15.6649L9.22056 13.7059C8.79128 13.3926 8.20872 13.3926 7.77944 13.7059L5.09548 15.6649C4.13693 16.3645 2.84416 15.4253 3.21334 14.2975L4.24706 11.1395C4.4124 10.6344 4.23238 10.0804 3.80173 9.76892L1.10923 7.82168C0.147637 7.12625 0.641432 5.6065 1.82815 5.6091L5.15097 5.61636C5.68244 5.61752 6.15374 5.2751 6.31687 4.76929L7.33677 1.60684Z" fill="#FFE047"/>
</svg>
