<svg width="85" height="16" viewBox="0 0 85 16" fill="none" xmlns="http://www.w3.org/2000/svg">
<path d="M72.5452 15.782V0H78.9975C82.5506 0 84.7414 2.21253 84.7305 5.42779C84.7414 8.68665 82.507 10.8338 78.8885 10.8338H76.2509V15.782H72.5452ZM76.2509 7.89101H78.2127C79.9675 7.90191 80.8939 6.92098 80.8939 5.42779C80.8939 3.9564 79.9675 3.00817 78.2127 3.00817H76.2509V7.89101Z" fill="#384056"/>
<path d="M70.1474 0V15.782H66.4417V0H70.1474Z" fill="#384056"/>
<path d="M52.1638 15.782V0H58.6161C62.1693 0 64.36 2.01635 64.3491 5.23161C64.36 7.41144 63.3573 8.95913 61.6134 9.75477L64.9159 15.782H60.8396L57.9404 10.3542H55.8695V15.782H52.1638ZM55.8695 7.38965H57.8314C59.5862 7.40055 60.5126 6.7139 60.5126 5.23161C60.5126 3.74932 59.5862 3.00817 57.8314 3.00817H55.8695V7.38965Z" fill="#384056"/>
<path d="M37.0356 3.02997V0H50.3108V3.02997H45.5152V15.782H41.8313V3.02997H37.0356Z" fill="#384056"/>
<path d="M35.1828 0V15.782H31.4771V0H35.1828Z" fill="#384056"/>
<path d="M29.0793 0V15.782H25.9185L19.5098 6.51771H19.4008V15.782H15.6951V0H18.8994L25.2428 9.26431H25.3735V0H29.0793Z" fill="#384056"/>
<path d="M9.56948 0H13.297V10.1798C13.297 13.7112 10.6158 15.9891 6.6485 16C2.6485 15.9891 0 13.7112 0 10.1798V0H3.70572V9.87466C3.70572 11.5422 4.89373 12.752 6.6485 12.752C8.39237 12.752 9.58038 11.5422 9.56948 9.87466V0Z" fill="#384056"/>
</svg>
