<svg width="60" height="60" viewBox="0 0 60 60" fill="none" xmlns="http://www.w3.org/2000/svg">
<rect width="60" height="60" rx="12" fill="#F5F5F5"/>
<path d="M23.55 21.2198C25.1015 21.2198 26.3591 19.9622 26.3591 18.4108C26.3591 16.8594 25.1015 15.6017 23.55 15.6017C21.9986 15.6017 20.741 16.8594 20.741 18.4108C20.741 19.9622 21.9986 21.2198 23.55 21.2198Z" stroke="#737373" stroke-width="1.296"/>
<path d="M23.542 21.4344V31.7904H36.1782L40.8589 41.1729L44.6705 39.7691" stroke="#737373" stroke-width="1.296" stroke-linecap="round" stroke-linejoin="round"/>
<path d="M32.7454 26.5931H23.634C19.638 26.5931 15.3293 30.8192 15.3293 36.2235C15.3293 41.6278 20.4441 45.0665 24.8764 45.046C31.297 45.0038 33.9077 38.9564 33.9077 35.9335" stroke="#737373" stroke-width="1.296" stroke-linecap="round" stroke-linejoin="round"/>
</svg>
