<svg width="60" height="60" viewBox="0 0 60 60" fill="none" xmlns="http://www.w3.org/2000/svg">
<rect width="60" height="60" rx="12" fill="#384056"/>
<path d="M23.551 21.2202C25.1024 21.2202 26.3601 19.9625 26.3601 18.4111C26.3601 16.8597 25.1024 15.6021 23.551 15.6021C21.9996 15.6021 20.7419 16.8597 20.7419 18.4111C20.7419 19.9625 21.9996 21.2202 23.551 21.2202Z" stroke="white" stroke-width="1.296"/>
<path d="M23.542 21.4346V31.7905H36.1782L40.8589 41.173L44.6705 39.7693" stroke="white" stroke-width="1.296" stroke-linecap="round" stroke-linejoin="round"/>
<path d="M32.7456 26.5933H23.6342C19.6382 26.5933 15.3296 30.8193 15.3296 36.2236C15.3296 41.6279 20.4443 45.0666 24.8766 45.0461C31.2972 45.004 33.9079 38.9565 33.9079 35.9336" stroke="white" stroke-width="1.296" stroke-linecap="round" stroke-linejoin="round"/>
</svg>
